if (_typeface_js && _typeface_js.loadFace) _typeface_js.loadFace({"glyphs":{"0":{"ha":694,"x_min":48,"x_max":670,"o":"m 670 645 q 621 321 670 491 q 486 69 572 151 q 278 -14 401 -14 q 48 271 48 -14 q 97 596 48 431 q 231 843 146 762 q 436 924 316 924 q 670 645 670 924 m 503 658 q 484 800 503 751 q 418 848 465 848 q 319 771 360 848 q 246 522 278 694 q 214 249 214 349 q 295 61 214 61 q 377 107 342 61 q 438 246 412 153 q 482 460 464 338 q 503 658 500 583 z "},"1":{"ha":694,"x_min":33,"x_max":554,"o":"m 392 75 l 554 58 l 544 0 l 33 0 l 43 58 l 210 75 l 330 757 l 158 709 l 168 766 l 451 917 l 541 917 l 392 75 z "},"2":{"ha":694,"x_min":-17,"x_max":663,"o":"m 559 0 l -17 0 l 5 128 q 372 464 268 331 q 475 711 475 597 q 441 818 475 785 q 353 850 408 850 q 245 815 292 850 l 193 684 l 134 684 l 170 890 q 280 911 227 903 q 395 920 334 920 q 592 867 522 920 q 663 724 663 815 q 636 594 663 657 q 558 471 610 531 q 420 341 507 410 q 130 140 333 271 l 586 140 l 559 0 z "},"3":{"ha":694,"x_min":-11,"x_max":657,"o":"m 235 -14 q -11 14 79 -14 l 20 234 l 82 234 l 92 88 q 147 66 104 77 q 228 55 190 55 q 374 109 321 55 q 426 267 426 162 q 392 384 426 345 q 293 429 359 422 l 215 434 l 230 516 l 307 522 q 469 713 469 532 q 436 816 469 781 q 346 850 404 850 q 240 815 285 850 l 188 684 l 129 684 l 165 890 q 282 914 235 908 q 389 920 330 920 q 586 867 515 920 q 657 722 657 814 q 599 555 657 618 q 428 476 541 493 q 566 406 517 462 q 614 269 614 350 q 512 61 614 136 q 235 -14 410 -14 z "},"4":{"ha":694,"x_min":-22,"x_max":652,"o":"m 524 186 l 492 0 l 323 0 l 355 186 l -22 186 l -3 290 l 515 914 l 652 914 l 546 312 l 652 312 l 630 186 l 524 186 m 462 730 l 116 312 l 377 312 l 424 574 q 462 730 433 621 z "},"5":{"ha":694,"x_min":16,"x_max":659,"o":"m 350 541 q 550 480 481 541 q 619 305 619 419 q 518 70 619 153 q 231 -14 417 -14 q 138 -9 180 -14 q 16 14 97 -5 l 46 234 l 109 234 l 118 88 q 171 64 137 73 q 240 55 205 55 q 383 119 332 55 q 433 302 433 183 q 300 466 433 466 q 236 459 273 466 q 170 439 199 452 l 106 439 l 189 909 l 659 909 l 634 772 l 250 772 l 208 524 q 350 541 269 541 z "},"6":{"ha":694,"x_min":47,"x_max":694,"o":"m 311 -14 q 116 69 184 -14 q 47 302 47 152 q 109 609 47 466 q 275 836 170 751 q 503 920 380 920 q 694 890 602 920 l 658 684 l 599 684 l 593 815 q 497 850 549 850 q 343 757 410 850 q 244 503 276 664 q 423 553 338 553 q 584 494 527 553 q 640 328 640 435 q 600 152 640 230 q 485 30 559 73 q 311 -14 410 -14 m 223 281 q 250 112 223 169 q 327 55 276 55 q 423 125 387 55 q 459 311 459 196 q 428 430 459 393 q 348 468 397 468 q 233 440 300 468 q 223 281 223 363 z "},"7":{"ha":694,"x_min":58,"x_max":741,"o":"m 172 650 l 113 650 l 159 909 l 741 909 l 731 856 l 234 0 l 58 0 l 583 772 l 224 772 l 172 650 z "},"8":{"ha":694,"x_min":25,"x_max":673,"o":"m 673 736 q 628 573 673 640 q 503 482 582 506 q 591 415 559 462 q 623 298 623 368 q 284 -14 623 -14 q 92 48 159 -14 q 25 218 25 109 q 80 392 25 323 q 229 482 134 460 q 159 555 185 505 q 132 665 132 604 q 211 858 132 791 q 440 924 290 924 q 614 875 555 924 q 673 736 673 827 m 303 620 q 375 519 303 519 q 467 584 433 519 q 502 752 502 648 q 424 855 502 855 q 335 794 366 855 q 303 620 303 733 m 196 184 q 300 56 196 56 q 413 124 375 56 q 452 319 452 192 q 348 444 452 444 q 235 374 274 444 q 196 184 196 304 z "},"9":{"ha":694,"x_min":20,"x_max":670,"o":"m 399 919 q 596 832 522 919 q 670 597 670 745 q 611 290 670 430 q 448 68 552 149 q 221 -14 343 -14 q 20 16 112 -14 l 57 222 l 116 222 l 122 91 q 230 56 166 56 q 380 144 315 56 q 477 396 446 233 q 300 353 388 353 q 136 416 195 353 q 77 591 77 479 q 118 759 77 684 q 232 877 158 834 q 399 919 305 919 m 495 599 q 467 784 495 716 q 391 851 439 851 q 294 780 331 851 q 257 591 257 708 q 285 476 257 514 q 363 438 313 438 q 487 465 415 438 q 495 599 495 530 z "}," ":{"ha":347,"x_min":0,"x_max":0,"o":""},"!":{"ha":541,"x_min":106,"x_max":460,"o":"m 281 285 l 217 285 l 258 909 l 460 909 l 281 285 m 218 -20 q 139 13 172 -20 q 106 93 106 45 q 138 173 106 140 q 218 205 171 205 q 298 173 265 205 q 331 93 331 140 q 298 13 331 46 q 218 -20 266 -20 z "},"\"":{"ha":771,"x_min":250,"x_max":679,"o":"m 517 909 l 679 909 l 568 583 l 511 583 l 517 909 m 256 909 l 417 909 l 307 583 l 250 583 l 256 909 z "},"#":{"ha":694,"x_min":-3,"x_max":718,"o":"m 484 279 l 383 0 l 281 0 l 381 279 l 203 279 l 104 0 l 0 0 l 100 279 l -3 279 l 12 362 l 132 362 l 202 557 l 45 557 l 60 640 l 233 640 l 330 909 l 433 909 l 335 640 l 513 640 l 610 909 l 713 909 l 615 640 l 718 640 l 703 557 l 585 557 l 517 362 l 669 362 l 654 279 l 484 279 m 304 557 l 235 362 l 412 362 l 483 557 l 304 557 z "},"$":{"ha":694,"x_min":-16,"x_max":666,"o":"m 484 918 q 666 890 581 913 l 628 674 l 568 674 l 563 807 q 470 846 521 838 l 414 549 q 550 460 513 494 q 608 384 587 426 q 630 287 630 342 q 309 -11 630 13 l 291 -106 l 222 -106 l 239 -14 q -16 35 95 -12 l 27 279 l 87 279 l 87 133 q 150 78 109 101 q 252 55 190 56 l 317 404 q 188 486 225 452 q 129 562 151 519 q 108 664 108 605 q 414 919 108 908 l 431 1006 l 500 1006 l 484 918 m 465 235 q 446 311 465 277 q 382 375 427 344 l 323 62 q 427 123 389 77 q 465 235 465 169 m 271 710 q 293 635 271 666 q 351 581 315 605 l 401 848 q 304 806 338 842 q 271 710 271 770 z "},"%":{"ha":1157,"x_min":90,"x_max":1086,"o":"m 239 -14 l 137 -14 l 945 924 l 1048 924 l 239 -14 m 543 749 q 536 675 543 720 q 272 422 491 422 q 90 598 90 422 q 162 835 90 746 q 358 924 234 924 q 496 880 449 924 q 543 749 543 836 m 219 578 q 275 486 219 486 q 345 524 313 486 q 393 631 376 563 q 411 756 411 699 q 397 833 411 807 q 351 860 384 860 q 283 820 313 860 q 236 708 253 781 q 219 578 219 636 m 1086 309 q 1078 234 1086 279 q 814 -18 1034 -18 q 632 157 632 -18 q 704 394 632 305 q 901 483 777 483 q 1039 439 991 483 q 1086 309 1086 395 m 762 138 q 817 45 762 45 q 887 83 856 45 q 936 190 918 122 q 954 315 954 258 q 940 393 954 366 q 894 419 926 419 q 825 379 855 419 q 779 268 795 340 q 762 138 762 195 z "},"&":{"ha":1080,"x_min":34,"x_max":1063,"o":"m 745 747 q 722 652 745 692 q 655 583 698 612 q 505 510 613 553 l 717 272 q 811 486 792 388 l 732 504 l 740 547 l 1063 547 l 1056 504 l 971 486 q 891 332 940 412 q 787 191 842 251 l 905 60 l 987 43 l 980 0 l 733 0 l 665 81 q 511 7 585 28 q 349 -14 437 -14 q 115 50 195 -14 q 34 235 34 113 q 64 352 34 303 q 146 437 94 401 q 303 511 197 473 q 245 703 245 603 q 315 863 245 804 q 507 923 385 923 q 635 901 581 923 q 717 839 688 879 q 745 747 745 799 m 351 446 q 267 390 292 416 q 228 327 242 363 q 214 241 214 291 q 257 119 214 164 q 371 73 300 73 q 601 155 505 73 l 351 446 m 404 726 q 458 572 404 650 q 567 647 537 608 q 596 738 596 686 q 571 826 596 795 q 507 857 545 857 q 430 822 456 857 q 404 726 404 787 z "},"'":{"ha":386,"x_min":191,"x_max":359,"o":"m 197 909 l 359 909 l 248 583 l 191 583 l 197 909 z "},"(":{"ha":463,"x_min":68,"x_max":546,"o":"m 230 81 q 339 -225 230 -128 l 324 -296 q 130 -113 191 -219 q 68 148 68 -6 q 99 404 68 262 q 183 647 129 546 q 321 822 237 747 q 546 964 406 896 l 531 880 q 375 702 439 819 q 270 399 310 585 q 230 81 230 212 z "},")":{"ha":463,"x_min":-104,"x_max":374,"o":"m -104 -296 l -90 -212 q 65 -36 1 -151 q 172 267 130 78 q 213 590 213 455 q 105 893 213 798 l 117 964 q 314 779 254 884 q 374 522 374 674 q 343 268 374 410 q 260 25 313 127 q 122 -151 206 -77 q -104 -296 38 -226 z "},"*":{"ha":694,"x_min":111,"x_max":701,"o":"m 429 603 l 444 383 l 288 408 l 368 615 l 151 488 l 111 640 l 326 667 l 130 760 l 215 892 l 382 705 l 370 925 l 526 901 l 443 696 l 660 817 l 701 667 l 483 642 l 683 551 l 597 420 l 429 603 z "},"+":{"ha":791,"x_min":85,"x_max":730,"o":"m 456 412 l 456 138 l 359 138 l 359 412 l 85 412 l 85 509 l 359 509 l 359 785 l 456 785 l 456 509 l 730 509 l 730 412 l 456 412 z "},",":{"ha":347,"x_min":-30,"x_max":233,"o":"m 233 72 q 165 -108 233 -35 q -30 -215 98 -182 l -30 -153 q 36 -122 8 -142 q 79 -75 64 -101 q 94 -26 94 -50 q 84 0 94 -12 q 46 28 74 11 q -2 114 -2 58 q 28 181 -2 158 q 106 204 59 204 q 198 168 163 204 q 233 72 233 131 z "},"-":{"ha":463,"x_min":29,"x_max":412,"o":"m 29 268 l 52 386 l 412 386 l 390 268 l 29 268 z "},".":{"ha":347,"x_min":10,"x_max":235,"o":"m 123 -20 q 43 13 76 -20 q 10 93 10 45 q 43 173 10 140 q 123 205 75 205 q 202 173 170 205 q 235 93 235 140 q 203 13 235 46 q 123 -20 170 -20 z "},"/":{"ha":386,"x_min":-84,"x_max":492,"o":"m 11 -14 l -84 -14 l 397 915 l 492 915 l 11 -14 z "},":":{"ha":463,"x_min":47,"x_max":366,"o":"m 254 426 q 174 458 206 426 q 142 538 142 491 q 173 618 142 586 q 254 651 205 651 q 334 618 302 651 q 366 538 366 585 q 334 459 366 492 q 254 426 301 426 m 159 -20 q 80 13 113 -20 q 47 93 47 45 q 79 173 47 140 q 159 205 112 205 q 239 173 206 205 q 272 93 272 140 q 239 13 272 46 q 159 -20 207 -20 z "},";":{"ha":463,"x_min":18,"x_max":372,"o":"m 280 72 q 213 -108 280 -35 q 18 -215 146 -182 l 18 -153 q 83 -122 56 -142 q 126 -75 111 -101 q 141 -26 141 -50 q 131 0 141 -12 q 94 28 121 11 q 45 114 45 58 q 76 181 45 158 q 153 204 106 204 q 245 168 210 204 q 280 72 280 131 m 259 426 q 179 458 212 426 q 147 538 147 491 q 179 618 147 586 q 259 651 210 651 q 339 618 307 651 q 372 538 372 585 q 339 459 372 492 q 259 426 307 426 z "},"<":{"ha":791,"x_min":68,"x_max":714,"o":"m 68 431 l 68 492 l 714 809 l 714 712 l 194 461 l 714 210 l 714 113 l 68 431 z "},"=":{"ha":791,"x_min":80,"x_max":726,"o":"m 726 371 l 726 273 l 80 273 l 80 371 l 726 371 m 726 648 l 726 551 l 80 551 l 80 648 l 726 648 z "},">":{"ha":791,"x_min":104,"x_max":749,"o":"m 104 113 l 104 210 l 625 461 l 104 712 l 104 809 l 749 492 l 749 431 l 104 113 z "},"?":{"ha":694,"x_min":125,"x_max":644,"o":"m 644 707 q 583 522 644 591 q 392 416 522 452 l 337 401 l 294 264 l 224 264 l 223 477 l 296 492 q 461 713 461 527 q 333 850 461 850 q 279 841 307 850 q 233 819 251 832 l 189 687 l 129 687 l 156 887 q 368 920 263 920 q 572 865 500 920 q 644 707 644 810 m 237 -20 q 158 13 190 -20 q 125 93 125 45 q 158 173 125 140 q 237 205 190 205 q 317 173 284 205 q 350 93 350 140 q 317 13 350 46 q 237 -20 285 -20 z "},"@":{"ha":1156,"x_min":33,"x_max":1118,"o":"m 659 925 q 998 816 878 925 q 1118 510 1118 707 q 1059 260 1118 374 q 901 81 999 146 q 692 17 803 17 q 615 42 646 17 q 578 106 584 68 q 480 42 532 67 q 393 17 429 17 q 301 61 336 17 q 267 181 267 104 q 301 362 267 280 q 402 506 336 444 q 542 597 469 568 q 736 627 614 627 q 860 619 795 627 l 778 257 q 758 151 758 172 q 793 115 758 115 q 888 165 844 115 q 960 311 932 216 q 987 509 987 406 q 898 760 987 671 q 654 850 810 850 q 400 773 511 850 q 227 558 290 696 q 164 248 164 419 q 213 23 164 121 q 355 -131 262 -76 q 574 -186 448 -186 q 706 -173 645 -186 q 818 -137 766 -160 q 935 -66 870 -113 l 970 -117 q 773 -229 874 -195 q 553 -264 672 -264 q 280 -200 398 -264 q 97 -19 161 -136 q 33 245 33 99 q 114 595 33 439 q 340 838 196 751 q 659 925 484 925 m 437 217 q 450 150 437 172 q 483 128 464 128 q 581 172 528 128 l 667 546 l 629 549 q 515 505 558 549 q 461 380 486 467 q 437 217 437 294 z "},"A":{"ha":926,"x_min":-72,"x_max":869,"o":"m 205 50 l 195 0 l -72 0 l -62 50 l 7 68 l 460 917 l 623 917 l 795 68 l 869 50 l 860 0 l 488 0 l 497 50 l 591 68 l 549 303 l 229 303 l 104 68 l 205 50 m 467 758 l 267 378 l 536 378 l 467 758 z "},"B":{"ha":926,"x_min":-13,"x_max":875,"o":"m 459 518 q 673 702 673 518 q 632 801 673 766 q 512 835 591 835 l 452 835 l 395 518 l 459 518 m 444 71 q 612 120 558 71 q 665 275 665 170 q 614 400 665 357 q 460 444 562 444 l 382 444 l 317 75 q 444 71 389 71 m 439 -4 l 205 0 l -13 0 l -5 50 l 116 68 l 252 842 l 138 860 l 148 909 l 545 909 q 875 711 875 909 q 815 558 875 615 q 646 486 755 500 q 808 420 749 477 q 867 274 867 363 q 760 64 867 132 q 439 -4 653 -4 z "},"C":{"ha":926,"x_min":47,"x_max":939,"o":"m 454 -14 q 154 86 261 -14 q 47 360 47 186 q 118 654 47 527 q 319 850 189 781 q 618 920 450 920 q 939 884 772 920 l 903 656 l 846 656 l 846 787 q 758 832 810 817 q 649 848 706 848 q 448 786 537 848 q 309 610 359 724 q 260 354 260 496 q 322 135 260 214 q 498 56 385 56 q 631 76 564 56 q 740 125 699 95 l 792 274 l 850 274 l 805 43 q 635 2 728 18 q 454 -14 543 -14 z "},"D":{"ha":1003,"x_min":-10,"x_max":970,"o":"m 760 525 q 478 835 760 835 l 453 835 l 319 77 q 404 72 377 72 q 664 193 569 72 q 760 525 760 315 m 503 909 q 851 812 732 909 q 970 534 970 715 q 902 250 970 372 q 704 62 833 127 q 406 -3 576 -3 l 122 0 l -10 0 l -2 50 l 118 68 l 254 842 l 141 860 l 150 909 l 503 909 z "},"E":{"ha":926,"x_min":-10,"x_max":863,"o":"m 254 842 l 141 860 l 150 909 l 863 909 l 823 678 l 761 678 l 765 825 q 547 835 691 835 l 454 835 l 395 501 l 585 501 l 624 602 l 684 602 l 635 322 l 574 322 l 572 425 l 381 425 l 319 75 l 444 75 q 673 85 615 75 l 743 254 l 804 254 l 747 0 l -10 0 l -2 50 l 118 68 l 254 842 z "},"F":{"ha":926,"x_min":-1,"x_max":903,"o":"m 377 401 l 318 68 l 466 50 l 458 0 l -1 0 l 7 50 l 118 68 l 254 842 l 141 860 l 150 909 l 903 909 l 860 665 l 796 665 l 803 825 q 683 832 770 830 q 547 835 597 835 l 454 835 l 391 476 l 637 476 l 678 591 l 739 591 l 684 285 l 624 285 l 623 401 l 377 401 z "},"G":{"ha":1003,"x_min":47,"x_max":987,"o":"m 47 355 q 120 653 47 525 q 324 850 192 781 q 627 920 456 920 q 949 878 793 920 l 911 669 l 854 669 l 855 787 q 638 848 774 848 q 443 785 530 848 q 307 606 355 722 q 258 341 258 490 q 316 132 258 207 q 480 56 374 56 q 641 85 568 56 l 687 343 l 574 365 l 582 411 l 987 411 l 979 365 l 887 343 l 835 47 q 644 1 734 16 q 449 -14 553 -14 q 153 84 258 -14 q 47 355 47 182 z "},"H":{"ha":1080,"x_min":-10,"x_max":1116,"o":"m -10 0 l -1 50 l 118 68 l 254 842 l 141 860 l 150 909 l 583 909 l 574 860 l 454 842 l 395 505 l 726 505 l 785 842 l 672 860 l 681 909 l 1116 909 l 1107 860 l 986 842 l 850 68 l 964 50 l 955 0 l 520 0 l 529 50 l 649 68 l 713 431 l 382 431 l 318 68 l 431 50 l 422 0 l -10 0 z "},"I":{"ha":541,"x_min":-14,"x_max":580,"o":"m 315 68 l 428 50 l 419 0 l -14 0 l -5 50 l 115 68 l 251 842 l 138 860 l 146 909 l 580 909 l 571 860 l 451 842 l 315 68 z "},"J":{"ha":694,"x_min":-3,"x_max":731,"o":"m 416 842 l 302 860 l 311 909 l 731 909 l 722 860 l 616 842 l 519 293 q 403 66 494 146 q 165 -14 313 -14 q -3 7 62 -14 l 34 213 l 90 213 l 93 92 q 170 58 115 58 q 255 93 220 58 q 300 187 290 127 l 416 842 z "},"K":{"ha":926,"x_min":-10,"x_max":1004,"o":"m 318 68 l 439 50 l 431 0 l -10 0 l -2 50 l 118 68 l 254 842 l 141 860 l 150 909 l 576 909 l 568 860 l 454 842 l 393 487 l 783 842 l 707 860 l 715 909 l 1004 909 l 995 860 l 901 842 l 580 551 l 819 68 l 910 50 l 902 0 l 640 0 l 439 431 l 376 401 l 318 68 z "},"L":{"ha":848,"x_min":-10,"x_max":786,"o":"m 319 72 l 395 72 q 542 76 460 72 q 650 85 624 81 l 729 275 l 786 275 l 726 0 l -10 0 l -2 50 l 118 68 l 254 842 l 142 860 l 151 909 l 600 909 l 591 860 l 454 842 l 319 72 z "},"M":{"ha":1235,"x_min":-18,"x_max":1274,"o":"m 502 0 l 471 0 l 321 785 l 195 68 l 313 50 l 305 0 l -18 0 l -10 50 l 110 68 l 246 842 l 133 860 l 142 909 l 476 909 l 588 317 l 911 909 l 1274 909 l 1265 860 l 1145 842 l 1008 68 l 1122 50 l 1114 0 l 668 0 l 676 50 l 808 68 l 935 785 l 502 0 z "},"N":{"ha":1003,"x_min":-13,"x_max":1044,"o":"m 831 842 l 712 860 l 721 909 l 1044 909 l 1036 860 l 916 842 l 768 0 l 690 0 l 323 754 l 200 68 l 319 50 l 311 0 l -13 0 l -5 50 l 115 68 l 252 842 l 138 860 l 147 909 l 441 909 l 736 303 l 831 842 z "},"O":{"ha":1003,"x_min":50,"x_max":964,"o":"m 760 572 q 708 774 760 701 q 564 848 656 848 q 412 781 481 848 q 298 584 342 713 q 254 329 254 456 q 304 129 254 201 q 446 56 355 56 q 600 123 530 56 q 715 317 670 191 q 760 572 760 443 m 433 -14 q 234 33 321 -14 q 98 164 146 79 q 50 355 50 248 q 117 649 50 519 q 303 849 183 779 q 581 920 424 920 q 780 873 693 920 q 916 742 867 827 q 964 551 964 658 q 896 255 964 388 q 709 54 827 121 q 433 -14 591 -14 z "},"P":{"ha":848,"x_min":-1,"x_max":857,"o":"m 436 431 q 599 494 540 431 q 659 665 659 557 q 619 790 659 746 q 500 834 579 834 l 454 834 l 382 431 l 436 431 m 369 357 l 317 68 l 466 50 l 458 0 l -1 0 l 7 50 l 117 68 l 254 842 l 140 860 l 148 909 l 508 909 q 769 848 680 909 q 857 667 857 787 q 756 438 857 519 q 466 357 655 357 l 369 357 z "},"Q":{"ha":1003,"x_min":50,"x_max":964,"o":"m 964 551 q 922 315 964 425 q 803 126 881 205 q 617 14 724 48 l 639 -20 q 791 -144 718 -144 q 851 -139 805 -144 l 860 -192 q 774 -215 830 -204 q 683 -225 718 -225 q 581 -209 623 -225 q 502 -156 538 -192 q 402 -12 466 -119 q 217 42 298 -6 q 94 173 137 90 q 50 355 50 255 q 117 649 50 519 q 303 849 183 779 q 581 920 424 920 q 780 873 693 920 q 916 742 867 827 q 964 551 964 658 m 760 572 q 708 774 760 701 q 564 848 656 848 q 412 781 481 848 q 298 584 342 713 q 254 329 254 456 q 304 129 254 201 q 446 56 355 56 q 600 123 530 56 q 715 317 670 191 q 760 572 760 443 z "},"R":{"ha":926,"x_min":-2,"x_max":873,"o":"m 374 385 l 318 68 l 431 50 l 423 0 l -2 0 l 6 50 l 117 68 l 254 842 l 140 860 l 149 909 l 512 909 q 775 853 690 909 q 861 680 861 797 q 803 504 861 574 q 637 404 746 433 l 774 68 l 873 50 l 865 0 l 594 0 l 453 385 l 374 385 m 425 460 q 599 515 536 460 q 662 669 662 570 q 621 796 662 758 q 500 835 580 835 l 454 835 l 387 460 l 425 460 z "},"S":{"ha":772,"x_min":25,"x_max":714,"o":"m 293 -14 q 25 35 146 -14 l 68 279 l 128 279 l 129 133 q 201 77 152 100 q 304 55 250 55 q 457 96 404 55 q 511 211 511 138 q 494 275 511 248 q 451 324 478 302 q 391 365 425 346 q 321 405 357 385 q 252 448 286 425 q 191 502 218 471 q 148 572 164 532 q 132 664 132 611 q 222 854 132 789 q 486 920 313 920 q 714 890 602 920 l 676 674 l 616 674 l 611 807 q 468 849 556 849 q 348 816 391 849 q 304 725 304 783 q 333 650 304 684 q 425 581 363 616 q 556 504 516 530 q 625 446 597 477 q 669 377 652 416 q 686 287 686 338 q 585 63 686 140 q 293 -14 484 -14 z "},"T":{"ha":848,"x_min":101,"x_max":894,"o":"m 113 0 l 121 50 l 269 68 l 405 838 l 363 838 q 278 833 326 838 q 211 824 231 828 l 160 655 l 101 655 l 146 909 l 894 909 l 849 655 l 789 655 l 798 824 q 729 832 779 828 q 646 836 678 836 l 606 836 l 470 68 l 611 50 l 603 0 l 113 0 z "},"U":{"ha":1003,"x_min":113,"x_max":1063,"o":"m 113 860 l 122 909 l 542 909 l 533 860 l 413 842 l 336 397 q 321 264 321 309 q 502 83 321 83 q 681 142 611 83 q 770 314 750 201 l 863 842 l 745 860 l 753 909 l 1063 909 l 1054 860 l 947 842 l 856 319 q 729 67 825 148 q 467 -13 632 -13 q 212 61 302 -13 q 122 271 122 134 q 136 395 122 314 l 213 842 l 113 860 z "},"V":{"ha":926,"x_min":81,"x_max":1021,"o":"m 1021 909 l 1013 860 l 923 842 l 433 -21 l 357 -21 l 153 842 l 81 860 l 90 909 l 460 909 l 452 860 l 355 842 l 492 245 l 822 842 l 734 860 l 742 909 l 1021 909 z "},"W":{"ha":1235,"x_min":96,"x_max":1316,"o":"m 823 -21 l 760 -21 l 652 554 l 380 -21 l 311 -21 l 184 842 l 96 860 l 104 909 l 487 909 l 478 860 l 368 842 l 440 290 l 709 852 l 777 852 l 880 287 l 1126 842 l 1015 860 l 1023 909 l 1316 909 l 1308 860 l 1225 842 l 823 -21 z "},"X":{"ha":926,"x_min":-35,"x_max":955,"o":"m 174 68 l 277 50 l 269 0 l -35 0 l -27 50 l 77 68 l 389 431 l 228 842 l 129 860 l 138 909 l 553 909 l 545 860 l 433 842 l 530 593 l 744 842 l 642 860 l 650 909 l 955 909 l 946 860 l 842 842 l 560 515 l 736 68 l 836 50 l 827 0 l 412 0 l 420 50 l 532 68 l 420 353 l 174 68 z "},"Y":{"ha":848,"x_min":71,"x_max":955,"o":"m 476 68 l 617 50 l 609 0 l 119 0 l 127 50 l 275 68 l 329 368 l 170 842 l 71 860 l 80 909 l 511 909 l 503 860 l 377 842 l 498 465 l 745 842 l 637 860 l 646 909 l 955 909 l 946 860 l 846 842 l 530 372 l 476 68 z "},"Z":{"ha":848,"x_min":-3,"x_max":813,"o":"m 570 838 l 440 838 q 318 833 373 838 q 241 824 263 829 l 195 681 l 135 681 l 175 909 l 813 909 l 800 838 l 242 71 l 369 71 q 523 78 443 71 q 633 93 604 86 l 704 267 l 765 267 l 700 0 l -3 0 l 10 77 l 570 838 z "},"[":{"ha":463,"x_min":35,"x_max":533,"o":"m 35 -186 l 237 964 l 533 964 l 525 918 l 382 890 l 205 -113 l 338 -140 l 330 -186 l 35 -186 z "},"\\":{"ha":386,"x_min":88,"x_max":318,"o":"m 230 -14 l 88 915 l 174 915 l 318 -14 l 230 -14 z "},"]":{"ha":463,"x_min":-72,"x_max":427,"o":"m -72 -186 l -64 -140 l 79 -113 l 256 890 l 123 918 l 131 964 l 427 964 l 224 -186 l -72 -186 z "},"^":{"ha":791,"x_min":89,"x_max":730,"o":"m 633 264 l 410 780 l 186 264 l 89 264 l 379 909 l 440 909 l 730 264 l 633 264 z "},"_":{"ha":694,"x_min":-104,"x_max":612,"o":"m -104 -193 l -104 -96 l 612 -96 l 612 -193 l -104 -193 z "},"`":{"ha":463,"x_min":156,"x_max":433,"o":"m 371 758 l 156 940 l 161 965 l 340 965 l 433 780 l 429 758 l 371 758 z "},"a":{"ha":694,"x_min":16,"x_max":661,"o":"m 558 61 l 632 39 l 627 0 l 391 0 l 389 94 q 298 15 349 43 q 195 -14 248 -14 q 63 47 111 -14 q 16 216 16 108 q 66 436 16 335 q 204 596 115 538 q 399 654 292 654 q 569 623 492 654 l 625 648 l 661 648 l 558 61 m 195 238 q 218 127 195 168 q 277 86 241 86 q 337 113 304 86 q 397 180 370 140 l 464 562 q 380 585 433 585 q 287 537 330 585 q 219 408 244 490 q 195 238 195 326 z "},"b":{"ha":694,"x_min":18,"x_max":653,"o":"m 475 398 q 452 510 475 469 q 393 551 429 551 q 336 525 368 551 q 275 457 304 499 l 209 84 q 249 61 222 71 q 296 52 275 52 q 385 100 343 52 q 450 231 426 149 q 475 398 475 313 m 304 -16 q 154 -3 231 -16 q 18 33 77 9 l 172 904 l 110 920 l 117 964 l 365 964 l 313 672 q 285 541 300 593 q 375 625 326 595 q 475 654 425 654 q 605 594 557 654 q 653 428 653 533 q 607 204 653 309 q 481 42 560 100 q 304 -16 402 -16 z "},"c":{"ha":616,"x_min":20,"x_max":596,"o":"m 265 -14 q 84 50 149 -14 q 20 224 20 113 q 70 448 20 349 q 208 600 120 546 q 397 654 295 654 q 503 645 446 654 q 596 624 560 636 l 563 429 l 514 429 l 505 545 q 406 585 468 585 q 304 537 352 585 q 229 408 256 490 q 202 231 202 326 q 232 113 202 155 q 319 71 262 71 q 412 89 370 71 q 492 134 454 107 l 522 92 q 398 14 467 42 q 265 -14 330 -14 z "},"d":{"ha":694,"x_min":16,"x_max":711,"o":"m 187 -14 q 63 46 110 -14 q 16 210 16 106 q 60 433 16 330 q 183 594 104 535 q 358 654 262 654 q 476 635 432 654 l 478 655 l 486 719 l 517 903 l 408 920 l 416 964 l 711 964 l 551 58 l 618 41 l 610 0 l 385 0 l 380 98 q 288 15 340 44 q 187 -14 237 -14 m 195 240 q 214 127 195 167 q 264 87 233 87 q 327 114 290 87 q 391 181 363 141 l 457 554 q 415 577 444 568 q 366 587 387 587 q 280 538 320 587 q 218 408 241 490 q 195 240 195 326 z "},"e":{"ha":616,"x_min":33,"x_max":586,"o":"m 586 515 q 541 403 586 454 q 412 318 496 351 q 220 277 328 285 q 217 231 217 263 q 340 71 217 71 q 433 90 390 71 q 513 134 475 109 l 543 92 q 413 14 483 41 q 279 -14 343 -14 q 96 47 159 -14 q 33 224 33 107 q 82 440 33 340 q 213 597 132 540 q 382 654 294 654 q 531 617 475 654 q 586 515 586 579 m 231 345 q 367 405 314 353 q 420 524 420 456 q 407 567 420 553 q 374 581 393 581 q 287 512 327 581 q 231 345 246 443 z "},"f":{"ha":463,"x_min":0,"x_max":578,"o":"m 151 567 l 41 567 l 49 614 l 163 640 l 179 723 q 277 918 204 857 q 470 978 349 978 q 578 964 532 978 l 551 813 l 508 813 l 500 889 q 462 903 486 903 q 404 867 426 903 q 365 745 381 831 l 345 637 l 485 637 l 473 567 l 333 567 l 182 -296 l 0 -296 l 151 567 z "},"g":{"ha":694,"x_min":-26,"x_max":658,"o":"m 198 241 q 220 128 198 169 q 276 87 242 87 q 332 111 300 87 q 395 176 364 135 l 467 570 q 380 587 427 587 q 288 541 330 587 q 222 411 247 494 q 198 241 198 328 m 20 211 q 66 436 20 332 q 193 597 112 540 q 376 654 274 654 q 658 626 487 654 l 541 -24 q 432 -230 515 -164 q 199 -296 349 -296 q 74 -282 136 -296 q -26 -248 11 -269 l -11 -76 l 27 -76 l 52 -165 q 115 -206 76 -190 q 200 -222 153 -222 q 276 -205 245 -222 q 325 -154 307 -188 q 356 -51 344 -121 q 388 98 372 49 q 295 15 347 45 q 195 -16 244 -16 q 68 45 116 -16 q 20 211 20 106 z "},"h":{"ha":772,"x_min":27,"x_max":703,"o":"m 296 522 q 555 654 400 654 q 661 618 621 654 q 701 519 701 582 q 689 421 701 484 l 625 61 l 703 45 l 694 0 l 433 0 l 502 386 q 517 492 517 465 q 455 557 517 557 q 359 510 412 557 q 279 403 305 463 l 208 0 l 27 0 l 186 903 l 124 919 l 132 964 l 379 964 l 322 650 l 300 541 l 296 522 z "},"i":{"ha":386,"x_min":35,"x_max":380,"o":"m 229 61 l 309 45 l 302 0 l 35 0 l 137 576 l 75 593 l 83 637 l 330 637 l 229 61 m 172 860 q 202 934 172 904 q 276 964 233 964 q 350 933 319 964 q 380 860 380 903 q 350 786 380 817 q 276 755 320 755 q 202 786 233 755 q 172 860 172 816 z "},"j":{"ha":386,"x_min":-182,"x_max":390,"o":"m -68 -296 q -182 -283 -128 -296 l -155 -131 l -113 -131 l -96 -211 q -66 -221 -83 -221 q -4 -176 -31 -221 q 36 -48 22 -130 l 145 570 l 37 593 l 44 637 l 339 637 l 222 -26 q 125 -228 199 -159 q -68 -296 52 -296 m 182 860 q 213 934 182 904 q 286 964 243 964 q 360 933 330 964 q 390 860 390 903 q 360 786 390 817 q 286 755 330 755 q 212 786 243 755 q 182 860 182 816 z "},"k":{"ha":694,"x_min":19,"x_max":684,"o":"m 263 344 l 501 577 l 443 593 l 450 637 l 684 637 l 676 593 l 614 578 l 449 426 l 600 61 l 654 45 l 646 0 l 433 0 l 321 307 l 248 260 l 201 0 l 19 0 l 178 903 l 116 919 l 124 964 l 372 964 l 263 344 z "},"l":{"ha":386,"x_min":31,"x_max":384,"o":"m 224 61 l 304 45 l 297 0 l 31 0 l 191 903 l 129 919 l 136 964 l 384 964 l 224 61 z "},"m":{"ha":1080,"x_min":26,"x_max":1014,"o":"m 827 492 q 779 557 827 557 q 723 530 755 557 q 665 461 690 503 q 633 382 640 419 l 566 0 l 385 0 l 454 386 q 469 492 469 465 q 418 557 469 557 q 345 512 386 557 q 279 403 303 467 l 207 0 l 26 0 l 127 576 l 66 593 l 75 637 l 298 637 l 296 524 q 399 622 345 590 q 522 654 454 654 q 617 619 583 654 q 652 520 651 583 q 881 654 747 654 q 976 617 941 654 q 1011 511 1011 579 q 1000 422 1011 486 l 935 61 l 1014 45 l 1005 0 l 743 0 l 812 386 q 827 492 827 465 z "},"n":{"ha":772,"x_min":28,"x_max":705,"o":"m 518 492 q 456 557 518 557 q 360 510 414 557 q 281 403 307 463 l 209 0 l 28 0 l 129 576 l 68 593 l 77 637 l 304 637 l 298 519 q 556 654 404 654 q 663 618 623 654 q 702 517 702 583 q 685 393 702 482 l 626 61 l 705 45 l 696 0 l 434 0 l 503 386 q 518 492 518 465 z "},"o":{"ha":694,"x_min":22,"x_max":647,"o":"m 463 424 q 378 587 463 587 q 294 536 336 587 q 227 397 252 484 q 201 216 201 311 q 227 96 201 138 q 291 54 252 54 q 375 104 334 54 q 439 239 416 154 q 463 424 463 325 m 275 -14 q 91 59 160 -14 q 22 254 22 132 q 69 456 22 363 q 202 601 117 548 q 393 654 287 654 q 578 582 509 654 q 647 387 647 509 q 600 185 647 277 q 467 40 552 93 q 275 -14 382 -14 z "},"p":{"ha":694,"x_min":-99,"x_max":652,"o":"m 652 428 q 608 206 652 307 q 484 45 564 104 q 304 -14 404 -14 q 199 9 246 -14 l 198 -11 l 190 -75 l 164 -235 l 273 -252 l 264 -296 l -99 -296 l -91 -252 l -20 -235 l 125 580 l 58 597 l 66 637 l 300 637 l 296 544 q 477 654 380 654 q 604 593 556 654 q 652 428 652 532 m 474 398 q 453 510 474 469 q 399 551 433 551 q 285 461 353 551 l 218 86 q 257 62 235 70 q 297 54 280 54 q 387 101 346 54 q 451 230 428 149 q 474 398 474 311 z "},"q":{"ha":694,"x_min":18,"x_max":659,"o":"m 196 241 q 218 128 196 169 q 273 87 240 87 q 332 114 296 87 q 397 182 368 141 l 469 570 q 376 587 429 587 q 248 484 300 587 q 196 241 196 381 m 366 654 q 659 626 511 654 l 504 -236 l 566 -252 l 559 -296 l 311 -296 l 361 -33 q 389 98 374 46 q 296 16 351 47 q 193 -16 241 -16 q 65 46 113 -16 q 18 211 18 107 q 61 436 18 334 q 185 596 105 538 q 366 654 264 654 z "},"r":{"ha":541,"x_min":28,"x_max":551,"o":"m 297 500 q 388 614 334 573 q 494 654 441 654 q 551 648 527 654 l 511 419 l 474 419 l 444 512 q 355 486 393 512 q 282 404 317 460 l 211 0 l 28 0 l 130 576 l 51 593 l 58 637 l 313 637 l 297 500 z "},"s":{"ha":541,"x_min":-7,"x_max":498,"o":"m 470 201 q 401 42 470 98 q 194 -14 332 -14 q 82 -2 142 -14 q -7 23 22 10 l 24 200 l 68 200 l 79 111 q 199 50 122 50 q 288 79 254 50 q 321 153 321 109 q 303 201 321 179 q 247 245 285 223 l 202 271 q 96 358 127 313 q 64 461 64 404 q 320 654 64 654 q 498 633 400 654 l 469 469 l 424 469 l 415 544 q 373 576 401 562 q 311 591 345 591 q 235 568 259 591 q 211 507 211 545 q 231 458 211 481 q 319 397 251 435 q 411 335 383 361 q 455 277 439 309 q 470 201 470 245 z "},"t":{"ha":386,"x_min":42,"x_max":420,"o":"m 290 72 q 365 90 313 72 l 382 42 q 298 2 349 18 q 201 -14 247 -14 q 86 22 126 -14 q 45 125 45 58 q 58 223 45 157 l 120 567 l 42 567 l 50 611 l 146 637 l 240 782 l 339 782 l 313 637 l 420 637 l 408 567 l 301 567 l 239 222 q 229 140 229 166 q 247 88 229 104 q 290 72 264 72 z "},"u":{"ha":772,"x_min":51,"x_max":727,"o":"m 237 146 q 299 81 237 81 q 397 129 342 81 q 475 235 451 178 l 547 637 l 727 637 l 627 62 l 701 45 l 692 0 l 452 0 l 457 119 q 199 -16 352 -16 q 92 21 131 -16 q 54 127 54 58 q 58 171 54 140 q 130 576 62 202 l 51 593 l 60 637 l 321 637 l 252 252 q 237 146 237 174 z "},"v":{"ha":616,"x_min":13,"x_max":629,"o":"m 224 638 l 325 195 l 463 408 q 496 475 484 441 q 507 530 507 508 q 502 558 507 547 q 486 577 496 570 q 446 593 477 585 l 454 637 l 611 637 q 629 595 629 622 q 572 446 629 532 l 276 -14 l 193 -14 l 54 577 l 13 593 l 20 638 l 224 638 z "},"w":{"ha":926,"x_min":1,"x_max":931,"o":"m 804 526 q 760 587 804 573 l 736 593 l 744 637 l 910 637 q 931 583 931 621 q 886 446 931 522 l 613 -14 l 532 -14 l 463 351 l 262 -14 l 172 -14 l 56 576 l 1 593 l 9 637 l 215 637 l 300 191 l 510 574 l 578 574 l 654 191 l 766 393 q 791 459 779 418 q 804 526 804 500 z "},"x":{"ha":694,"x_min":-17,"x_max":661,"o":"m 298 254 l 186 160 q 148 124 161 139 q 129 99 135 110 q 123 71 123 87 q 152 44 123 50 l 144 0 l -6 0 q -17 29 -17 9 q 5 81 -17 53 q 76 150 27 109 l 269 312 l 132 576 l 73 593 l 81 637 l 283 637 l 395 417 l 465 475 q 514 524 498 502 q 531 567 531 546 q 494 593 531 587 l 502 637 l 646 637 q 661 608 661 627 q 567 479 661 557 l 426 361 l 581 58 l 639 44 l 631 0 l 427 0 l 298 254 z "},"y":{"ha":616,"x_min":-139,"x_max":621,"o":"m 621 595 q 566 446 621 534 l 268 -40 q 158 -197 203 -146 q 68 -274 114 -248 q -30 -300 22 -300 q -85 -297 -64 -300 q -139 -287 -106 -295 l -111 -123 l -70 -123 l -56 -208 q -9 -224 -39 -224 q 80 -177 32 -224 q 203 -3 128 -130 l 58 576 l 17 593 l 24 637 l 230 637 l 333 204 l 456 408 q 487 473 474 437 q 499 530 499 509 q 493 558 499 547 q 478 577 488 570 q 438 593 469 585 l 446 637 l 603 637 q 621 595 621 622 z "},"z":{"ha":541,"x_min":-39,"x_max":535,"o":"m -39 0 l -34 34 l 316 576 l 269 576 q 196 570 232 576 q 144 553 161 564 l 103 448 l 54 448 l 87 637 l 535 637 l 529 601 l 179 61 l 235 61 q 315 70 273 61 q 379 93 357 79 l 435 214 l 484 214 l 433 0 l -39 0 z "},"{":{"ha":484,"x_min":19,"x_max":567,"o":"m 273 -186 q 146 -144 190 -186 q 102 -26 102 -102 q 106 27 102 1 l 139 214 q 143 255 143 236 q 111 335 143 311 q 19 361 79 359 l 29 419 q 143 455 99 421 q 201 566 188 488 l 239 779 q 313 919 256 874 q 475 964 370 964 l 567 964 l 557 905 l 515 905 q 440 881 468 905 q 403 800 413 858 l 359 555 q 302 444 348 490 q 192 385 256 398 l 192 383 q 272 337 243 372 q 302 248 302 302 l 298 212 l 262 5 q 258 -36 258 -17 q 276 -102 258 -77 q 333 -127 294 -127 l 375 -127 l 364 -186 l 273 -186 z "},"|":{"ha":306,"x_min":94,"x_max":191,"o":"m 94 -300 l 94 964 l 191 964 l 191 -300 l 94 -300 z "},"}":{"ha":484,"x_min":-81,"x_max":467,"o":"m -81 -186 l -71 -127 l -28 -127 q 45 -103 18 -127 q 83 -22 73 -80 l 127 225 q 183 337 138 292 q 294 397 228 382 l 294 399 q 215 445 245 410 q 184 534 184 480 l 188 569 l 223 772 q 227 814 227 795 q 209 880 227 856 q 153 905 191 905 l 111 905 l 121 964 l 213 964 q 343 921 301 964 q 385 807 385 879 q 379 751 385 781 l 347 566 q 343 524 343 543 q 467 419 343 422 l 456 361 q 339 323 381 359 q 285 214 298 287 l 247 0 q 173 -139 231 -92 q 10 -186 115 -186 l -81 -186 z "},"~":{"ha":791,"x_min":58,"x_max":761,"o":"m 564 326 q 484 346 525 326 q 392 408 442 366 q 306 474 334 457 q 255 490 277 490 q 185 453 207 490 q 154 326 163 415 l 58 326 q 91 479 68 427 q 153 559 113 530 q 255 587 193 587 q 338 567 294 587 q 459 481 382 547 q 564 423 524 423 q 631 462 608 423 q 663 587 653 501 l 761 587 q 724 434 747 485 q 662 354 701 382 q 564 326 623 326 z "}," ":{"ha":347,"x_min":0,"x_max":0,"o":"z "},"¡":{"ha":541,"x_min":52,"x_max":406,"o":"m 231 347 l 295 347 l 254 -277 l 52 -277 l 231 347 m 294 652 q 373 619 340 652 q 406 539 406 587 q 374 459 406 492 q 294 427 341 427 q 214 459 247 427 q 181 539 181 492 q 214 619 181 586 q 294 652 246 652 z "},"¢":{"ha":694,"x_min":83,"x_max":673,"o":"m 599 236 q 400 132 504 154 l 377 0 l 315 0 l 336 125 q 151 190 218 125 q 83 363 83 254 q 133 582 83 486 q 268 734 182 679 q 454 793 355 790 l 475 909 l 537 909 l 516 791 q 673 763 614 783 l 640 568 l 591 568 l 581 684 q 504 722 554 714 l 414 211 q 569 279 483 220 l 599 236 m 265 370 q 290 261 265 300 q 351 212 315 222 l 441 722 q 352 657 393 708 q 288 530 311 606 q 265 370 265 454 z "},"£":{"ha":694,"x_min":-3,"x_max":696,"o":"m 614 138 l 589 0 l -3 0 l 11 83 l 75 132 q 165 227 135 178 q 196 332 196 276 q 183 420 196 370 l 74 420 l 86 489 l 146 489 q 128 612 128 556 q 220 841 128 762 q 490 920 313 920 q 574 915 532 920 q 696 890 616 909 l 659 684 l 600 684 l 594 815 q 481 851 542 851 q 346 773 393 851 q 300 557 300 694 l 302 489 l 479 489 l 467 420 l 302 420 l 303 398 l 303 374 q 276 245 303 308 q 200 138 248 182 l 614 138 z "},"¤":{"ha":694,"x_min":67,"x_max":649,"o":"m 509 239 q 357 192 443 192 q 206 239 276 192 l 135 168 l 67 237 l 136 307 q 91 458 91 376 q 136 610 91 542 l 67 681 l 138 751 l 206 679 q 357 726 277 726 q 509 679 437 726 l 580 750 l 649 682 l 578 610 q 625 458 625 540 q 578 307 625 378 l 649 237 l 581 168 l 509 239 m 357 632 q 235 581 286 632 q 185 458 185 530 q 236 337 185 387 q 357 286 286 286 q 480 336 429 286 q 531 458 531 387 q 480 581 531 530 q 357 632 429 632 z "},"¥":{"ha":694,"x_min":49,"x_max":782,"o":"m 89 865 l 97 909 l 418 909 l 410 865 l 331 847 l 405 476 l 621 848 l 549 865 l 557 909 l 782 909 l 774 865 l 713 851 l 460 433 l 618 433 l 606 364 l 434 364 l 418 271 l 590 271 l 578 201 l 406 201 l 380 61 l 475 45 l 467 0 l 92 0 l 99 45 l 198 61 l 223 201 l 49 201 l 61 271 l 235 271 l 252 364 l 77 364 l 90 433 l 248 433 l 143 848 l 89 865 z "},"¦":{"ha":306,"x_min":123,"x_max":220,"o":"m 123 543 l 123 964 l 220 964 l 220 543 l 123 543 m 123 -300 l 123 122 l 220 122 l 220 -300 l 123 -300 z "},"§":{"ha":694,"x_min":25,"x_max":628,"o":"m 521 39 q 448 -118 521 -62 q 227 -173 374 -173 q 114 -162 175 -173 q 25 -138 54 -151 l 56 39 l 101 39 l 111 -51 q 170 -94 134 -79 q 241 -110 205 -110 q 337 -80 301 -110 q 374 0 374 -50 q 343 73 374 39 q 229 160 313 107 q 119 255 155 205 q 83 365 83 304 q 135 499 83 443 q 279 579 186 555 q 204 650 231 608 q 177 743 177 692 q 246 891 177 839 q 443 943 315 943 q 628 923 515 943 l 600 760 l 555 760 l 546 834 q 496 866 530 854 q 431 879 463 879 q 349 854 378 879 q 321 786 321 829 q 345 726 321 754 q 416 673 368 699 l 471 642 q 560 582 532 608 q 604 523 589 555 q 620 450 620 490 q 567 308 620 366 q 414 223 513 250 q 496 136 471 180 q 521 39 521 92 m 349 276 q 435 324 399 287 q 472 406 472 361 q 447 469 472 441 q 351 530 422 496 q 265 488 301 522 q 229 412 229 455 q 254 347 229 378 q 349 276 280 315 z "},"¨":{"ha":463,"x_min":111,"x_max":515,"o":"m 434 766 q 377 790 401 766 q 352 848 352 814 q 377 906 352 882 q 434 929 401 929 q 491 906 467 929 q 515 848 515 883 q 491 790 515 814 q 434 766 467 766 m 193 766 q 135 791 160 766 q 111 848 111 817 q 135 905 111 881 q 193 929 159 929 q 250 905 226 929 q 273 848 273 881 q 250 790 273 814 q 193 766 226 766 z "},"©":{"ha":1038,"x_min":59,"x_max":996,"o":"m 59 454 q 122 691 59 583 q 293 862 186 800 q 527 924 401 924 q 762 861 654 924 q 933 691 871 799 q 996 454 996 583 q 935 221 996 329 q 765 50 873 114 q 527 -14 656 -14 q 292 49 401 -14 q 121 220 184 111 q 59 454 59 328 m 551 172 q 339 248 416 172 q 262 450 262 323 q 337 665 262 591 q 552 739 412 739 q 734 718 632 739 l 736 578 l 690 578 l 677 649 q 621 675 649 666 q 555 684 593 684 q 429 632 467 684 q 391 452 391 581 q 427 283 391 340 q 551 227 463 227 q 683 267 633 227 l 698 347 l 745 347 l 743 199 q 551 172 656 172 m 527 867 q 323 812 418 867 q 175 661 229 757 q 120 454 120 566 q 175 248 120 344 q 323 97 229 152 q 527 43 417 43 q 730 97 635 43 q 880 248 825 152 q 935 454 935 345 q 881 660 935 564 q 733 811 827 755 q 527 867 639 867 z "},"ª":{"ha":370,"x_min":60,"x_max":458,"o":"m 396 574 l 433 564 l 426 530 l 288 530 l 290 560 q 172 520 235 520 q 91 560 123 520 q 60 667 60 600 q 91 797 60 738 q 179 890 122 857 q 310 924 236 924 q 398 906 353 924 l 402 908 l 424 920 l 458 920 l 396 574 m 336 867 q 287 877 312 877 q 201 818 235 877 q 168 673 168 760 q 217 578 168 578 q 290 604 250 578 l 336 867 z "},"«":{"ha":694,"x_min":54,"x_max":668,"o":"m 322 578 l 391 578 l 213 314 l 298 50 l 229 50 l 54 292 l 62 336 l 322 578 m 600 578 l 668 578 l 491 314 l 575 50 l 507 50 l 332 292 l 340 336 l 600 578 z "},"¬":{"ha":842,"x_min":77,"x_max":724,"o":"m 724 510 l 724 138 l 627 138 l 627 412 l 77 412 l 77 510 l 724 510 z "},"­":{"ha":463,"x_min":29,"x_max":412,"o":"m 29 268 l 52 386 l 412 386 l 390 268 l 29 268 z "},"®":{"ha":1038,"x_min":59,"x_max":996,"o":"m 996 454 q 935 221 996 329 q 765 50 873 114 q 527 -14 656 -14 q 292 49 401 -14 q 121 220 184 111 q 59 454 59 328 q 122 691 59 583 q 293 862 186 800 q 527 924 401 924 q 762 861 654 924 q 933 691 871 799 q 996 454 996 583 m 655 187 l 499 420 l 466 420 l 466 237 l 530 227 l 530 187 l 295 187 l 295 227 l 347 237 l 347 685 l 290 696 l 290 733 l 527 733 q 687 694 633 733 q 741 583 741 655 q 710 492 741 531 q 620 433 680 452 l 760 237 l 808 227 l 808 187 l 655 187 m 617 582 q 589 660 617 637 q 479 682 560 682 l 466 682 l 466 471 l 481 471 q 585 495 552 471 q 617 582 617 519 m 527 867 q 323 812 418 867 q 175 661 229 757 q 120 454 120 566 q 175 248 120 344 q 323 97 229 152 q 527 43 417 43 q 730 97 635 43 q 880 248 825 152 q 935 454 935 345 q 881 660 935 564 q 733 811 827 755 q 527 867 639 867 z "},"¯":{"ha":694,"x_min":93,"x_max":811,"o":"m 811 985 l 93 985 l 93 1048 l 811 1048 l 811 985 z "},"°":{"ha":555,"x_min":125,"x_max":546,"o":"m 125 713 q 153 818 125 769 q 230 895 180 867 q 335 924 279 924 q 440 896 391 924 q 517 819 489 867 q 546 713 546 770 q 517 607 546 656 q 439 530 488 557 q 335 503 391 503 q 186 564 247 503 q 125 713 125 625 m 334 848 q 243 809 280 848 q 205 711 205 770 q 243 616 205 655 q 334 576 281 576 q 427 616 389 576 q 465 711 465 655 q 427 809 465 770 q 334 848 390 848 z "},"±":{"ha":762,"x_min":58,"x_max":704,"o":"m 429 412 l 429 138 l 332 138 l 332 412 l 58 412 l 58 510 l 332 510 l 332 785 l 429 785 l 429 510 l 704 510 l 704 412 l 429 412 m 704 96 l 704 0 l 58 0 l 58 96 l 704 96 z "},"²":{"ha":416,"x_min":27,"x_max":440,"o":"m 373 363 l 27 363 l 41 440 q 208 583 155 529 q 288 688 261 637 q 315 787 315 738 q 300 845 315 823 q 254 867 285 867 q 190 846 218 867 l 159 767 l 117 767 l 139 897 q 274 916 219 916 q 397 881 354 916 q 440 787 440 846 q 414 692 440 737 q 338 602 387 647 q 144 459 288 557 l 390 459 l 373 363 z "},"³":{"ha":416,"x_min":28,"x_max":434,"o":"m 176 354 q 28 372 100 354 l 46 510 l 90 510 l 96 420 q 169 404 125 404 q 290 532 290 404 q 215 616 290 610 l 169 620 l 178 676 l 221 679 q 311 796 311 684 q 294 847 311 829 q 249 865 278 865 q 184 847 214 865 l 152 766 l 110 766 l 133 897 q 267 916 206 916 q 389 884 343 916 q 434 798 434 852 q 297 648 434 672 q 382 611 353 641 q 411 534 411 582 q 348 404 411 454 q 176 354 286 354 z "},"´":{"ha":463,"x_min":172,"x_max":502,"o":"m 172 758 l 176 781 l 309 965 l 502 965 l 499 940 l 230 758 l 172 758 z "},"µ":{"ha":800,"x_min":-39,"x_max":747,"o":"m 71 593 l 80 637 l 342 637 l 273 252 q 258 146 258 174 q 319 80 258 80 q 417 129 363 80 q 495 235 471 177 l 567 637 l 747 637 l 647 62 l 707 45 l 699 0 l 475 0 l 477 119 q 390 25 439 63 q 301 -14 340 -14 q 226 20 248 -14 q 147 -296 196 -150 l -39 -296 l -33 -265 q 16 -127 -10 -217 q 56 47 41 -37 l 150 576 l 71 593 z "},"¶":{"ha":694,"x_min":24,"x_max":649,"o":"m 593 844 l 593 -175 l 498 -175 l 498 844 l 406 844 l 406 -175 l 311 -175 l 311 370 q 102 447 180 374 q 24 646 24 520 q 100 841 24 772 q 318 909 177 909 l 649 909 l 649 860 l 593 844 z "},"·":{"ha":347,"x_min":71,"x_max":296,"o":"m 183 347 q 103 379 136 347 q 71 459 71 412 q 103 539 71 506 q 183 572 136 572 q 263 539 230 572 q 296 459 296 507 q 263 379 296 412 q 183 347 231 347 z "},"¸":{"ha":463,"x_min":-38,"x_max":264,"o":"m 63 -293 q -38 -273 9 -293 l -13 -208 q 57 -220 24 -220 q 110 -203 89 -220 q 130 -158 130 -186 q 58 -100 130 -105 l 117 32 l 178 32 l 149 -43 q 234 -78 203 -50 q 264 -146 264 -105 q 207 -253 264 -214 q 63 -293 150 -293 z "},"¹":{"ha":416,"x_min":51,"x_max":369,"o":"m 275 418 l 369 408 l 361 363 l 51 363 l 59 408 l 155 418 l 223 806 l 124 778 l 132 823 l 302 913 l 363 913 l 275 418 z "},"º":{"ha":416,"x_min":85,"x_max":463,"o":"m 247 570 q 303 601 279 570 q 341 685 327 632 q 355 791 355 738 q 298 875 355 875 q 222 807 252 875 q 193 650 193 740 q 247 570 193 570 m 238 522 q 127 565 170 522 q 85 683 85 608 q 114 805 85 749 q 194 892 142 861 q 310 924 245 924 q 421 881 378 924 q 463 763 463 838 q 400 591 463 661 q 238 522 336 522 z "},"»":{"ha":694,"x_min":-1,"x_max":612,"o":"m 345 50 l 276 50 l 453 314 l 369 578 l 437 578 l 612 336 l 604 292 l 345 50 m 66 50 l -1 50 l 175 314 l 92 578 l 159 578 l 334 336 l 326 292 l 66 50 z "},"¼":{"ha":1042,"x_min":43,"x_max":963,"o":"m 279 0 l 195 0 l 850 909 l 931 909 l 279 0 m 268 418 l 361 408 l 353 363 l 43 363 l 52 408 l 147 418 l 216 806 l 117 778 l 124 823 l 294 913 l 355 913 l 268 418 m 885 106 l 866 -1 l 757 -1 l 776 106 l 544 106 l 556 173 l 867 547 l 963 547 l 900 190 l 954 190 l 939 106 l 885 106 m 838 433 l 638 190 l 791 190 l 818 344 q 838 433 826 389 z "},"½":{"ha":1042,"x_min":31,"x_max":1011,"o":"m 247 0 l 163 0 l 818 909 l 899 909 l 247 0 m 255 418 l 349 408 l 340 363 l 31 363 l 39 408 l 134 418 l 203 806 l 104 778 l 111 823 l 281 913 l 342 913 l 255 418 m 944 1 l 598 1 l 612 78 q 779 221 726 167 q 859 326 832 275 q 886 425 886 376 q 871 483 886 460 q 825 505 856 505 q 761 484 789 505 l 730 405 l 688 405 l 710 535 q 845 553 790 553 q 968 519 925 553 q 1011 425 1011 484 q 985 330 1011 375 q 909 240 958 285 q 715 97 859 195 l 961 97 l 944 1 z "},"¾":{"ha":1042,"x_min":67,"x_max":974,"o":"m 299 0 l 216 0 l 870 909 l 951 909 l 299 0 m 215 354 q 67 372 139 354 l 85 510 l 130 510 l 136 420 q 208 404 164 404 q 330 532 330 404 q 254 616 330 610 l 208 620 l 218 676 l 260 679 q 350 796 350 684 q 334 847 350 829 q 288 865 317 865 q 223 847 253 865 l 191 766 l 149 766 l 172 897 q 306 916 245 916 q 428 884 382 916 q 473 798 473 852 q 336 648 473 672 q 421 611 393 641 q 450 534 450 582 q 388 404 450 454 q 215 354 325 354 m 896 106 l 877 -1 l 768 -1 l 787 106 l 555 106 l 567 173 l 878 547 l 974 547 l 911 190 l 965 190 l 950 106 l 896 106 m 849 433 l 649 190 l 802 190 l 829 344 q 849 433 837 389 z "},"¿":{"ha":694,"x_min":33,"x_max":551,"o":"m 216 -83 q 344 -221 216 -221 q 398 -212 370 -221 q 444 -189 426 -203 l 488 -58 l 548 -58 l 521 -258 q 309 -290 414 -290 q 101 -237 170 -290 q 33 -86 33 -184 q 90 104 33 30 q 278 212 148 178 l 340 228 l 382 365 l 452 365 l 454 153 l 386 136 q 255 61 295 113 q 216 -83 216 10 m 439 649 q 519 616 487 649 q 551 536 551 584 q 519 456 551 489 q 439 424 487 424 q 360 456 393 424 q 327 536 327 489 q 359 616 327 583 q 439 649 392 649 z "},"À":{"ha":926,"x_min":-72,"x_max":869,"o":"m 205 50 l 195 0 l -72 0 l -62 50 l 7 68 l 460 917 l 623 917 l 795 68 l 869 50 l 860 0 l 488 0 l 497 50 l 591 68 l 549 303 l 229 303 l 104 68 l 205 50 m 467 758 l 267 378 l 536 378 l 467 758 m 584 985 l 369 1166 l 374 1192 l 553 1192 l 646 1006 l 642 985 l 584 985 z "},"Á":{"ha":926,"x_min":-72,"x_max":869,"o":"m 205 50 l 195 0 l -72 0 l -62 50 l 7 68 l 460 917 l 623 917 l 795 68 l 869 50 l 860 0 l 488 0 l 497 50 l 591 68 l 549 303 l 229 303 l 104 68 l 205 50 m 467 758 l 267 378 l 536 378 l 467 758 m 468 985 l 472 1007 l 605 1192 l 798 1192 l 795 1166 l 526 985 l 468 985 z "},"Â":{"ha":926,"x_min":-72,"x_max":869,"o":"m 205 50 l 195 0 l -72 0 l -62 50 l 7 68 l 460 917 l 623 917 l 795 68 l 869 50 l 860 0 l 488 0 l 497 50 l 591 68 l 549 303 l 229 303 l 104 68 l 205 50 m 467 758 l 267 378 l 536 378 l 467 758 m 324 985 l 328 1007 l 511 1206 l 655 1206 l 768 1007 l 764 985 l 712 985 l 563 1095 l 376 985 l 324 985 z "},"Ã":{"ha":926,"x_min":-72,"x_max":869,"o":"m 205 50 l 195 0 l -72 0 l -62 50 l 7 68 l 460 917 l 623 917 l 795 68 l 869 50 l 860 0 l 488 0 l 497 50 l 591 68 l 549 303 l 229 303 l 104 68 l 205 50 m 467 758 l 267 378 l 536 378 l 467 758 m 610 966 q 487 1025 552 966 q 431 1056 454 1056 q 391 1038 406 1056 q 364 978 377 1021 l 297 978 q 479 1173 342 1173 q 544 1156 515 1173 q 604 1114 572 1140 q 659 1084 639 1084 q 698 1101 684 1084 q 726 1160 712 1118 l 793 1160 q 722 1011 767 1057 q 610 966 676 966 z "},"Ä":{"ha":926,"x_min":-72,"x_max":869,"o":"m 205 50 l 195 0 l -72 0 l -62 50 l 7 68 l 460 917 l 623 917 l 795 68 l 869 50 l 860 0 l 488 0 l 497 50 l 591 68 l 549 303 l 229 303 l 104 68 l 205 50 m 467 758 l 267 378 l 536 378 l 467 758 m 673 993 q 616 1017 641 993 q 591 1075 591 1041 q 616 1132 591 1109 q 673 1156 641 1156 q 730 1133 707 1156 q 754 1075 754 1109 q 730 1017 754 1041 q 673 993 707 993 m 432 993 q 375 1018 399 993 q 350 1075 350 1043 q 374 1132 350 1107 q 432 1156 399 1156 q 489 1132 465 1156 q 513 1075 513 1107 q 489 1017 513 1041 q 432 993 465 993 z "},"Å":{"ha":926,"x_min":-72,"x_max":869,"o":"m 205 50 l 195 0 l -72 0 l -62 50 l 7 68 l 460 917 l 623 917 l 795 68 l 869 50 l 860 0 l 488 0 l 497 50 l 591 68 l 549 303 l 229 303 l 104 68 l 205 50 m 467 758 l 267 378 l 536 378 l 467 758 m 543 839 q 441 881 484 839 q 399 983 399 922 q 441 1085 399 1044 q 543 1126 483 1126 q 644 1085 602 1126 q 686 983 686 1044 q 644 881 686 923 q 543 839 602 839 m 543 1050 q 496 1030 516 1050 q 476 983 476 1010 q 496 937 476 957 q 543 917 516 917 q 589 937 569 917 q 609 983 609 957 q 589 1030 609 1010 q 543 1050 568 1050 z "},"Æ":{"ha":1311,"x_min":-109,"x_max":1248,"o":"m 562 849 l 466 861 l 474 909 l 1248 909 l 1207 678 l 1145 678 l 1149 825 q 972 835 1076 835 l 837 835 l 778 501 l 970 501 l 1008 602 l 1069 602 l 1019 322 l 959 322 l 956 425 l 764 425 l 703 75 l 869 75 q 1059 85 1002 75 l 1127 254 l 1189 254 l 1132 0 l 373 0 l 381 50 l 501 68 l 543 303 l 263 303 l 91 68 l 192 50 l 184 0 l -109 0 l -101 50 l -16 68 l 562 849 m 556 378 l 632 812 l 318 378 l 556 378 z "},"Ç":{"ha":926,"x_min":47,"x_max":939,"o":"m 454 -14 q 154 86 261 -14 q 47 360 47 186 q 118 654 47 527 q 319 850 189 781 q 618 920 450 920 q 939 884 772 920 l 903 656 l 846 656 l 846 787 q 758 832 810 817 q 649 848 706 848 q 448 786 537 848 q 309 610 359 724 q 260 354 260 496 q 322 135 260 214 q 498 56 385 56 q 631 76 564 56 q 740 125 699 95 l 792 274 l 850 274 l 805 43 q 635 2 728 18 q 454 -14 543 -14 m 377 -293 q 276 -273 323 -293 l 301 -208 q 371 -220 338 -220 q 424 -203 403 -220 q 444 -158 444 -186 q 372 -100 444 -105 l 431 32 l 492 32 l 463 -43 q 548 -78 517 -50 q 578 -146 578 -105 q 521 -253 578 -214 q 377 -293 464 -293 z "},"È":{"ha":926,"x_min":-10,"x_max":863,"o":"m 254 842 l 141 860 l 150 909 l 863 909 l 823 678 l 761 678 l 765 825 q 547 835 691 835 l 454 835 l 395 501 l 585 501 l 624 602 l 684 602 l 635 322 l 574 322 l 572 425 l 381 425 l 319 75 l 444 75 q 673 85 615 75 l 743 254 l 804 254 l 747 0 l -10 0 l -2 50 l 118 68 l 254 842 m 573 985 l 358 1166 l 363 1192 l 543 1192 l 635 1006 l 631 985 l 573 985 z "},"É":{"ha":926,"x_min":-10,"x_max":863,"o":"m 254 842 l 141 860 l 150 909 l 863 909 l 823 678 l 761 678 l 765 825 q 547 835 691 835 l 454 835 l 395 501 l 585 501 l 624 602 l 684 602 l 635 322 l 574 322 l 572 425 l 381 425 l 319 75 l 444 75 q 673 85 615 75 l 743 254 l 804 254 l 747 0 l -10 0 l -2 50 l 118 68 l 254 842 m 445 985 l 449 1007 l 582 1192 l 775 1192 l 772 1166 l 503 985 l 445 985 z "},"Ê":{"ha":926,"x_min":-10,"x_max":863,"o":"m 254 842 l 141 860 l 150 909 l 863 909 l 823 678 l 761 678 l 765 825 q 547 835 691 835 l 454 835 l 395 501 l 585 501 l 624 602 l 684 602 l 635 322 l 574 322 l 572 425 l 381 425 l 319 75 l 444 75 q 673 85 615 75 l 743 254 l 804 254 l 747 0 l -10 0 l -2 50 l 118 68 l 254 842 m 343 985 l 347 1007 l 530 1206 l 674 1206 l 787 1007 l 783 985 l 731 985 l 582 1095 l 395 985 l 343 985 z "},"Ë":{"ha":926,"x_min":-10,"x_max":863,"o":"m 254 842 l 141 860 l 150 909 l 863 909 l 823 678 l 761 678 l 765 825 q 547 835 691 835 l 454 835 l 395 501 l 585 501 l 624 602 l 684 602 l 635 322 l 574 322 l 572 425 l 381 425 l 319 75 l 444 75 q 673 85 615 75 l 743 254 l 804 254 l 747 0 l -10 0 l -2 50 l 118 68 l 254 842 m 680 993 q 622 1017 647 993 q 597 1075 597 1041 q 622 1132 597 1109 q 680 1156 647 1156 q 736 1133 713 1156 q 760 1075 760 1109 q 736 1017 760 1041 q 680 993 713 993 m 438 993 q 381 1018 406 993 q 356 1075 356 1043 q 380 1132 356 1107 q 438 1156 405 1156 q 495 1132 471 1156 q 519 1075 519 1107 q 495 1017 519 1041 q 438 993 471 993 z "},"Ì":{"ha":541,"x_min":-14,"x_max":580,"o":"m 315 68 l 428 50 l 419 0 l -14 0 l -5 50 l 115 68 l 251 842 l 138 860 l 146 909 l 580 909 l 571 860 l 451 842 l 315 68 m 424 985 l 209 1166 l 214 1192 l 393 1192 l 486 1006 l 482 985 l 424 985 z "},"Í":{"ha":541,"x_min":-14,"x_max":606,"o":"m 315 68 l 428 50 l 419 0 l -14 0 l -5 50 l 115 68 l 251 842 l 138 860 l 146 909 l 580 909 l 571 860 l 451 842 l 315 68 m 275 985 l 279 1007 l 412 1192 l 606 1192 l 603 1166 l 334 985 l 275 985 z "},"Î":{"ha":541,"x_min":-14,"x_max":599,"o":"m 315 68 l 428 50 l 419 0 l -14 0 l -5 50 l 115 68 l 251 842 l 138 860 l 146 909 l 580 909 l 571 860 l 451 842 l 315 68 m 155 985 l 159 1007 l 342 1206 l 486 1206 l 599 1007 l 595 985 l 543 985 l 394 1095 l 207 985 l 155 985 z "},"Ï":{"ha":541,"x_min":-14,"x_max":594,"o":"m 315 68 l 428 50 l 419 0 l -14 0 l -5 50 l 115 68 l 251 842 l 138 860 l 146 909 l 580 909 l 571 860 l 451 842 l 315 68 m 513 993 q 456 1017 481 993 q 431 1075 431 1041 q 456 1132 431 1109 q 513 1156 481 1156 q 570 1133 547 1156 q 594 1075 594 1109 q 570 1017 594 1041 q 513 993 547 993 m 272 993 q 215 1018 239 993 q 190 1075 190 1043 q 214 1132 190 1107 q 272 1156 239 1156 q 329 1132 305 1156 q 353 1075 353 1107 q 329 1017 353 1041 q 272 993 305 993 z "},"Ð":{"ha":1003,"x_min":-10,"x_max":970,"o":"m 970 534 q 902 250 970 372 q 704 62 833 127 q 406 -3 576 -3 l 122 0 l -10 0 l -2 50 l 118 68 l 178 413 l 62 413 l 77 496 l 193 496 l 254 842 l 141 860 l 150 909 l 503 909 q 851 812 732 909 q 970 534 970 715 m 760 525 q 478 835 760 835 l 453 835 l 393 496 l 568 496 l 553 413 l 378 413 l 319 77 q 404 72 377 72 q 664 193 569 72 q 760 525 760 315 z "},"Ñ":{"ha":1003,"x_min":-13,"x_max":1044,"o":"m 831 842 l 712 860 l 721 909 l 1044 909 l 1036 860 l 916 842 l 768 0 l 690 0 l 323 754 l 200 68 l 319 50 l 311 0 l -13 0 l -5 50 l 115 68 l 252 842 l 138 860 l 147 909 l 441 909 l 736 303 l 831 842 m 713 966 q 591 1025 656 966 q 535 1056 557 1056 q 495 1038 509 1056 q 468 978 481 1021 l 401 978 q 583 1173 446 1173 q 648 1156 619 1173 q 707 1114 676 1140 q 762 1084 743 1084 q 802 1101 787 1084 q 829 1160 816 1118 l 897 1160 q 825 1011 871 1057 q 713 966 780 966 z "},"Ò":{"ha":1003,"x_min":50,"x_max":964,"o":"m 760 572 q 708 774 760 701 q 564 848 656 848 q 412 781 481 848 q 298 584 342 713 q 254 329 254 456 q 304 129 254 201 q 446 56 355 56 q 600 123 530 56 q 715 317 670 191 q 760 572 760 443 m 433 -14 q 234 33 321 -14 q 98 164 146 79 q 50 355 50 248 q 117 649 50 519 q 303 849 183 779 q 581 920 424 920 q 780 873 693 920 q 916 742 867 827 q 964 551 964 658 q 896 255 964 388 q 709 54 827 121 q 433 -14 591 -14 m 629 985 l 414 1166 l 418 1192 l 598 1192 l 691 1006 l 687 985 l 629 985 z "},"Ó":{"ha":1003,"x_min":50,"x_max":964,"o":"m 760 572 q 708 774 760 701 q 564 848 656 848 q 412 781 481 848 q 298 584 342 713 q 254 329 254 456 q 304 129 254 201 q 446 56 355 56 q 600 123 530 56 q 715 317 670 191 q 760 572 760 443 m 433 -14 q 234 33 321 -14 q 98 164 146 79 q 50 355 50 248 q 117 649 50 519 q 303 849 183 779 q 581 920 424 920 q 780 873 693 920 q 916 742 867 827 q 964 551 964 658 q 896 255 964 388 q 709 54 827 121 q 433 -14 591 -14 m 505 985 l 509 1007 l 642 1192 l 835 1192 l 832 1166 l 563 985 l 505 985 z "},"Ô":{"ha":1003,"x_min":50,"x_max":964,"o":"m 760 572 q 708 774 760 701 q 564 848 656 848 q 412 781 481 848 q 298 584 342 713 q 254 329 254 456 q 304 129 254 201 q 446 56 355 56 q 600 123 530 56 q 715 317 670 191 q 760 572 760 443 m 433 -14 q 234 33 321 -14 q 98 164 146 79 q 50 355 50 248 q 117 649 50 519 q 303 849 183 779 q 581 920 424 920 q 780 873 693 920 q 916 742 867 827 q 964 551 964 658 q 896 255 964 388 q 709 54 827 121 q 433 -14 591 -14 m 387 985 l 391 1007 l 574 1206 l 718 1206 l 831 1007 l 827 985 l 775 985 l 626 1095 l 439 985 l 387 985 z "},"Õ":{"ha":1003,"x_min":50,"x_max":964,"o":"m 760 572 q 708 774 760 701 q 564 848 656 848 q 412 781 481 848 q 298 584 342 713 q 254 329 254 456 q 304 129 254 201 q 446 56 355 56 q 600 123 530 56 q 715 317 670 191 q 760 572 760 443 m 433 -14 q 234 33 321 -14 q 98 164 146 79 q 50 355 50 248 q 117 649 50 519 q 303 849 183 779 q 581 920 424 920 q 780 873 693 920 q 916 742 867 827 q 964 551 964 658 q 896 255 964 388 q 709 54 827 121 q 433 -14 591 -14 m 689 966 q 566 1025 631 966 q 511 1056 533 1056 q 471 1038 485 1056 q 444 978 456 1021 l 376 978 q 559 1173 422 1173 q 623 1156 595 1173 q 683 1114 652 1140 q 738 1084 718 1084 q 777 1101 763 1084 q 805 1160 791 1118 l 872 1160 q 801 1011 846 1057 q 689 966 755 966 z "},"Ö":{"ha":1003,"x_min":50,"x_max":964,"o":"m 760 572 q 708 774 760 701 q 564 848 656 848 q 412 781 481 848 q 298 584 342 713 q 254 329 254 456 q 304 129 254 201 q 446 56 355 56 q 600 123 530 56 q 715 317 670 191 q 760 572 760 443 m 433 -14 q 234 33 321 -14 q 98 164 146 79 q 50 355 50 248 q 117 649 50 519 q 303 849 183 779 q 581 920 424 920 q 780 873 693 920 q 916 742 867 827 q 964 551 964 658 q 896 255 964 388 q 709 54 827 121 q 433 -14 591 -14 m 742 993 q 685 1017 709 993 q 660 1075 660 1041 q 685 1132 660 1109 q 742 1156 709 1156 q 799 1133 775 1156 q 823 1075 823 1109 q 799 1017 823 1041 q 742 993 775 993 m 500 993 q 443 1018 468 993 q 418 1075 418 1043 q 443 1132 418 1107 q 500 1156 467 1156 q 557 1132 534 1156 q 581 1075 581 1107 q 557 1017 581 1041 q 500 993 534 993 z "},"×":{"ha":791,"x_min":122,"x_max":701,"o":"m 411 392 l 191 172 l 122 241 l 342 463 l 122 681 l 193 751 l 411 532 l 632 751 l 701 682 l 481 463 l 701 241 l 632 172 l 411 392 z "},"Ø":{"ha":1003,"x_min":-26,"x_max":1055,"o":"m 433 -14 q 180 68 283 -14 l 75 -37 l -26 -37 l 129 118 q 50 355 50 214 q 117 649 50 519 q 303 849 183 779 q 581 920 424 920 q 843 830 739 920 l 956 943 l 1055 943 l 891 779 q 964 551 964 684 q 896 255 964 388 q 709 54 827 121 q 433 -14 591 -14 m 254 329 q 260 249 254 278 l 734 722 q 564 848 686 848 q 412 781 481 848 q 298 584 342 713 q 254 329 254 456 m 760 572 q 755 643 760 604 l 282 170 q 446 56 330 56 q 600 123 530 56 q 715 317 670 191 q 760 572 760 443 z "},"Ù":{"ha":1003,"x_min":113,"x_max":1063,"o":"m 113 860 l 122 909 l 542 909 l 533 860 l 413 842 l 336 397 q 321 264 321 309 q 502 83 321 83 q 681 142 611 83 q 770 314 750 201 l 863 842 l 745 860 l 753 909 l 1063 909 l 1054 860 l 947 842 l 856 319 q 729 67 825 148 q 467 -13 632 -13 q 212 61 302 -13 q 122 271 122 134 q 136 395 122 314 l 213 842 l 113 860 m 652 985 l 437 1166 l 441 1192 l 621 1192 l 714 1006 l 710 985 l 652 985 z "},"Ú":{"ha":1003,"x_min":113,"x_max":1063,"o":"m 113 860 l 122 909 l 542 909 l 533 860 l 413 842 l 336 397 q 321 264 321 309 q 502 83 321 83 q 681 142 611 83 q 770 314 750 201 l 863 842 l 745 860 l 753 909 l 1063 909 l 1054 860 l 947 842 l 856 319 q 729 67 825 148 q 467 -13 632 -13 q 212 61 302 -13 q 122 271 122 134 q 136 395 122 314 l 213 842 l 113 860 m 541 985 l 545 1007 l 677 1192 l 871 1192 l 868 1166 l 599 985 l 541 985 z "},"Û":{"ha":1003,"x_min":113,"x_max":1063,"o":"m 113 860 l 122 909 l 542 909 l 533 860 l 413 842 l 336 397 q 321 264 321 309 q 502 83 321 83 q 681 142 611 83 q 770 314 750 201 l 863 842 l 745 860 l 753 909 l 1063 909 l 1054 860 l 947 842 l 856 319 q 729 67 825 148 q 467 -13 632 -13 q 212 61 302 -13 q 122 271 122 134 q 136 395 122 314 l 213 842 l 113 860 m 425 985 l 429 1007 l 611 1206 l 755 1206 l 868 1007 l 864 985 l 812 985 l 663 1095 l 476 985 l 425 985 z "},"Ü":{"ha":1003,"x_min":113,"x_max":1063,"o":"m 113 860 l 122 909 l 542 909 l 533 860 l 413 842 l 336 397 q 321 264 321 309 q 502 83 321 83 q 681 142 611 83 q 770 314 750 201 l 863 842 l 745 860 l 753 909 l 1063 909 l 1054 860 l 947 842 l 856 319 q 729 67 825 148 q 467 -13 632 -13 q 212 61 302 -13 q 122 271 122 134 q 136 395 122 314 l 213 842 l 113 860 m 778 993 q 721 1017 745 993 q 696 1075 696 1041 q 721 1132 696 1109 q 778 1156 745 1156 q 835 1133 811 1156 q 859 1075 859 1109 q 835 1017 859 1041 q 778 993 811 993 m 536 993 q 479 1018 504 993 q 454 1075 454 1043 q 479 1132 454 1107 q 536 1156 503 1156 q 593 1132 570 1156 q 617 1075 617 1107 q 593 1017 617 1041 q 536 993 570 993 z "},"Ý":{"ha":848,"x_min":71,"x_max":955,"o":"m 476 68 l 617 50 l 609 0 l 119 0 l 127 50 l 275 68 l 329 368 l 170 842 l 71 860 l 80 909 l 511 909 l 503 860 l 377 842 l 498 465 l 745 842 l 637 860 l 646 909 l 955 909 l 946 860 l 846 842 l 530 372 l 476 68 m 479 985 l 484 1007 l 616 1192 l 810 1192 l 807 1166 l 538 985 l 479 985 z "},"Þ":{"ha":848,"x_min":-10,"x_max":815,"o":"m 382 256 q 616 485 616 256 q 575 617 616 574 q 451 660 534 660 l 422 660 l 351 256 l 382 256 m 509 734 q 736 673 658 734 q 815 494 815 611 q 716 261 815 341 q 436 182 618 182 l 338 182 l 318 68 l 432 50 l 423 0 l -10 0 l -1 50 l 118 68 l 254 842 l 141 860 l 150 909 l 583 909 l 574 860 l 454 842 l 435 734 l 509 734 z "},"ß":{"ha":694,"x_min":-51,"x_max":679,"o":"m 511 544 q 526 479 511 512 q 575 406 542 446 q 638 310 623 349 q 654 228 654 272 q 585 52 654 117 q 392 -14 516 -14 q 300 -4 338 -14 q 244 14 262 5 l 268 165 l 313 165 l 324 75 q 390 50 353 50 q 460 82 434 50 q 486 171 486 114 q 478 226 486 201 q 454 277 469 252 q 394 354 439 302 q 346 489 346 412 q 387 623 346 564 q 496 701 428 681 q 504 798 504 762 q 487 882 504 854 q 434 909 471 909 q 356 852 385 909 q 300 646 326 794 l 187 0 l -51 0 l -43 45 l 15 61 l 118 646 q 229 899 149 819 q 450 978 310 978 q 624 922 569 978 q 679 758 679 867 q 671 668 679 722 q 551 636 592 668 q 511 544 511 604 z "},"à":{"ha":694,"x_min":16,"x_max":661,"o":"m 558 61 l 632 39 l 627 0 l 391 0 l 389 94 q 298 15 349 43 q 195 -14 248 -14 q 63 47 111 -14 q 16 216 16 108 q 66 436 16 335 q 204 596 115 538 q 399 654 292 654 q 569 623 492 654 l 625 648 l 661 648 l 558 61 m 195 238 q 218 127 195 168 q 277 86 241 86 q 337 113 304 86 q 397 180 370 140 l 464 562 q 380 585 433 585 q 287 537 330 585 q 219 408 244 490 q 195 238 195 326 m 484 758 l 269 940 l 274 965 l 454 965 l 547 780 l 543 758 l 484 758 z "},"á":{"ha":694,"x_min":16,"x_max":699,"o":"m 558 61 l 632 39 l 627 0 l 391 0 l 389 94 q 298 15 349 43 q 195 -14 248 -14 q 63 47 111 -14 q 16 216 16 108 q 66 436 16 335 q 204 596 115 538 q 399 654 292 654 q 569 623 492 654 l 625 648 l 661 648 l 558 61 m 195 238 q 218 127 195 168 q 277 86 241 86 q 337 113 304 86 q 397 180 370 140 l 464 562 q 380 585 433 585 q 287 537 330 585 q 219 408 244 490 q 195 238 195 326 m 368 758 l 372 781 l 505 965 l 699 965 l 696 940 l 427 758 l 368 758 z "},"â":{"ha":694,"x_min":16,"x_max":661,"o":"m 558 61 l 632 39 l 627 0 l 391 0 l 389 94 q 298 15 349 43 q 195 -14 248 -14 q 63 47 111 -14 q 16 216 16 108 q 66 436 16 335 q 204 596 115 538 q 399 654 292 654 q 569 623 492 654 l 625 648 l 661 648 l 558 61 m 195 238 q 218 127 195 168 q 277 86 241 86 q 337 113 304 86 q 397 180 370 140 l 464 562 q 380 585 433 585 q 287 537 330 585 q 219 408 244 490 q 195 238 195 326 m 207 758 l 211 781 l 393 979 l 538 979 l 650 781 l 646 758 l 595 758 l 446 868 l 258 758 l 207 758 z "},"ã":{"ha":694,"x_min":16,"x_max":669,"o":"m 558 61 l 632 39 l 627 0 l 391 0 l 389 94 q 298 15 349 43 q 195 -14 248 -14 q 63 47 111 -14 q 16 216 16 108 q 66 436 16 335 q 204 596 115 538 q 399 654 292 654 q 569 623 492 654 l 625 648 l 661 648 l 558 61 m 195 238 q 218 127 195 168 q 277 86 241 86 q 337 113 304 86 q 397 180 370 140 l 464 562 q 380 585 433 585 q 287 537 330 585 q 219 408 244 490 q 195 238 195 326 m 486 739 q 363 799 429 739 q 308 829 330 829 q 268 812 282 829 q 241 751 254 794 l 174 751 q 356 946 219 946 q 420 930 392 946 q 480 888 449 913 q 535 857 515 857 q 574 874 560 857 q 602 933 589 892 l 669 933 q 598 785 644 830 q 486 739 553 739 z "},"ä":{"ha":694,"x_min":16,"x_max":661,"o":"m 558 61 l 632 39 l 627 0 l 391 0 l 389 94 q 298 15 349 43 q 195 -14 248 -14 q 63 47 111 -14 q 16 216 16 108 q 66 436 16 335 q 204 596 115 538 q 399 654 292 654 q 569 623 492 654 l 625 648 l 661 648 l 558 61 m 195 238 q 218 127 195 168 q 277 86 241 86 q 337 113 304 86 q 397 180 370 140 l 464 562 q 380 585 433 585 q 287 537 330 585 q 219 408 244 490 q 195 238 195 326 m 549 766 q 491 790 516 766 q 467 848 467 814 q 491 906 467 882 q 549 929 516 929 q 606 906 582 929 q 629 848 629 883 q 606 790 629 814 q 549 766 582 766 m 307 766 q 250 791 275 766 q 225 848 225 817 q 250 905 225 881 q 307 929 274 929 q 364 905 340 929 q 388 848 388 881 q 364 790 388 814 q 307 766 340 766 z "},"å":{"ha":694,"x_min":16,"x_max":661,"o":"m 558 61 l 632 39 l 627 0 l 391 0 l 389 94 q 298 15 349 43 q 195 -14 248 -14 q 63 47 111 -14 q 16 216 16 108 q 66 436 16 335 q 204 596 115 538 q 399 654 292 654 q 569 623 492 654 l 625 648 l 661 648 l 558 61 m 195 238 q 218 127 195 168 q 277 86 241 86 q 337 113 304 86 q 397 180 370 140 l 464 562 q 380 585 433 585 q 287 537 330 585 q 219 408 244 490 q 195 238 195 326 m 432 718 q 331 760 373 718 q 289 863 289 802 q 331 965 289 924 q 432 1006 372 1006 q 533 965 492 1006 q 575 863 575 924 q 533 760 575 802 q 432 718 492 718 m 432 930 q 386 910 406 930 q 366 863 366 890 q 386 816 366 836 q 432 796 406 796 q 478 816 458 796 q 498 863 498 836 q 478 910 498 890 q 432 930 458 930 z "},"æ":{"ha":1003,"x_min":18,"x_max":972,"o":"m 611 345 q 714 377 667 351 q 788 444 762 404 q 814 524 814 483 q 797 567 814 553 q 762 581 781 581 q 669 510 713 581 q 611 345 625 439 m 602 607 q 682 642 636 630 q 770 654 728 654 q 919 616 865 654 q 972 515 972 578 q 927 404 972 455 q 797 319 882 352 q 602 277 711 286 q 598 231 598 263 q 632 112 598 154 q 728 71 665 71 q 797 82 762 71 q 892 134 832 94 l 922 92 q 793 14 863 42 q 659 -14 724 -14 q 437 107 486 -14 q 329 15 384 45 q 210 -14 274 -14 q 71 48 123 -14 q 18 216 18 110 q 70 434 18 333 q 213 595 121 536 q 414 654 305 654 q 504 641 452 654 q 602 607 557 629 m 422 179 l 420 224 q 449 391 420 309 q 527 534 477 473 q 456 573 492 560 q 395 585 420 585 q 298 537 344 585 q 224 406 252 488 q 196 238 196 323 q 220 126 196 165 q 286 86 243 86 q 358 115 316 86 q 422 179 399 144 z "},"ç":{"ha":616,"x_min":20,"x_max":596,"o":"m 265 -14 q 84 50 149 -14 q 20 224 20 113 q 70 448 20 349 q 208 600 120 546 q 397 654 295 654 q 503 645 446 654 q 596 624 560 636 l 563 429 l 514 429 l 505 545 q 406 585 468 585 q 304 537 352 585 q 229 408 256 490 q 202 231 202 326 q 232 113 202 155 q 319 71 262 71 q 412 89 370 71 q 492 134 454 107 l 522 92 q 398 14 467 42 q 265 -14 330 -14 m 161 -293 q 60 -273 106 -293 l 85 -208 q 155 -220 122 -220 q 207 -203 186 -220 q 228 -158 228 -186 q 156 -100 228 -105 l 214 32 l 276 32 l 247 -43 q 331 -78 301 -50 q 361 -146 361 -105 q 304 -253 361 -214 q 161 -293 248 -293 z "},"è":{"ha":616,"x_min":33,"x_max":586,"o":"m 586 515 q 541 403 586 454 q 412 318 496 351 q 220 277 328 285 q 217 231 217 263 q 340 71 217 71 q 433 90 390 71 q 513 134 475 109 l 543 92 q 413 14 483 41 q 279 -14 343 -14 q 96 47 159 -14 q 33 224 33 107 q 82 440 33 340 q 213 597 132 540 q 382 654 294 654 q 531 617 475 654 q 586 515 586 579 m 231 345 q 367 405 314 353 q 420 524 420 456 q 407 567 420 553 q 374 581 393 581 q 287 512 327 581 q 231 345 246 443 m 439 758 l 224 940 l 229 965 l 408 965 l 501 780 l 497 758 l 439 758 z "},"é":{"ha":616,"x_min":33,"x_max":655,"o":"m 586 515 q 541 403 586 454 q 412 318 496 351 q 220 277 328 285 q 217 231 217 263 q 340 71 217 71 q 433 90 390 71 q 513 134 475 109 l 543 92 q 413 14 483 41 q 279 -14 343 -14 q 96 47 159 -14 q 33 224 33 107 q 82 440 33 340 q 213 597 132 540 q 382 654 294 654 q 531 617 475 654 q 586 515 586 579 m 231 345 q 367 405 314 353 q 420 524 420 456 q 407 567 420 553 q 374 581 393 581 q 287 512 327 581 q 231 345 246 443 m 325 758 l 329 781 l 462 965 l 655 965 l 652 940 l 383 758 l 325 758 z "},"ê":{"ha":616,"x_min":33,"x_max":619,"o":"m 586 515 q 541 403 586 454 q 412 318 496 351 q 220 277 328 285 q 217 231 217 263 q 340 71 217 71 q 433 90 390 71 q 513 134 475 109 l 543 92 q 413 14 483 41 q 279 -14 343 -14 q 96 47 159 -14 q 33 224 33 107 q 82 440 33 340 q 213 597 132 540 q 382 654 294 654 q 531 617 475 654 q 586 515 586 579 m 231 345 q 367 405 314 353 q 420 524 420 456 q 407 567 420 553 q 374 581 393 581 q 287 512 327 581 q 231 345 246 443 m 176 758 l 180 781 l 362 979 l 507 979 l 619 781 l 615 758 l 564 758 l 414 868 l 227 758 l 176 758 z "},"ë":{"ha":616,"x_min":33,"x_max":595,"o":"m 586 515 q 541 403 586 454 q 412 318 496 351 q 220 277 328 285 q 217 231 217 263 q 340 71 217 71 q 433 90 390 71 q 513 134 475 109 l 543 92 q 413 14 483 41 q 279 -14 343 -14 q 96 47 159 -14 q 33 224 33 107 q 82 440 33 340 q 213 597 132 540 q 382 654 294 654 q 531 617 475 654 q 586 515 586 579 m 231 345 q 367 405 314 353 q 420 524 420 456 q 407 567 420 553 q 374 581 393 581 q 287 512 327 581 q 231 345 246 443 m 514 766 q 457 790 481 766 q 432 848 432 814 q 457 906 432 882 q 514 929 481 929 q 571 906 547 929 q 595 848 595 883 q 571 790 595 814 q 514 766 547 766 m 273 766 q 215 791 240 766 q 191 848 191 817 q 215 905 191 881 q 273 929 239 929 q 330 905 306 929 q 353 848 353 881 q 330 790 353 814 q 273 766 306 766 z "},"ì":{"ha":386,"x_min":32,"x_max":346,"o":"m 225 61 l 306 45 l 298 0 l 32 0 l 134 576 l 72 593 l 79 637 l 327 637 l 225 61 m 283 758 l 68 940 l 73 965 l 253 965 l 346 780 l 342 758 l 283 758 z "},"í":{"ha":386,"x_min":32,"x_max":480,"o":"m 225 61 l 306 45 l 298 0 l 32 0 l 134 576 l 72 593 l 79 637 l 327 637 l 225 61 m 150 758 l 154 781 l 287 965 l 480 965 l 477 940 l 208 758 l 150 758 z "},"î":{"ha":386,"x_min":16,"x_max":460,"o":"m 225 61 l 306 45 l 298 0 l 32 0 l 134 576 l 72 593 l 79 637 l 327 637 l 225 61 m 16 758 l 20 781 l 203 979 l 347 979 l 460 781 l 456 758 l 404 758 l 255 868 l 68 758 l 16 758 z "},"ï":{"ha":386,"x_min":32,"x_max":457,"o":"m 225 61 l 306 45 l 298 0 l 32 0 l 134 576 l 72 593 l 79 637 l 327 637 l 225 61 m 376 766 q 319 790 344 766 q 294 848 294 814 q 319 906 294 882 q 376 929 344 929 q 433 906 410 929 q 457 848 457 883 q 433 790 457 814 q 376 766 410 766 m 135 766 q 78 791 102 766 q 53 848 53 817 q 77 905 53 881 q 135 929 102 929 q 192 905 168 929 q 216 848 216 881 q 192 790 216 814 q 135 766 168 766 z "},"ð":{"ha":694,"x_min":24,"x_max":663,"o":"m 355 825 q 242 890 302 870 l 255 964 q 450 878 358 939 l 663 989 l 648 905 l 505 830 q 648 466 648 692 q 601 217 648 328 q 471 46 554 106 q 278 -14 387 -14 q 94 56 165 -14 q 24 239 24 126 q 68 436 24 351 q 196 567 113 521 q 387 612 279 612 q 467 604 428 612 q 401 772 460 696 l 211 672 l 226 758 l 355 825 m 204 192 q 229 88 204 123 q 293 54 253 54 q 377 104 337 54 q 441 240 418 155 q 465 418 465 324 q 443 513 465 480 q 378 545 421 545 q 295 495 336 545 q 229 363 254 445 q 204 192 204 281 z "},"ñ":{"ha":772,"x_min":28,"x_max":709,"o":"m 518 492 q 456 557 518 557 q 360 510 414 557 q 281 403 307 463 l 209 0 l 28 0 l 129 576 l 68 593 l 77 637 l 304 637 l 298 519 q 556 654 404 654 q 663 618 623 654 q 702 517 702 583 q 685 393 702 482 l 626 61 l 705 45 l 696 0 l 434 0 l 503 386 q 518 492 518 465 m 526 739 q 403 799 468 739 q 347 829 370 829 q 307 812 321 829 q 280 751 293 794 l 213 751 q 395 946 258 946 q 460 930 431 946 q 519 888 488 913 q 574 857 555 857 q 614 874 600 857 q 642 933 628 892 l 709 933 q 637 785 683 830 q 526 739 592 739 z "},"ò":{"ha":694,"x_min":22,"x_max":647,"o":"m 463 424 q 378 587 463 587 q 294 536 336 587 q 227 397 252 484 q 201 216 201 311 q 227 96 201 138 q 291 54 252 54 q 375 104 334 54 q 439 239 416 154 q 463 424 463 325 m 275 -14 q 91 59 160 -14 q 22 254 22 132 q 69 456 22 363 q 202 601 117 548 q 393 654 287 654 q 578 582 509 654 q 647 387 647 509 q 600 185 647 277 q 467 40 552 93 q 275 -14 382 -14 m 444 758 l 229 940 l 233 965 l 413 965 l 506 780 l 502 758 l 444 758 z "},"ó":{"ha":694,"x_min":22,"x_max":648,"o":"m 463 424 q 378 587 463 587 q 294 536 336 587 q 227 397 252 484 q 201 216 201 311 q 227 96 201 138 q 291 54 252 54 q 375 104 334 54 q 439 239 416 154 q 463 424 463 325 m 275 -14 q 91 59 160 -14 q 22 254 22 132 q 69 456 22 363 q 202 601 117 548 q 393 654 287 654 q 578 582 509 654 q 647 387 647 509 q 600 185 647 277 q 467 40 552 93 q 275 -14 382 -14 m 318 758 l 322 781 l 455 965 l 648 965 l 646 940 l 376 758 l 318 758 z "},"ô":{"ha":694,"x_min":22,"x_max":647,"o":"m 463 424 q 378 587 463 587 q 294 536 336 587 q 227 397 252 484 q 201 216 201 311 q 227 96 201 138 q 291 54 252 54 q 375 104 334 54 q 439 239 416 154 q 463 424 463 325 m 275 -14 q 91 59 160 -14 q 22 254 22 132 q 69 456 22 363 q 202 601 117 548 q 393 654 287 654 q 578 582 509 654 q 647 387 647 509 q 600 185 647 277 q 467 40 552 93 q 275 -14 382 -14 m 191 758 l 195 781 l 377 979 l 522 979 l 634 781 l 630 758 l 578 758 l 429 868 l 242 758 l 191 758 z "},"õ":{"ha":694,"x_min":22,"x_max":669,"o":"m 463 424 q 378 587 463 587 q 294 536 336 587 q 227 397 252 484 q 201 216 201 311 q 227 96 201 138 q 291 54 252 54 q 375 104 334 54 q 439 239 416 154 q 463 424 463 325 m 275 -14 q 91 59 160 -14 q 22 254 22 132 q 69 456 22 363 q 202 601 117 548 q 393 654 287 654 q 578 582 509 654 q 647 387 647 509 q 600 185 647 277 q 467 40 552 93 q 275 -14 382 -14 m 486 739 q 363 799 429 739 q 308 829 330 829 q 268 812 282 829 q 241 751 254 794 l 174 751 q 356 946 219 946 q 420 930 392 946 q 480 888 449 913 q 535 857 515 857 q 574 874 560 857 q 602 933 589 892 l 669 933 q 598 785 644 830 q 486 739 553 739 z "},"ö":{"ha":694,"x_min":22,"x_max":647,"o":"m 463 424 q 378 587 463 587 q 294 536 336 587 q 227 397 252 484 q 201 216 201 311 q 227 96 201 138 q 291 54 252 54 q 375 104 334 54 q 439 239 416 154 q 463 424 463 325 m 275 -14 q 91 59 160 -14 q 22 254 22 132 q 69 456 22 363 q 202 601 117 548 q 393 654 287 654 q 578 582 509 654 q 647 387 647 509 q 600 185 647 277 q 467 40 552 93 q 275 -14 382 -14 m 543 766 q 486 790 511 766 q 461 848 461 814 q 486 906 461 882 q 543 929 511 929 q 600 906 576 929 q 624 848 624 883 q 600 790 624 814 q 543 766 576 766 m 302 766 q 244 791 269 766 q 220 848 220 817 q 244 905 220 881 q 302 929 269 929 q 359 905 335 929 q 382 848 382 881 q 359 790 382 814 q 302 766 335 766 z "},"÷":{"ha":762,"x_min":68,"x_max":713,"o":"m 713 509 l 713 412 l 68 412 l 68 509 l 713 509 m 390 124 q 326 151 352 124 q 299 215 299 177 q 326 279 299 253 q 390 306 352 306 q 454 279 428 306 q 481 215 481 253 q 454 151 481 177 q 390 124 428 124 m 390 616 q 326 643 352 616 q 299 707 299 669 q 326 772 299 745 q 390 798 352 798 q 454 772 428 798 q 481 707 481 745 q 454 643 481 669 q 390 616 428 616 z "},"ø":{"ha":694,"x_min":-32,"x_max":698,"o":"m 275 -14 q 127 28 189 -14 l 54 -57 l -32 -57 l 79 72 q 22 254 22 144 q 69 456 22 363 q 202 601 117 548 q 393 654 287 654 q 543 611 481 654 l 614 693 l 698 693 l 590 568 q 647 387 647 495 q 600 185 647 277 q 467 40 552 93 q 275 -14 382 -14 m 201 214 l 454 508 q 378 587 435 587 q 294 536 336 587 q 227 397 252 484 q 201 216 201 311 l 201 214 m 291 54 q 374 103 334 54 q 439 236 415 153 q 463 420 463 320 l 213 128 q 291 54 237 54 z "},"ù":{"ha":772,"x_min":51,"x_max":727,"o":"m 237 146 q 299 81 237 81 q 397 129 342 81 q 475 235 451 178 l 547 637 l 727 637 l 627 62 l 701 45 l 692 0 l 452 0 l 457 119 q 199 -16 352 -16 q 92 21 131 -16 q 54 127 54 58 q 58 171 54 140 q 130 576 62 202 l 51 593 l 60 637 l 321 637 l 252 252 q 237 146 237 174 m 500 758 l 286 940 l 290 965 l 470 965 l 563 780 l 559 758 l 500 758 z "},"ú":{"ha":772,"x_min":51,"x_max":727,"o":"m 237 146 q 299 81 237 81 q 397 129 342 81 q 475 235 451 178 l 547 637 l 727 637 l 627 62 l 701 45 l 692 0 l 452 0 l 457 119 q 199 -16 352 -16 q 92 21 131 -16 q 54 127 54 58 q 58 171 54 140 q 130 576 62 202 l 51 593 l 60 637 l 321 637 l 252 252 q 237 146 237 174 m 341 758 l 345 781 l 478 965 l 671 965 l 669 940 l 399 758 l 341 758 z "},"û":{"ha":772,"x_min":51,"x_max":727,"o":"m 237 146 q 299 81 237 81 q 397 129 342 81 q 475 235 451 178 l 547 637 l 727 637 l 627 62 l 701 45 l 692 0 l 452 0 l 457 119 q 199 -16 352 -16 q 92 21 131 -16 q 54 127 54 58 q 58 171 54 140 q 130 576 62 202 l 51 593 l 60 637 l 321 637 l 252 252 q 237 146 237 174 m 230 758 l 234 781 l 416 979 l 561 979 l 673 781 l 669 758 l 618 758 l 469 868 l 281 758 l 230 758 z "},"ü":{"ha":772,"x_min":51,"x_max":727,"o":"m 237 146 q 299 81 237 81 q 397 129 342 81 q 475 235 451 178 l 547 637 l 727 637 l 627 62 l 701 45 l 692 0 l 452 0 l 457 119 q 199 -16 352 -16 q 92 21 131 -16 q 54 127 54 58 q 58 171 54 140 q 130 576 62 202 l 51 593 l 60 637 l 321 637 l 252 252 q 237 146 237 174 m 576 766 q 518 790 543 766 q 494 848 494 814 q 518 906 494 882 q 576 929 543 929 q 633 906 609 929 q 656 848 656 883 q 633 790 656 814 q 576 766 609 766 m 334 766 q 277 791 302 766 q 252 848 252 817 q 277 905 252 881 q 334 929 301 929 q 391 905 368 929 q 415 848 415 881 q 391 790 415 814 q 334 766 368 766 z "},"ý":{"ha":616,"x_min":-139,"x_max":621,"o":"m 621 595 q 566 446 621 534 l 268 -40 q 158 -197 203 -146 q 68 -274 114 -248 q -30 -300 22 -300 q -85 -297 -64 -300 q -139 -287 -106 -295 l -111 -123 l -70 -123 l -56 -208 q -9 -224 -39 -224 q 80 -177 32 -224 q 203 -3 128 -130 l 58 576 l 17 593 l 24 637 l 230 637 l 333 204 l 456 408 q 487 473 474 437 q 499 530 499 509 q 493 558 499 547 q 478 577 488 570 q 438 593 469 585 l 446 637 l 603 637 q 621 595 621 622 m 276 758 l 280 781 l 413 965 l 606 965 l 604 940 l 334 758 l 276 758 z "},"þ":{"ha":694,"x_min":-113,"x_max":648,"o":"m 648 428 q 604 204 648 307 q 479 44 559 102 q 300 -14 399 -14 q 241 -7 275 -14 q 185 9 207 -1 q 179 -48 182 -31 q 150 -235 177 -65 l 258 -252 l 250 -296 l -113 -296 l -105 -252 l -35 -235 l 167 906 l 100 923 l 108 964 l 359 964 q 308 676 326 777 q 277 536 290 574 q 369 624 315 593 q 481 654 423 654 q 603 594 557 654 q 648 428 648 534 m 470 398 q 448 510 470 468 q 391 551 427 551 q 333 524 368 551 q 270 457 297 496 l 204 86 q 244 63 218 73 q 292 54 271 54 q 381 101 340 54 q 446 229 422 148 q 470 398 470 311 z "},"ÿ":{"ha":616,"x_min":-139,"x_max":621,"o":"m 621 595 q 566 446 621 534 l 268 -40 q 158 -197 203 -146 q 68 -274 114 -248 q -30 -300 22 -300 q -85 -297 -64 -300 q -139 -287 -106 -295 l -111 -123 l -70 -123 l -56 -208 q -9 -224 -39 -224 q 80 -177 32 -224 q 203 -3 128 -130 l 58 576 l 17 593 l 24 637 l 230 637 l 333 204 l 456 408 q 487 473 474 437 q 499 530 499 509 q 493 558 499 547 q 478 577 488 570 q 438 593 469 585 l 446 637 l 603 637 q 621 595 621 622 m 485 766 q 428 790 452 766 q 403 848 403 814 q 428 906 403 882 q 485 929 452 929 q 542 906 518 929 q 566 848 566 883 q 542 790 566 814 q 485 766 518 766 m 243 766 q 186 791 211 766 q 161 848 161 817 q 186 905 161 881 q 243 929 210 929 q 300 905 277 929 q 324 848 324 881 q 300 790 324 814 q 243 766 277 766 z "},"Ā":{"ha":926,"x_min":-72,"x_max":869,"o":"m 205 50 l 195 0 l -72 0 l -62 50 l 7 68 l 460 917 l 623 917 l 795 68 l 869 50 l 860 0 l 488 0 l 497 50 l 591 68 l 549 303 l 229 303 l 104 68 l 205 50 m 467 758 l 267 378 l 536 378 l 467 758 m 323 1007 l 341 1109 l 767 1109 l 749 1007 l 323 1007 z "},"ā":{"ha":694,"x_min":16,"x_max":661,"o":"m 558 61 l 632 39 l 627 0 l 391 0 l 389 94 q 298 15 349 43 q 195 -14 248 -14 q 63 47 111 -14 q 16 216 16 108 q 66 436 16 335 q 204 596 115 538 q 399 654 292 654 q 569 623 492 654 l 625 648 l 661 648 l 558 61 m 195 238 q 218 127 195 168 q 277 86 241 86 q 337 113 304 86 q 397 180 370 140 l 464 562 q 380 585 433 585 q 287 537 330 585 q 219 408 244 490 q 195 238 195 326 m 213 781 l 231 882 l 656 882 l 639 781 l 213 781 z "},"Ă":{"ha":926,"x_min":-72,"x_max":869,"o":"m 205 50 l 195 0 l -72 0 l -62 50 l 7 68 l 460 917 l 623 917 l 795 68 l 869 50 l 860 0 l 488 0 l 497 50 l 591 68 l 549 303 l 229 303 l 104 68 l 205 50 m 467 758 l 267 378 l 536 378 l 467 758 m 537 985 q 412 1027 456 985 q 368 1151 368 1069 q 372 1204 368 1176 l 454 1204 q 560 1115 458 1115 q 698 1204 662 1115 l 780 1204 q 695 1042 759 1099 q 537 985 632 985 z "},"ă":{"ha":694,"x_min":16,"x_max":661,"o":"m 558 61 l 632 39 l 627 0 l 391 0 l 389 94 q 298 15 349 43 q 195 -14 248 -14 q 63 47 111 -14 q 16 216 16 108 q 66 436 16 335 q 204 596 115 538 q 399 654 292 654 q 569 623 492 654 l 625 648 l 661 648 l 558 61 m 195 238 q 218 127 195 168 q 277 86 241 86 q 337 113 304 86 q 397 180 370 140 l 464 562 q 380 585 433 585 q 287 537 330 585 q 219 408 244 490 q 195 238 195 326 m 387 758 q 262 801 306 758 q 218 924 218 843 q 222 977 218 949 l 304 977 q 410 888 309 888 q 548 977 512 888 l 630 977 q 546 815 609 873 q 387 758 482 758 z "},"Ą":{"ha":926,"x_min":-72,"x_max":869,"o":"m 205 50 l 195 0 l -72 0 l -62 50 l 7 68 l 460 917 l 623 917 l 795 68 l 869 50 l 860 0 l 488 0 l 497 50 l 591 68 l 549 303 l 229 303 l 104 68 l 205 50 m 467 758 l 267 378 l 536 378 l 467 758 m 675 -292 q 562 -257 602 -292 q 523 -155 523 -222 q 547 -63 523 -110 q 610 9 571 -17 l 699 9 q 663 -64 677 -24 q 649 -140 649 -104 q 720 -217 649 -217 q 794 -199 755 -217 l 814 -256 q 675 -292 752 -292 z "},"ą":{"ha":694,"x_min":16,"x_max":661,"o":"m 558 61 l 632 39 l 627 0 l 391 0 l 389 94 q 298 15 349 43 q 195 -14 248 -14 q 63 47 111 -14 q 16 216 16 108 q 66 436 16 335 q 204 596 115 538 q 399 654 292 654 q 569 623 492 654 l 625 648 l 661 648 l 558 61 m 195 238 q 218 127 195 168 q 277 86 241 86 q 337 113 304 86 q 397 180 370 140 l 464 562 q 380 585 433 585 q 287 537 330 585 q 219 408 244 490 q 195 238 195 326 m 468 -292 q 355 -257 394 -292 q 315 -155 315 -222 q 339 -63 315 -110 q 402 9 363 -17 l 492 9 q 456 -64 470 -24 q 441 -140 441 -104 q 512 -217 441 -217 q 587 -199 547 -217 l 607 -256 q 468 -292 545 -292 z "},"Ć":{"ha":926,"x_min":47,"x_max":939,"o":"m 454 -14 q 154 86 261 -14 q 47 360 47 186 q 118 654 47 527 q 319 850 189 781 q 618 920 450 920 q 939 884 772 920 l 903 656 l 846 656 l 846 787 q 758 832 810 817 q 649 848 706 848 q 448 786 537 848 q 309 610 359 724 q 260 354 260 496 q 322 135 260 214 q 498 56 385 56 q 631 76 564 56 q 740 125 699 95 l 792 274 l 850 274 l 805 43 q 635 2 728 18 q 454 -14 543 -14 m 511 985 l 515 1007 l 648 1192 l 841 1192 l 838 1166 l 569 985 l 511 985 z "},"ć":{"ha":616,"x_min":20,"x_max":655,"o":"m 265 -14 q 84 50 149 -14 q 20 224 20 113 q 70 448 20 349 q 208 600 120 546 q 397 654 295 654 q 503 645 446 654 q 596 624 560 636 l 563 429 l 514 429 l 505 545 q 406 585 468 585 q 304 537 352 585 q 229 408 256 490 q 202 231 202 326 q 232 113 202 155 q 319 71 262 71 q 412 89 370 71 q 492 134 454 107 l 522 92 q 398 14 467 42 q 265 -14 330 -14 m 325 758 l 329 781 l 462 965 l 655 965 l 652 940 l 383 758 l 325 758 z "},"Ĉ":{"ha":926,"x_min":47,"x_max":939,"o":"m 454 -14 q 154 86 261 -14 q 47 360 47 186 q 118 654 47 527 q 319 850 189 781 q 618 920 450 920 q 939 884 772 920 l 903 656 l 846 656 l 846 787 q 758 832 810 817 q 649 848 706 848 q 448 786 537 848 q 309 610 359 724 q 260 354 260 496 q 322 135 260 214 q 498 56 385 56 q 631 76 564 56 q 740 125 699 95 l 792 274 l 850 274 l 805 43 q 635 2 728 18 q 454 -14 543 -14 m 389 985 l 393 1007 l 575 1206 l 720 1206 l 832 1007 l 828 985 l 777 985 l 627 1095 l 440 985 l 389 985 z "},"ĉ":{"ha":616,"x_min":20,"x_max":644,"o":"m 265 -14 q 84 50 149 -14 q 20 224 20 113 q 70 448 20 349 q 208 600 120 546 q 397 654 295 654 q 503 645 446 654 q 596 624 560 636 l 563 429 l 514 429 l 505 545 q 406 585 468 585 q 304 537 352 585 q 229 408 256 490 q 202 231 202 326 q 232 113 202 155 q 319 71 262 71 q 412 89 370 71 q 492 134 454 107 l 522 92 q 398 14 467 42 q 265 -14 330 -14 m 200 758 l 204 781 l 387 979 l 531 979 l 644 781 l 640 758 l 588 758 l 439 868 l 252 758 l 200 758 z "},"Ċ":{"ha":926,"x_min":47,"x_max":939,"o":"m 454 -14 q 154 86 261 -14 q 47 360 47 186 q 118 654 47 527 q 319 850 189 781 q 618 920 450 920 q 939 884 772 920 l 903 656 l 846 656 l 846 787 q 758 832 810 817 q 649 848 706 848 q 448 786 537 848 q 309 610 359 724 q 260 354 260 496 q 322 135 260 214 q 498 56 385 56 q 631 76 564 56 q 740 125 699 95 l 792 274 l 850 274 l 805 43 q 635 2 728 18 q 454 -14 543 -14 m 524 1102 q 554 1176 524 1146 q 628 1206 585 1206 q 702 1176 671 1206 q 732 1102 732 1145 q 702 1028 732 1059 q 628 998 672 998 q 554 1028 585 998 q 524 1102 524 1058 z "},"ċ":{"ha":616,"x_min":20,"x_max":596,"o":"m 265 -14 q 84 50 149 -14 q 20 224 20 113 q 70 448 20 349 q 208 600 120 546 q 397 654 295 654 q 503 645 446 654 q 596 624 560 636 l 563 429 l 514 429 l 505 545 q 406 585 468 585 q 304 537 352 585 q 229 408 256 490 q 202 231 202 326 q 232 113 202 155 q 319 71 262 71 q 412 89 370 71 q 492 134 454 107 l 522 92 q 398 14 467 42 q 265 -14 330 -14 m 313 876 q 343 949 313 920 q 417 979 374 979 q 491 949 460 979 q 521 876 521 919 q 491 802 521 833 q 417 771 461 771 q 343 801 374 771 q 313 876 313 831 z "},"Č":{"ha":926,"x_min":47,"x_max":939,"o":"m 454 -14 q 154 86 261 -14 q 47 360 47 186 q 118 654 47 527 q 319 850 189 781 q 618 920 450 920 q 939 884 772 920 l 903 656 l 846 656 l 846 787 q 758 832 810 817 q 649 848 706 848 q 448 786 537 848 q 309 610 359 724 q 260 354 260 496 q 322 135 260 214 q 498 56 385 56 q 631 76 564 56 q 740 125 699 95 l 792 274 l 850 274 l 805 43 q 635 2 728 18 q 454 -14 543 -14 m 869 1206 l 865 1183 l 682 985 l 538 985 l 425 1183 l 429 1206 l 481 1206 l 630 1096 l 817 1206 l 869 1206 z "},"č":{"ha":616,"x_min":20,"x_max":664,"o":"m 265 -14 q 84 50 149 -14 q 20 224 20 113 q 70 448 20 349 q 208 600 120 546 q 397 654 295 654 q 503 645 446 654 q 596 624 560 636 l 563 429 l 514 429 l 505 545 q 406 585 468 585 q 304 537 352 585 q 229 408 256 490 q 202 231 202 326 q 232 113 202 155 q 319 71 262 71 q 412 89 370 71 q 492 134 454 107 l 522 92 q 398 14 467 42 q 265 -14 330 -14 m 664 979 l 660 957 l 477 758 l 333 758 l 220 957 l 224 979 l 276 979 l 425 869 l 612 979 l 664 979 z "},"Ď":{"ha":1003,"x_min":-10,"x_max":970,"o":"m 760 525 q 478 835 760 835 l 453 835 l 319 77 q 404 72 377 72 q 664 193 569 72 q 760 525 760 315 m 503 909 q 851 812 732 909 q 970 534 970 715 q 902 250 970 372 q 704 62 833 127 q 406 -3 576 -3 l 122 0 l -10 0 l -2 50 l 118 68 l 254 842 l 141 860 l 150 909 l 503 909 m 810 1206 l 806 1183 l 624 985 l 479 985 l 367 1183 l 371 1206 l 422 1206 l 572 1096 l 759 1206 l 810 1206 z "},"ď":{"ha":1040,"x_min":16,"x_max":1044,"o":"m 187 -14 q 63 46 110 -14 q 16 210 16 106 q 60 433 16 330 q 183 594 104 535 q 358 654 262 654 q 476 635 432 654 l 478 655 l 486 719 l 517 903 l 408 920 l 416 964 l 711 964 l 551 58 l 618 41 l 610 0 l 385 0 l 380 98 q 288 15 340 44 q 187 -14 237 -14 m 195 240 q 214 127 195 167 q 264 87 233 87 q 327 114 290 87 q 391 181 363 141 l 457 554 q 415 577 444 568 q 366 587 387 587 q 280 538 320 587 q 218 408 241 490 q 195 240 195 326 m 939 964 q 1015 936 987 964 q 1044 861 1044 909 q 970 705 1044 771 q 750 603 897 639 l 760 657 q 864 704 825 673 q 903 766 903 734 q 892 795 903 783 q 868 819 882 807 q 844 844 855 830 q 833 880 833 859 q 861 942 833 920 q 939 964 889 964 z "},"Đ":{"ha":1003,"x_min":-10,"x_max":970,"o":"m 970 534 q 902 250 970 372 q 704 62 833 127 q 406 -3 576 -3 l 122 0 l -10 0 l -2 50 l 118 68 l 178 413 l 62 413 l 77 496 l 193 496 l 254 842 l 141 860 l 150 909 l 503 909 q 851 812 732 909 q 970 534 970 715 m 760 525 q 478 835 760 835 l 453 835 l 393 496 l 568 496 l 553 413 l 378 413 l 319 77 q 404 72 377 72 q 664 193 569 72 q 760 525 760 315 z "},"đ":{"ha":694,"x_min":16,"x_max":753,"o":"m 672 745 l 551 58 l 618 41 l 610 0 l 385 0 l 380 98 q 288 15 340 44 q 187 -14 237 -14 q 63 46 110 -14 q 16 210 16 106 q 60 433 16 330 q 183 594 104 535 q 358 654 262 654 q 476 635 432 654 q 490 745 480 684 l 347 745 l 359 815 l 503 815 l 517 903 l 408 920 l 416 964 l 711 964 l 685 815 l 753 815 l 741 745 l 672 745 m 457 554 q 415 577 444 568 q 366 587 387 587 q 280 538 320 587 q 218 408 241 490 q 195 240 195 326 q 215 129 195 170 q 268 87 235 87 q 327 114 290 87 q 391 181 363 142 l 457 554 z "},"Ē":{"ha":926,"x_min":-10,"x_max":863,"o":"m 254 842 l 141 860 l 150 909 l 863 909 l 823 678 l 761 678 l 765 825 q 547 835 691 835 l 454 835 l 395 501 l 585 501 l 624 602 l 684 602 l 635 322 l 574 322 l 572 425 l 381 425 l 319 75 l 444 75 q 673 85 615 75 l 743 254 l 804 254 l 747 0 l -10 0 l -2 50 l 118 68 l 254 842 m 317 1007 l 334 1109 l 760 1109 l 743 1007 l 317 1007 z "},"ē":{"ha":616,"x_min":33,"x_max":623,"o":"m 586 515 q 541 403 586 454 q 412 318 496 351 q 220 277 328 285 q 217 231 217 263 q 340 71 217 71 q 433 90 390 71 q 513 134 475 109 l 543 92 q 413 14 483 41 q 279 -14 343 -14 q 96 47 159 -14 q 33 224 33 107 q 82 440 33 340 q 213 597 132 540 q 382 654 294 654 q 531 617 475 654 q 586 515 586 579 m 231 345 q 367 405 314 353 q 420 524 420 456 q 407 567 420 553 q 374 581 393 581 q 287 512 327 581 q 231 345 246 443 m 180 781 l 197 882 l 623 882 l 606 781 l 180 781 z "},"Ĕ":{"ha":926,"x_min":-10,"x_max":863,"o":"m 254 842 l 141 860 l 150 909 l 863 909 l 823 678 l 761 678 l 765 825 q 547 835 691 835 l 454 835 l 395 501 l 585 501 l 624 602 l 684 602 l 635 322 l 574 322 l 572 425 l 381 425 l 319 75 l 444 75 q 673 85 615 75 l 743 254 l 804 254 l 747 0 l -10 0 l -2 50 l 118 68 l 254 842 m 539 985 q 414 1027 458 985 q 370 1151 370 1069 q 374 1204 370 1176 l 456 1204 q 562 1115 460 1115 q 700 1204 664 1115 l 782 1204 q 697 1042 761 1099 q 539 985 634 985 z "},"ĕ":{"ha":616,"x_min":33,"x_max":627,"o":"m 586 515 q 541 403 586 454 q 412 318 496 351 q 220 277 328 285 q 217 231 217 263 q 340 71 217 71 q 433 90 390 71 q 513 134 475 109 l 543 92 q 413 14 483 41 q 279 -14 343 -14 q 96 47 159 -14 q 33 224 33 107 q 82 440 33 340 q 213 597 132 540 q 382 654 294 654 q 531 617 475 654 q 586 515 586 579 m 231 345 q 367 405 314 353 q 420 524 420 456 q 407 567 420 553 q 374 581 393 581 q 287 512 327 581 q 231 345 246 443 m 385 758 q 259 801 303 758 q 215 924 215 843 q 219 977 215 949 l 301 977 q 408 888 306 888 q 545 977 509 888 l 627 977 q 543 815 606 873 q 385 758 479 758 z "},"Ė":{"ha":926,"x_min":-10,"x_max":863,"o":"m 254 842 l 141 860 l 150 909 l 863 909 l 823 678 l 761 678 l 765 825 q 547 835 691 835 l 454 835 l 395 501 l 585 501 l 624 602 l 684 602 l 635 322 l 574 322 l 572 425 l 381 425 l 319 75 l 444 75 q 673 85 615 75 l 743 254 l 804 254 l 747 0 l -10 0 l -2 50 l 118 68 l 254 842 m 436 1102 q 467 1176 436 1146 q 541 1206 498 1206 q 614 1176 584 1206 q 644 1102 644 1145 q 614 1028 644 1059 q 541 998 585 998 q 467 1028 497 998 q 436 1102 436 1058 z "},"ė":{"ha":616,"x_min":33,"x_max":586,"o":"m 586 515 q 541 403 586 454 q 412 318 496 351 q 220 277 328 285 q 217 231 217 263 q 340 71 217 71 q 433 90 390 71 q 513 134 475 109 l 543 92 q 413 14 483 41 q 279 -14 343 -14 q 96 47 159 -14 q 33 224 33 107 q 82 440 33 340 q 213 597 132 540 q 382 654 294 654 q 531 617 475 654 q 586 515 586 579 m 231 345 q 367 405 314 353 q 420 524 420 456 q 407 567 420 553 q 374 581 393 581 q 287 512 327 581 q 231 345 246 443 m 300 876 q 331 949 300 920 q 405 979 362 979 q 478 949 448 979 q 509 876 509 919 q 479 802 509 833 q 405 771 449 771 q 331 801 361 771 q 300 876 300 831 z "},"Ę":{"ha":926,"x_min":-10,"x_max":863,"o":"m 254 842 l 141 860 l 150 909 l 863 909 l 823 678 l 761 678 l 765 825 q 547 835 691 835 l 454 835 l 395 501 l 585 501 l 624 602 l 684 602 l 635 322 l 574 322 l 572 425 l 381 425 l 319 75 l 444 75 q 673 85 615 75 l 743 254 l 804 254 l 747 0 l -10 0 l -2 50 l 118 68 l 254 842 m 614 -292 q 500 -257 540 -292 q 461 -155 461 -222 q 485 -63 461 -110 q 548 9 509 -17 l 637 9 q 602 -64 616 -24 q 587 -140 587 -104 q 658 -217 587 -217 q 732 -199 693 -217 l 753 -256 q 614 -292 690 -292 z "},"ę":{"ha":616,"x_min":33,"x_max":586,"o":"m 586 515 q 541 403 586 454 q 412 318 496 351 q 220 277 328 285 q 217 231 217 263 q 340 71 217 71 q 433 90 390 71 q 513 134 475 109 l 543 92 q 413 14 483 41 q 279 -14 343 -14 q 96 47 159 -14 q 33 224 33 107 q 82 440 33 340 q 213 597 132 540 q 382 654 294 654 q 531 617 475 654 q 586 515 586 579 m 231 345 q 367 405 314 353 q 420 524 420 456 q 407 567 420 553 q 374 581 393 581 q 287 512 327 581 q 231 345 246 443 m 380 -292 q 267 -257 307 -292 q 228 -155 228 -222 q 252 -63 228 -110 q 315 9 276 -17 l 404 9 q 368 -64 382 -24 q 354 -140 354 -104 q 425 -217 354 -217 q 499 -199 460 -217 l 519 -256 q 380 -292 457 -292 z "},"Ě":{"ha":926,"x_min":-10,"x_max":863,"o":"m 254 842 l 141 860 l 150 909 l 863 909 l 823 678 l 761 678 l 765 825 q 547 835 691 835 l 454 835 l 395 501 l 585 501 l 624 602 l 684 602 l 635 322 l 574 322 l 572 425 l 381 425 l 319 75 l 444 75 q 673 85 615 75 l 743 254 l 804 254 l 747 0 l -10 0 l -2 50 l 118 68 l 254 842 m 778 1206 l 774 1183 l 591 985 l 447 985 l 334 1183 l 338 1206 l 390 1206 l 539 1096 l 726 1206 l 778 1206 z "},"ě":{"ha":616,"x_min":33,"x_max":642,"o":"m 586 515 q 541 403 586 454 q 412 318 496 351 q 220 277 328 285 q 217 231 217 263 q 340 71 217 71 q 433 90 390 71 q 513 134 475 109 l 543 92 q 413 14 483 41 q 279 -14 343 -14 q 96 47 159 -14 q 33 224 33 107 q 82 440 33 340 q 213 597 132 540 q 382 654 294 654 q 531 617 475 654 q 586 515 586 579 m 231 345 q 367 405 314 353 q 420 524 420 456 q 407 567 420 553 q 374 581 393 581 q 287 512 327 581 q 231 345 246 443 m 642 979 l 638 957 l 456 758 l 311 758 l 199 957 l 203 979 l 254 979 l 404 869 l 591 979 l 642 979 z "},"Ĝ":{"ha":1003,"x_min":47,"x_max":987,"o":"m 47 355 q 120 653 47 525 q 324 850 192 781 q 627 920 456 920 q 949 878 793 920 l 911 669 l 854 669 l 855 787 q 638 848 774 848 q 443 785 530 848 q 307 606 355 722 q 258 341 258 490 q 316 132 258 207 q 480 56 374 56 q 641 85 568 56 l 687 343 l 574 365 l 582 411 l 987 411 l 979 365 l 887 343 l 835 47 q 644 1 734 16 q 449 -14 553 -14 q 153 84 258 -14 q 47 355 47 182 m 389 985 l 393 1007 l 575 1206 l 720 1206 l 832 1007 l 828 985 l 777 985 l 627 1095 l 440 985 l 389 985 z "},"ĝ":{"ha":694,"x_min":-26,"x_max":658,"o":"m 198 241 q 220 128 198 169 q 276 87 242 87 q 332 111 300 87 q 395 176 364 135 l 467 570 q 380 587 427 587 q 288 541 330 587 q 222 411 247 494 q 198 241 198 328 m 20 211 q 66 436 20 332 q 193 597 112 540 q 376 654 274 654 q 658 626 487 654 l 541 -24 q 432 -230 515 -164 q 199 -296 349 -296 q 74 -282 136 -296 q -26 -248 11 -269 l -11 -76 l 27 -76 l 52 -165 q 115 -206 76 -190 q 200 -222 153 -222 q 276 -205 245 -222 q 325 -154 307 -188 q 356 -51 344 -121 q 388 98 372 49 q 295 15 347 45 q 195 -16 244 -16 q 68 45 116 -16 q 20 211 20 106 m 170 758 l 174 781 l 357 979 l 501 979 l 614 781 l 610 758 l 558 758 l 409 868 l 222 758 l 170 758 z "},"Ğ":{"ha":1003,"x_min":47,"x_max":987,"o":"m 47 355 q 120 653 47 525 q 324 850 192 781 q 627 920 456 920 q 949 878 793 920 l 911 669 l 854 669 l 855 787 q 638 848 774 848 q 443 785 530 848 q 307 606 355 722 q 258 341 258 490 q 316 132 258 207 q 480 56 374 56 q 641 85 568 56 l 687 343 l 574 365 l 582 411 l 987 411 l 979 365 l 887 343 l 835 47 q 644 1 734 16 q 449 -14 553 -14 q 153 84 258 -14 q 47 355 47 182 m 608 985 q 482 1027 526 985 q 438 1151 438 1069 q 442 1204 438 1176 l 524 1204 q 631 1115 529 1115 q 768 1204 732 1115 l 850 1204 q 766 1042 829 1099 q 608 985 703 985 z "},"ğ":{"ha":694,"x_min":-26,"x_max":658,"o":"m 198 241 q 220 128 198 169 q 276 87 242 87 q 332 111 300 87 q 395 176 364 135 l 467 570 q 380 587 427 587 q 288 541 330 587 q 222 411 247 494 q 198 241 198 328 m 20 211 q 66 436 20 332 q 193 597 112 540 q 376 654 274 654 q 658 626 487 654 l 541 -24 q 432 -230 515 -164 q 199 -296 349 -296 q 74 -282 136 -296 q -26 -248 11 -269 l -11 -76 l 27 -76 l 52 -165 q 115 -206 76 -190 q 200 -222 153 -222 q 276 -205 245 -222 q 325 -154 307 -188 q 356 -51 344 -121 q 388 98 372 49 q 295 15 347 45 q 195 -16 244 -16 q 68 45 116 -16 q 20 211 20 106 m 399 758 q 274 801 318 758 q 230 924 230 843 q 234 977 230 949 l 316 977 q 422 888 321 888 q 560 977 524 888 l 642 977 q 558 815 621 873 q 399 758 494 758 z "},"Ġ":{"ha":1003,"x_min":47,"x_max":987,"o":"m 47 355 q 120 653 47 525 q 324 850 192 781 q 627 920 456 920 q 949 878 793 920 l 911 669 l 854 669 l 855 787 q 638 848 774 848 q 443 785 530 848 q 307 606 355 722 q 258 341 258 490 q 316 132 258 207 q 480 56 374 56 q 641 85 568 56 l 687 343 l 574 365 l 582 411 l 987 411 l 979 365 l 887 343 l 835 47 q 644 1 734 16 q 449 -14 553 -14 q 153 84 258 -14 q 47 355 47 182 m 524 1102 q 554 1176 524 1146 q 628 1206 585 1206 q 702 1176 671 1206 q 732 1102 732 1145 q 702 1028 732 1059 q 628 998 672 998 q 554 1028 585 998 q 524 1102 524 1058 z "},"ġ":{"ha":694,"x_min":-26,"x_max":658,"o":"m 198 241 q 220 128 198 169 q 276 87 242 87 q 332 111 300 87 q 395 176 364 135 l 467 570 q 380 587 427 587 q 288 541 330 587 q 222 411 247 494 q 198 241 198 328 m 20 211 q 66 436 20 332 q 193 597 112 540 q 376 654 274 654 q 658 626 487 654 l 541 -24 q 432 -230 515 -164 q 199 -296 349 -296 q 74 -282 136 -296 q -26 -248 11 -269 l -11 -76 l 27 -76 l 52 -165 q 115 -206 76 -190 q 200 -222 153 -222 q 276 -205 245 -222 q 325 -154 307 -188 q 356 -51 344 -121 q 388 98 372 49 q 295 15 347 45 q 195 -16 244 -16 q 68 45 116 -16 q 20 211 20 106 m 305 876 q 336 949 305 920 q 410 979 367 979 q 483 949 453 979 q 513 876 513 919 q 484 802 513 833 q 410 771 454 771 q 336 801 366 771 q 305 876 305 831 z "},"Ģ":{"ha":1003,"x_min":47,"x_max":987,"o":"m 47 355 q 120 653 47 525 q 324 850 192 781 q 627 920 456 920 q 949 878 793 920 l 911 669 l 854 669 l 855 787 q 638 848 774 848 q 443 785 530 848 q 307 606 355 722 q 258 341 258 490 q 316 132 258 207 q 480 56 374 56 q 641 85 568 56 l 687 343 l 574 365 l 582 411 l 987 411 l 979 365 l 887 343 l 835 47 q 644 1 734 16 q 449 -14 553 -14 q 153 84 258 -14 q 47 355 47 182 m 479 -49 q 547 -76 519 -49 q 574 -148 574 -103 q 507 -282 574 -229 q 315 -355 440 -336 l 323 -308 q 441 -224 441 -281 q 432 -201 441 -211 q 412 -180 422 -191 q 392 -156 401 -169 q 383 -123 383 -142 q 409 -69 383 -90 q 479 -49 435 -49 z "},"ģ":{"ha":694,"x_min":-26,"x_max":658,"o":"m 198 241 q 220 128 198 169 q 276 87 242 87 q 332 111 300 87 q 395 176 364 135 l 467 570 q 380 587 427 587 q 288 541 330 587 q 222 411 247 494 q 198 241 198 328 m 20 211 q 66 436 20 332 q 193 597 112 540 q 376 654 274 654 q 658 626 487 654 l 541 -24 q 432 -230 515 -164 q 199 -296 349 -296 q 74 -282 136 -296 q -26 -248 11 -269 l -11 -76 l 27 -76 l 52 -165 q 115 -206 76 -190 q 200 -222 153 -222 q 276 -205 245 -222 q 325 -154 307 -188 q 356 -51 344 -121 q 388 98 372 49 q 295 15 347 45 q 195 -16 244 -16 q 68 45 116 -16 q 20 211 20 106 m 408 760 q 340 787 368 760 q 313 859 313 814 q 380 993 313 939 q 572 1065 448 1046 l 564 1019 q 476 984 505 1004 q 446 935 446 964 q 455 911 446 922 q 475 890 465 901 q 495 866 486 880 q 504 833 504 852 q 478 781 504 802 q 408 760 452 760 z "},"Ĥ":{"ha":1080,"x_min":-10,"x_max":1116,"o":"m -10 0 l -1 50 l 118 68 l 254 842 l 141 860 l 150 909 l 583 909 l 574 860 l 454 842 l 395 505 l 726 505 l 785 842 l 672 860 l 681 909 l 1116 909 l 1107 860 l 986 842 l 850 68 l 964 50 l 955 0 l 520 0 l 529 50 l 649 68 l 713 431 l 382 431 l 318 68 l 431 50 l 422 0 l -10 0 m 426 985 l 430 1007 l 612 1206 l 757 1206 l 869 1007 l 865 985 l 814 985 l 665 1095 l 477 985 l 426 985 z "},"ĥ":{"ha":772,"x_min":27,"x_max":715,"o":"m 296 522 q 555 654 400 654 q 661 618 621 654 q 701 519 701 582 q 689 421 701 484 l 625 61 l 703 45 l 694 0 l 433 0 l 502 386 q 517 492 517 465 q 455 557 517 557 q 359 510 412 557 q 279 403 305 463 l 208 0 l 27 0 l 186 903 l 124 919 l 132 964 l 379 964 l 322 650 l 300 541 l 296 522 m 272 1019 l 276 1041 l 458 1240 l 603 1240 l 715 1041 l 711 1019 l 660 1019 l 511 1128 l 323 1019 l 272 1019 z "},"Ħ":{"ha":1080,"x_min":-9,"x_max":1116,"o":"m -9 0 l -1 50 l 119 68 l 221 646 l 104 646 l 117 720 l 233 720 l 255 842 l 142 860 l 151 909 l 584 909 l 575 860 l 455 842 l 433 720 l 764 720 l 785 842 l 672 860 l 681 909 l 1116 909 l 1107 860 l 986 842 l 964 720 l 1082 720 l 1069 646 l 952 646 l 850 68 l 964 50 l 955 0 l 520 0 l 529 50 l 649 68 l 713 431 l 382 431 l 319 68 l 432 50 l 423 0 l -9 0 m 726 505 l 751 646 l 421 646 l 396 505 l 726 505 z "},"ħ":{"ha":772,"x_min":27,"x_max":703,"o":"m 352 815 l 525 815 l 511 745 l 339 745 l 310 576 l 299 522 q 555 654 404 654 q 662 617 623 654 q 701 511 701 581 q 689 422 701 486 l 625 61 l 703 45 l 694 0 l 433 0 l 502 386 q 517 492 517 465 q 455 557 517 557 q 359 510 412 557 q 279 403 305 463 l 208 0 l 27 0 l 158 745 l 60 745 l 74 815 l 170 815 l 186 903 l 124 919 l 132 964 l 379 964 l 352 815 z "},"Ĩ":{"ha":541,"x_min":-14,"x_max":640,"o":"m 315 68 l 428 50 l 419 0 l -14 0 l -5 50 l 115 68 l 251 842 l 138 860 l 146 909 l 580 909 l 571 860 l 451 842 l 315 68 m 456 966 q 334 1025 399 966 q 278 1056 300 1056 q 238 1038 252 1056 q 211 978 224 1021 l 144 978 q 326 1173 189 1173 q 391 1156 362 1173 q 450 1114 419 1140 q 505 1084 486 1084 q 545 1101 530 1084 q 572 1160 559 1118 l 640 1160 q 568 1011 614 1057 q 456 966 523 966 z "},"ĩ":{"ha":386,"x_min":18,"x_max":514,"o":"m 225 61 l 306 45 l 298 0 l 32 0 l 134 576 l 72 593 l 79 637 l 327 637 l 225 61 m 331 739 q 208 799 273 739 q 153 829 175 829 q 113 812 127 829 q 85 751 98 794 l 18 751 q 201 946 64 946 q 265 930 237 946 q 325 888 294 913 q 380 857 360 857 q 419 874 405 857 q 447 933 433 892 l 514 933 q 443 785 488 830 q 331 739 397 739 z "},"Ī":{"ha":541,"x_min":-14,"x_max":619,"o":"m 315 68 l 428 50 l 419 0 l -14 0 l -5 50 l 115 68 l 251 842 l 138 860 l 146 909 l 580 909 l 571 860 l 451 842 l 315 68 m 176 1053 l 193 1154 l 619 1154 l 602 1053 l 176 1053 z "},"ī":{"ha":386,"x_min":26,"x_max":470,"o":"m 225 61 l 306 45 l 298 0 l 32 0 l 134 576 l 72 593 l 79 637 l 327 637 l 225 61 m 26 781 l 44 882 l 470 882 l 452 781 l 26 781 z "},"Ĭ":{"ha":541,"x_min":-14,"x_max":627,"o":"m 315 68 l 428 50 l 419 0 l -14 0 l -5 50 l 115 68 l 251 842 l 138 860 l 146 909 l 580 909 l 571 860 l 451 842 l 315 68 m 385 1030 q 259 1073 303 1030 q 215 1196 215 1115 q 219 1249 215 1221 l 301 1249 q 408 1160 306 1160 q 545 1249 509 1160 l 627 1249 q 543 1087 606 1145 q 385 1030 479 1030 z "},"ĭ":{"ha":386,"x_min":32,"x_max":478,"o":"m 225 61 l 306 45 l 298 0 l 32 0 l 134 576 l 72 593 l 79 637 l 327 637 l 225 61 m 235 758 q 110 801 154 758 q 66 924 66 843 q 70 977 66 949 l 152 977 q 258 888 157 888 q 396 977 360 888 l 478 977 q 394 815 457 873 q 235 758 330 758 z "},"Į":{"ha":541,"x_min":-14,"x_max":580,"o":"m 315 68 l 428 50 l 419 0 l -14 0 l -5 50 l 115 68 l 251 842 l 138 860 l 146 909 l 580 909 l 571 860 l 451 842 l 315 68 m 235 -292 q 121 -257 161 -292 q 82 -155 82 -222 q 106 -63 82 -110 q 169 9 130 -17 l 258 9 q 222 -64 237 -24 q 208 -140 208 -104 q 279 -217 208 -217 q 353 -199 314 -217 l 374 -256 q 235 -292 311 -292 z "},"į":{"ha":386,"x_min":-38,"x_max":380,"o":"m 229 61 l 309 45 l 302 0 l 35 0 l 137 576 l 75 593 l 83 637 l 330 637 l 229 61 m 172 860 q 202 934 172 904 q 276 964 233 964 q 350 933 319 964 q 380 860 380 903 q 350 786 380 817 q 276 755 320 755 q 202 786 233 755 q 172 860 172 816 m 115 -292 q 1 -257 41 -292 q -38 -155 -38 -222 q -14 -63 -38 -110 q 49 9 10 -17 l 138 9 q 102 -64 117 -24 q 88 -140 88 -104 q 159 -217 88 -217 q 233 -199 194 -217 l 254 -256 q 115 -292 191 -292 z "},"İ":{"ha":541,"x_min":-14,"x_max":580,"o":"m 315 68 l 428 50 l 419 0 l -14 0 l -5 50 l 115 68 l 251 842 l 138 860 l 146 909 l 580 909 l 571 860 l 451 842 l 315 68 m 294 1102 q 325 1176 294 1146 q 398 1206 355 1206 q 472 1176 441 1206 q 502 1102 502 1145 q 472 1028 502 1059 q 398 998 442 998 q 324 1028 355 998 q 294 1102 294 1058 z "},"ı":{"ha":386,"x_min":32,"x_max":327,"o":"m 225 61 l 306 45 l 298 0 l 32 0 l 134 576 l 72 593 l 79 637 l 327 637 l 225 61 z "},"Ĳ":{"ha":1143,"x_min":-14,"x_max":1182,"o":"m 315 68 l 428 50 l 419 0 l -14 0 l -5 50 l 115 68 l 251 842 l 138 860 l 146 909 l 580 909 l 571 860 l 451 842 l 315 68 m 867 842 l 753 860 l 762 909 l 1182 909 l 1173 860 l 1067 842 l 970 293 q 854 66 945 146 q 616 -14 764 -14 q 448 7 513 -14 l 485 213 l 541 213 l 544 92 q 621 58 566 58 q 706 93 671 58 q 751 187 741 127 l 867 842 z "},"ĳ":{"ha":767,"x_min":35,"x_max":763,"o":"m 229 61 l 309 45 l 302 0 l 35 0 l 137 576 l 75 593 l 83 637 l 330 637 l 229 61 m 172 860 q 202 934 172 904 q 276 964 233 964 q 350 933 319 964 q 380 860 380 903 q 350 786 380 817 q 276 755 320 755 q 202 786 233 755 q 172 860 172 816 m 305 -296 q 191 -283 245 -296 l 218 -131 l 260 -131 l 277 -211 q 307 -221 290 -221 q 369 -176 342 -221 q 409 -48 395 -130 l 518 570 l 410 593 l 417 637 l 712 637 l 595 -26 q 498 -228 572 -159 q 305 -296 425 -296 m 555 860 q 586 934 555 904 q 659 964 616 964 q 733 933 703 964 q 763 860 763 903 q 733 786 763 817 q 659 755 703 755 q 585 786 616 755 q 555 860 555 816 z "},"Ĵ":{"ha":694,"x_min":-3,"x_max":758,"o":"m 416 842 l 302 860 l 311 909 l 731 909 l 722 860 l 616 842 l 519 293 q 403 66 494 146 q 165 -14 313 -14 q -3 7 62 -14 l 34 213 l 90 213 l 93 92 q 170 58 115 58 q 255 93 220 58 q 300 187 290 127 l 416 842 m 315 985 l 319 1007 l 501 1206 l 646 1206 l 758 1007 l 754 985 l 703 985 l 553 1095 l 366 985 l 315 985 z "},"ĵ":{"ha":386,"x_min":-182,"x_max":467,"o":"m -68 -296 q -182 -283 -128 -296 l -155 -131 l -113 -131 l -97 -208 q -66 -221 -84 -221 q -4 -176 -31 -221 q 36 -48 22 -130 l 145 570 l 37 593 l 44 637 l 339 637 l 222 -26 q 125 -228 199 -159 q -68 -296 52 -296 m 23 758 l 27 781 l 210 979 l 354 979 l 467 781 l 463 758 l 411 758 l 262 868 l 75 758 l 23 758 z "},"Ķ":{"ha":926,"x_min":-10,"x_max":1004,"o":"m 318 68 l 439 50 l 431 0 l -10 0 l -2 50 l 118 68 l 254 842 l 141 860 l 150 909 l 576 909 l 568 860 l 454 842 l 393 487 l 783 842 l 707 860 l 715 909 l 1004 909 l 995 860 l 901 842 l 580 551 l 819 68 l 910 50 l 902 0 l 640 0 l 439 431 l 376 401 l 318 68 m 477 -49 q 545 -76 517 -49 q 572 -148 572 -103 q 505 -282 572 -229 q 313 -355 438 -336 l 321 -308 q 439 -224 439 -281 q 430 -201 439 -211 q 410 -180 420 -191 q 390 -156 399 -169 q 381 -123 381 -142 q 407 -69 381 -90 q 477 -49 433 -49 z "},"ķ":{"ha":694,"x_min":19,"x_max":684,"o":"m 263 344 l 501 577 l 443 593 l 450 637 l 684 637 l 676 593 l 614 578 l 449 426 l 600 61 l 654 45 l 646 0 l 433 0 l 321 307 l 248 260 l 201 0 l 19 0 l 178 903 l 116 919 l 124 964 l 372 964 l 263 344 m 320 -49 q 388 -76 361 -49 q 415 -148 415 -103 q 348 -282 415 -229 q 156 -355 281 -336 l 165 -308 q 282 -224 282 -281 q 273 -201 282 -211 q 253 -180 264 -191 q 234 -156 243 -169 q 224 -123 224 -142 q 251 -69 224 -90 q 320 -49 277 -49 z "},"ĸ":{"ha":694,"x_min":19,"x_max":684,"o":"m 259 323 l 501 577 l 443 593 l 450 637 l 684 637 l 676 593 l 614 578 l 445 405 l 606 61 l 661 45 l 653 0 l 433 0 l 314 285 l 243 240 l 201 0 l 19 0 l 121 576 l 59 593 l 67 637 l 315 637 l 259 323 z "},"Ĺ":{"ha":848,"x_min":-10,"x_max":786,"o":"m 319 72 l 395 72 q 542 76 460 72 q 650 85 624 81 l 729 275 l 786 275 l 726 0 l -10 0 l -2 50 l 118 68 l 254 842 l 142 860 l 151 909 l 600 909 l 591 860 l 454 842 l 319 72 m 309 985 l 313 1007 l 446 1192 l 640 1192 l 637 1166 l 368 985 l 309 985 z "},"ĺ":{"ha":386,"x_min":31,"x_max":541,"o":"m 224 61 l 304 45 l 297 0 l 31 0 l 191 903 l 129 919 l 136 964 l 384 964 l 224 61 m 211 1019 l 215 1041 l 348 1225 l 541 1225 l 538 1200 l 269 1019 l 211 1019 z "},"Ļ":{"ha":848,"x_min":-10,"x_max":786,"o":"m 319 72 l 395 72 q 542 76 460 72 q 650 85 624 81 l 729 275 l 786 275 l 726 0 l -10 0 l -2 50 l 118 68 l 254 842 l 142 860 l 151 909 l 600 909 l 591 860 l 454 842 l 319 72 m 374 -49 q 442 -76 415 -49 q 469 -148 469 -103 q 402 -282 469 -229 q 210 -355 336 -336 l 219 -308 q 336 -224 336 -281 q 327 -201 336 -211 q 308 -180 318 -191 q 288 -156 297 -169 q 279 -123 279 -142 q 305 -69 279 -90 q 374 -49 331 -49 z "},"ļ":{"ha":386,"x_min":-45,"x_max":384,"o":"m 224 61 l 304 45 l 297 0 l 31 0 l 191 903 l 129 919 l 136 964 l 384 964 l 224 61 m 119 -49 q 187 -76 160 -49 q 214 -148 214 -103 q 148 -282 214 -229 q -45 -355 81 -336 l -36 -308 q 81 -224 81 -281 q 72 -201 81 -211 q 53 -180 63 -191 q 33 -156 42 -169 q 24 -123 24 -142 q 50 -69 24 -90 q 119 -49 76 -49 z "},"Ľ":{"ha":848,"x_min":-10,"x_max":904,"o":"m 319 72 l 395 72 q 542 76 460 72 q 650 85 624 81 l 729 275 l 786 275 l 726 0 l -10 0 l -2 50 l 118 68 l 254 842 l 142 860 l 151 909 l 600 909 l 591 860 l 454 842 l 319 72 m 799 924 q 876 896 847 924 q 904 821 904 869 q 830 665 904 731 q 610 563 757 599 l 621 617 q 725 664 686 633 q 764 726 764 694 q 753 755 764 743 q 729 779 742 767 q 705 804 715 790 q 694 840 694 819 q 722 902 694 880 q 799 924 749 924 z "},"ľ":{"ha":724,"x_min":31,"x_max":728,"o":"m 224 61 l 304 45 l 297 0 l 31 0 l 191 903 l 129 919 l 136 964 l 384 964 l 224 61 m 623 964 q 699 936 671 964 q 728 861 728 909 q 654 705 728 771 q 434 603 581 639 l 444 657 q 548 704 509 673 q 587 766 587 734 q 576 795 587 783 q 552 819 566 807 q 528 844 539 830 q 517 880 517 859 q 545 942 517 920 q 623 964 573 964 z "},"Ŀ":{"ha":848,"x_min":-10,"x_max":786,"o":"m 319 72 l 395 72 q 542 76 460 72 q 650 85 624 81 l 729 275 l 786 275 l 726 0 l -10 0 l -2 50 l 118 68 l 254 842 l 142 860 l 151 909 l 600 909 l 591 860 l 454 842 l 319 72 m 519 484 q 550 558 519 528 q 623 588 581 588 q 697 558 667 588 q 727 484 727 528 q 697 411 727 441 q 623 380 667 380 q 549 410 580 380 q 519 484 519 440 z "},"ŀ":{"ha":521,"x_min":31,"x_max":572,"o":"m 224 61 l 304 45 l 297 0 l 31 0 l 191 903 l 129 919 l 136 964 l 384 964 l 224 61 m 363 484 q 394 558 363 528 q 468 588 425 588 q 542 558 511 588 q 572 484 572 528 q 542 411 572 441 q 468 380 512 380 q 394 410 425 380 q 363 484 363 440 z "},"Ł":{"ha":848,"x_min":-10,"x_max":786,"o":"m 403 550 l 581 645 l 565 554 l 387 461 l 319 72 l 395 72 q 544 76 464 72 q 650 85 625 81 l 729 275 l 786 275 l 726 0 l -10 0 l -2 50 l 118 68 l 166 340 l 41 273 l 58 365 l 182 431 l 254 842 l 142 860 l 151 909 l 600 909 l 591 860 l 454 842 l 403 550 z "},"ł":{"ha":386,"x_min":-8,"x_max":396,"o":"m 185 903 l 123 919 l 131 964 l 378 964 l 300 522 l 396 572 l 381 488 l 286 437 l 219 61 l 286 45 l 279 0 l 25 0 l 83 324 l -8 276 l 7 361 l 98 409 l 185 903 z "},"Ń":{"ha":1003,"x_min":-13,"x_max":1044,"o":"m 831 842 l 712 860 l 721 909 l 1044 909 l 1036 860 l 916 842 l 768 0 l 690 0 l 323 754 l 200 68 l 319 50 l 311 0 l -13 0 l -5 50 l 115 68 l 252 842 l 138 860 l 147 909 l 441 909 l 736 303 l 831 842 m 507 985 l 511 1007 l 644 1192 l 838 1192 l 835 1166 l 566 985 l 507 985 z "},"ń":{"ha":772,"x_min":28,"x_max":718,"o":"m 518 492 q 456 557 518 557 q 360 510 414 557 q 281 403 307 463 l 209 0 l 28 0 l 129 576 l 68 593 l 77 637 l 304 637 l 298 519 q 556 654 404 654 q 663 618 623 654 q 702 517 702 583 q 685 393 702 482 l 626 61 l 705 45 l 696 0 l 434 0 l 503 386 q 518 492 518 465 m 388 758 l 392 781 l 525 965 l 718 965 l 715 940 l 446 758 l 388 758 z "},"Ņ":{"ha":1003,"x_min":-13,"x_max":1044,"o":"m 831 842 l 712 860 l 721 909 l 1044 909 l 1036 860 l 916 842 l 768 0 l 690 0 l 323 754 l 200 68 l 319 50 l 311 0 l -13 0 l -5 50 l 115 68 l 252 842 l 138 860 l 147 909 l 441 909 l 736 303 l 831 842 m 426 -49 q 494 -76 467 -49 q 521 -148 521 -103 q 454 -282 521 -229 q 262 -355 387 -336 l 271 -308 q 388 -224 388 -281 q 379 -201 388 -211 q 359 -180 370 -191 q 339 -156 349 -169 q 330 -123 330 -142 q 356 -69 330 -90 q 426 -49 382 -49 z "},"ņ":{"ha":772,"x_min":28,"x_max":705,"o":"m 518 492 q 456 557 518 557 q 360 510 414 557 q 281 403 307 463 l 209 0 l 28 0 l 129 576 l 68 593 l 77 637 l 304 637 l 298 519 q 556 654 404 654 q 663 618 623 654 q 702 517 702 583 q 685 393 702 482 l 626 61 l 705 45 l 696 0 l 434 0 l 503 386 q 518 492 518 465 m 310 -49 q 378 -76 351 -49 q 405 -148 405 -103 q 338 -282 405 -229 q 146 -355 271 -336 l 155 -308 q 272 -224 272 -281 q 263 -201 272 -211 q 243 -180 254 -191 q 223 -156 233 -169 q 214 -123 214 -142 q 240 -69 214 -90 q 310 -49 267 -49 z "},"Ň":{"ha":1003,"x_min":-13,"x_max":1044,"o":"m 831 842 l 712 860 l 721 909 l 1044 909 l 1036 860 l 916 842 l 768 0 l 690 0 l 323 754 l 200 68 l 319 50 l 311 0 l -13 0 l -5 50 l 115 68 l 252 842 l 138 860 l 147 909 l 441 909 l 736 303 l 831 842 m 858 1206 l 854 1183 l 671 985 l 527 985 l 414 1183 l 418 1206 l 470 1206 l 619 1096 l 806 1206 l 858 1206 z "},"ň":{"ha":772,"x_min":28,"x_max":713,"o":"m 518 492 q 456 557 518 557 q 360 510 414 557 q 281 403 307 463 l 209 0 l 28 0 l 129 576 l 68 593 l 77 637 l 304 637 l 298 519 q 556 654 404 654 q 663 618 623 654 q 702 517 702 583 q 685 393 702 482 l 626 61 l 705 45 l 696 0 l 434 0 l 503 386 q 518 492 518 465 m 713 979 l 709 957 l 526 758 l 382 758 l 269 957 l 273 979 l 325 979 l 474 869 l 661 979 l 713 979 z "},"ŉ":{"ha":998,"x_min":20,"x_max":930,"o":"m 744 492 q 682 557 744 557 q 586 510 640 557 q 507 403 532 463 l 435 0 l 254 0 l 355 576 l 294 593 l 303 637 l 530 637 l 524 519 q 782 654 629 654 q 888 618 849 654 q 928 517 928 583 q 911 393 928 482 l 852 61 l 930 45 l 922 0 l 660 0 l 729 386 q 744 492 744 465 m 282 791 q 215 611 282 684 q 20 504 148 537 l 20 566 q 85 597 58 576 q 128 644 113 618 q 143 692 143 669 q 133 719 143 707 q 96 747 123 730 q 47 833 47 777 q 78 900 47 877 q 155 923 109 923 q 247 886 212 923 q 282 791 282 850 z "},"Ŋ":{"ha":1088,"x_min":-11,"x_max":1007,"o":"m 609 -14 q 450 7 508 -14 l 482 193 l 543 193 l 546 81 q 612 58 570 58 q 718 191 694 58 l 793 623 q 806 713 806 688 q 688 826 806 826 q 438 755 587 826 l 317 68 l 384 58 l 374 0 l -11 0 l -2 50 l 117 68 l 253 842 l 140 860 l 149 909 l 456 909 l 451 827 q 615 895 541 873 q 762 916 690 916 q 945 871 882 916 q 1007 727 1007 826 q 993 614 1007 705 l 936 293 q 831 63 909 140 q 609 -14 753 -14 z "},"ŋ":{"ha":751,"x_min":28,"x_max":702,"o":"m 456 557 q 360 510 414 557 q 281 403 307 463 l 209 0 l 28 0 l 129 576 l 68 593 l 77 637 l 304 637 l 298 519 q 556 654 404 654 q 663 617 625 654 q 702 511 702 581 q 690 422 702 486 l 612 -26 q 516 -226 590 -157 q 322 -296 443 -296 q 208 -283 262 -296 l 235 -131 l 277 -131 l 293 -208 q 324 -221 306 -221 q 386 -176 359 -221 q 426 -48 412 -130 l 503 386 q 518 492 518 465 q 456 557 518 557 z "},"Ō":{"ha":1003,"x_min":50,"x_max":964,"o":"m 760 572 q 708 774 760 701 q 564 848 656 848 q 412 781 481 848 q 298 584 342 713 q 254 329 254 456 q 304 129 254 201 q 446 56 355 56 q 600 123 530 56 q 715 317 670 191 q 760 572 760 443 m 433 -14 q 234 33 321 -14 q 98 164 146 79 q 50 355 50 248 q 117 649 50 519 q 303 849 183 779 q 581 920 424 920 q 780 873 693 920 q 916 742 867 827 q 964 551 964 658 q 896 255 964 388 q 709 54 827 121 q 433 -14 591 -14 m 392 1007 l 410 1109 l 836 1109 l 818 1007 l 392 1007 z "},"ō":{"ha":694,"x_min":22,"x_max":647,"o":"m 463 424 q 378 587 463 587 q 294 536 336 587 q 227 397 252 484 q 201 216 201 311 q 227 96 201 138 q 291 54 252 54 q 375 104 334 54 q 439 239 416 154 q 463 424 463 325 m 275 -14 q 91 59 160 -14 q 22 254 22 132 q 69 456 22 363 q 202 601 117 548 q 393 654 287 654 q 578 582 509 654 q 647 387 647 509 q 600 185 647 277 q 467 40 552 93 q 275 -14 382 -14 m 202 781 l 220 882 l 646 882 l 628 781 l 202 781 z "},"Ŏ":{"ha":1003,"x_min":50,"x_max":964,"o":"m 760 572 q 708 774 760 701 q 564 848 656 848 q 412 781 481 848 q 298 584 342 713 q 254 329 254 456 q 304 129 254 201 q 446 56 355 56 q 600 123 530 56 q 715 317 670 191 q 760 572 760 443 m 433 -14 q 234 33 321 -14 q 98 164 146 79 q 50 355 50 248 q 117 649 50 519 q 303 849 183 779 q 581 920 424 920 q 780 873 693 920 q 916 742 867 827 q 964 551 964 658 q 896 255 964 388 q 709 54 827 121 q 433 -14 591 -14 m 600 985 q 475 1027 519 985 q 431 1151 431 1069 q 435 1204 431 1176 l 517 1204 q 623 1115 522 1115 q 761 1204 725 1115 l 843 1204 q 759 1042 822 1099 q 600 985 695 985 z "},"ŏ":{"ha":694,"x_min":22,"x_max":654,"o":"m 463 424 q 378 587 463 587 q 294 536 336 587 q 227 397 252 484 q 201 216 201 311 q 227 96 201 138 q 291 54 252 54 q 375 104 334 54 q 439 239 416 154 q 463 424 463 325 m 275 -14 q 91 59 160 -14 q 22 254 22 132 q 69 456 22 363 q 202 601 117 548 q 393 654 287 654 q 578 582 509 654 q 647 387 647 509 q 600 185 647 277 q 467 40 552 93 q 275 -14 382 -14 m 411 758 q 286 801 330 758 q 241 924 241 843 q 245 977 241 949 l 328 977 q 434 888 332 888 q 572 977 536 888 l 654 977 q 569 815 633 873 q 411 758 506 758 z "},"Ő":{"ha":1003,"x_min":50,"x_max":964,"o":"m 760 572 q 708 774 760 701 q 564 848 656 848 q 412 781 481 848 q 298 584 342 713 q 254 329 254 456 q 304 129 254 201 q 446 56 355 56 q 600 123 530 56 q 715 317 670 191 q 760 572 760 443 m 433 -14 q 234 33 321 -14 q 98 164 146 79 q 50 355 50 248 q 117 649 50 519 q 303 849 183 779 q 581 920 424 920 q 780 873 693 920 q 916 742 867 827 q 964 551 964 658 q 896 255 964 388 q 709 54 827 121 q 433 -14 591 -14 m 423 985 l 427 1007 l 556 1206 l 726 1206 l 722 1181 l 489 985 l 423 985 m 661 985 l 665 1007 l 793 1206 l 964 1206 l 960 1181 l 726 985 l 661 985 z "},"ő":{"ha":694,"x_min":22,"x_max":766,"o":"m 463 424 q 378 587 463 587 q 294 536 336 587 q 227 397 252 484 q 201 216 201 311 q 227 96 201 138 q 291 54 252 54 q 375 104 334 54 q 439 239 416 154 q 463 424 463 325 m 275 -14 q 91 59 160 -14 q 22 254 22 132 q 69 456 22 363 q 202 601 117 548 q 393 654 287 654 q 578 582 509 654 q 647 387 647 509 q 600 185 647 277 q 467 40 552 93 q 275 -14 382 -14 m 225 758 l 229 781 l 358 979 l 528 979 l 524 954 l 291 758 l 225 758 m 463 758 l 467 781 l 595 979 l 766 979 l 762 954 l 528 758 l 463 758 z "},"Œ":{"ha":1311,"x_min":48,"x_max":1253,"o":"m 431 -5 q 154 94 259 -5 q 48 355 48 193 q 113 645 48 517 q 298 844 178 773 q 578 915 418 915 q 715 909 640 915 l 1253 909 l 1212 678 l 1150 678 l 1154 825 q 928 835 1080 835 l 889 835 l 830 501 l 975 501 l 1013 602 l 1074 602 l 1024 322 l 964 322 l 961 425 l 817 425 l 755 75 l 825 75 q 1064 85 1006 75 l 1132 254 l 1194 254 l 1137 0 l 543 0 q 431 -5 461 -5 m 444 63 q 555 79 509 63 l 687 827 q 618 843 644 840 q 569 846 593 846 q 411 779 482 846 q 296 584 340 711 q 252 329 252 456 q 302 133 252 203 q 444 63 351 63 z "},"œ":{"ha":1003,"x_min":31,"x_max":974,"o":"m 974 515 q 929 403 974 454 q 800 318 884 351 q 608 277 715 285 q 605 231 605 263 q 728 71 605 71 q 821 90 778 71 q 901 134 863 109 l 930 92 q 805 15 873 43 q 674 -14 737 -14 q 479 73 536 -14 q 265 -14 393 -14 q 31 217 31 -14 q 72 440 31 333 q 193 601 114 547 q 389 654 272 654 q 568 565 515 654 q 770 654 655 654 q 922 618 869 654 q 974 515 974 581 m 448 472 q 430 558 448 530 q 372 586 412 586 q 289 535 321 586 q 233 360 257 484 q 208 164 208 237 q 224 82 208 109 q 279 54 240 54 q 365 108 331 54 q 424 283 399 161 q 448 472 448 404 m 619 345 q 755 405 702 353 q 808 524 808 456 q 794 567 808 553 q 762 581 781 581 q 674 512 715 581 q 619 345 634 443 z "},"Ŕ":{"ha":926,"x_min":-2,"x_max":873,"o":"m 374 385 l 318 68 l 431 50 l 423 0 l -2 0 l 6 50 l 117 68 l 254 842 l 140 860 l 149 909 l 512 909 q 775 853 690 909 q 861 680 861 797 q 803 504 861 574 q 637 404 746 433 l 774 68 l 873 50 l 865 0 l 594 0 l 453 385 l 374 385 m 425 460 q 599 515 536 460 q 662 669 662 570 q 621 796 662 758 q 500 835 580 835 l 454 835 l 387 460 l 425 460 m 437 985 l 441 1007 l 574 1192 l 767 1192 l 764 1166 l 495 985 l 437 985 z "},"ŕ":{"ha":541,"x_min":28,"x_max":604,"o":"m 297 500 q 388 614 334 573 q 494 654 441 654 q 551 648 527 654 l 511 419 l 474 419 l 444 512 q 355 486 393 512 q 282 404 317 460 l 211 0 l 28 0 l 130 576 l 51 593 l 58 637 l 313 637 l 297 500 m 274 758 l 278 781 l 411 965 l 604 965 l 602 940 l 332 758 l 274 758 z "},"Ŗ":{"ha":926,"x_min":-2,"x_max":873,"o":"m 374 385 l 318 68 l 431 50 l 423 0 l -2 0 l 6 50 l 117 68 l 254 842 l 140 860 l 149 909 l 512 909 q 775 853 690 909 q 861 680 861 797 q 803 504 861 574 q 637 404 746 433 l 774 68 l 873 50 l 865 0 l 594 0 l 453 385 l 374 385 m 425 460 q 599 515 536 460 q 662 669 662 570 q 621 796 662 758 q 500 835 580 835 l 454 835 l 387 460 l 425 460 m 422 -49 q 490 -76 463 -49 q 517 -148 517 -103 q 451 -282 517 -229 q 258 -355 384 -336 l 267 -308 q 385 -224 385 -281 q 375 -201 385 -211 q 356 -180 366 -191 q 336 -156 345 -169 q 327 -123 327 -142 q 353 -69 327 -90 q 422 -49 379 -49 z "},"ŗ":{"ha":541,"x_min":-60,"x_max":551,"o":"m 297 500 q 388 614 334 573 q 494 654 441 654 q 551 648 527 654 l 511 419 l 474 419 l 444 512 q 355 486 393 512 q 282 404 317 460 l 211 0 l 28 0 l 130 576 l 51 593 l 58 637 l 313 637 l 297 500 m 104 -49 q 172 -76 145 -49 q 199 -148 199 -103 q 133 -282 199 -229 q -60 -355 66 -336 l -51 -308 q 66 -224 66 -281 q 57 -201 66 -211 q 38 -180 48 -191 q 18 -156 27 -169 q 9 -123 9 -142 q 35 -69 9 -90 q 104 -49 61 -49 z "},"Ř":{"ha":926,"x_min":-2,"x_max":873,"o":"m 374 385 l 318 68 l 431 50 l 423 0 l -2 0 l 6 50 l 117 68 l 254 842 l 140 860 l 149 909 l 512 909 q 775 853 690 909 q 861 680 861 797 q 803 504 861 574 q 637 404 746 433 l 774 68 l 873 50 l 865 0 l 594 0 l 453 385 l 374 385 m 425 460 q 599 515 536 460 q 662 669 662 570 q 621 796 662 758 q 500 835 580 835 l 454 835 l 387 460 l 425 460 m 798 1206 l 794 1183 l 612 985 l 467 985 l 355 1183 l 359 1206 l 410 1206 l 559 1096 l 747 1206 l 798 1206 z "},"ř":{"ha":541,"x_min":28,"x_max":601,"o":"m 297 500 q 388 614 334 573 q 494 654 441 654 q 551 648 527 654 l 511 419 l 474 419 l 444 512 q 355 486 393 512 q 282 404 317 460 l 211 0 l 28 0 l 130 576 l 51 593 l 58 637 l 313 637 l 297 500 m 601 979 l 597 957 l 414 758 l 270 758 l 157 957 l 161 979 l 213 979 l 362 869 l 549 979 l 601 979 z "},"Ś":{"ha":772,"x_min":25,"x_max":725,"o":"m 293 -14 q 25 35 146 -14 l 68 279 l 128 279 l 129 133 q 201 77 152 100 q 304 55 250 55 q 457 96 404 55 q 511 211 511 138 q 494 275 511 248 q 451 324 478 302 q 391 365 425 346 q 321 405 357 385 q 252 448 286 425 q 191 502 218 471 q 148 572 164 532 q 132 664 132 611 q 222 854 132 789 q 486 920 313 920 q 714 890 602 920 l 676 674 l 616 674 l 611 807 q 468 849 556 849 q 348 816 391 849 q 304 725 304 783 q 333 650 304 684 q 425 581 363 616 q 556 504 516 530 q 625 446 597 477 q 669 377 652 416 q 686 287 686 338 q 585 63 686 140 q 293 -14 484 -14 m 395 985 l 399 1007 l 532 1192 l 725 1192 l 722 1166 l 453 985 l 395 985 z "},"ś":{"ha":541,"x_min":-7,"x_max":576,"o":"m 470 201 q 401 42 470 98 q 194 -14 332 -14 q 82 -2 142 -14 q -7 23 22 10 l 24 200 l 68 200 l 79 111 q 199 50 122 50 q 288 79 254 50 q 321 153 321 109 q 303 201 321 179 q 247 245 285 223 l 202 271 q 96 358 127 313 q 64 461 64 404 q 320 654 64 654 q 498 633 400 654 l 469 469 l 424 469 l 415 544 q 373 576 401 562 q 311 591 345 591 q 235 568 259 591 q 211 507 211 545 q 231 458 211 481 q 319 397 251 435 q 411 335 383 361 q 455 277 439 309 q 470 201 470 245 m 245 758 l 250 781 l 382 965 l 576 965 l 573 940 l 304 758 l 245 758 z "},"Ŝ":{"ha":772,"x_min":25,"x_max":714,"o":"m 293 -14 q 25 35 146 -14 l 68 279 l 128 279 l 129 133 q 201 77 152 100 q 304 55 250 55 q 457 96 404 55 q 511 211 511 138 q 494 275 511 248 q 451 324 478 302 q 391 365 425 346 q 321 405 357 385 q 252 448 286 425 q 191 502 218 471 q 148 572 164 532 q 132 664 132 611 q 222 854 132 789 q 486 920 313 920 q 714 890 602 920 l 676 674 l 616 674 l 611 807 q 468 849 556 849 q 348 816 391 849 q 304 725 304 783 q 333 650 304 684 q 425 581 363 616 q 556 504 516 530 q 625 446 597 477 q 669 377 652 416 q 686 287 686 338 q 585 63 686 140 q 293 -14 484 -14 m 254 985 l 258 1007 l 440 1206 l 585 1206 l 697 1007 l 693 985 l 642 985 l 492 1095 l 305 985 l 254 985 z "},"ŝ":{"ha":541,"x_min":-7,"x_max":565,"o":"m 470 201 q 401 42 470 98 q 194 -14 332 -14 q 82 -2 142 -14 q -7 23 22 10 l 24 200 l 68 200 l 79 111 q 199 50 122 50 q 288 79 254 50 q 321 153 321 109 q 303 201 321 179 q 247 245 285 223 l 202 271 q 96 358 127 313 q 64 461 64 404 q 320 654 64 654 q 498 633 400 654 l 469 469 l 424 469 l 415 544 q 373 576 401 562 q 311 591 345 591 q 235 568 259 591 q 211 507 211 545 q 231 458 211 481 q 319 397 251 435 q 411 335 383 361 q 455 277 439 309 q 470 201 470 245 m 121 758 l 125 781 l 308 979 l 452 979 l 565 781 l 561 758 l 509 758 l 360 868 l 173 758 l 121 758 z "},"Ş":{"ha":772,"x_min":25,"x_max":714,"o":"m 293 -14 q 25 35 146 -14 l 68 279 l 128 279 l 129 133 q 201 77 152 100 q 304 55 250 55 q 457 96 404 55 q 511 211 511 138 q 494 275 511 248 q 451 324 478 302 q 391 365 425 346 q 321 405 357 385 q 252 448 286 425 q 191 502 218 471 q 148 572 164 532 q 132 664 132 611 q 222 854 132 789 q 486 920 313 920 q 714 890 602 920 l 676 674 l 616 674 l 611 807 q 468 849 556 849 q 348 816 391 849 q 304 725 304 783 q 333 650 304 684 q 425 581 363 616 q 556 504 516 530 q 625 446 597 477 q 669 377 652 416 q 686 287 686 338 q 585 63 686 140 q 293 -14 484 -14 m 252 -293 q 151 -273 198 -293 l 176 -208 q 246 -220 214 -220 q 299 -203 278 -220 q 319 -158 319 -186 q 248 -100 319 -105 l 306 32 l 368 32 l 338 -43 q 423 -78 393 -50 q 453 -146 453 -105 q 396 -253 453 -214 q 252 -293 339 -293 z "},"ş":{"ha":541,"x_min":-7,"x_max":498,"o":"m 470 201 q 401 42 470 98 q 194 -14 332 -14 q 82 -2 142 -14 q -7 23 22 10 l 24 200 l 68 200 l 79 111 q 199 50 122 50 q 288 79 254 50 q 321 153 321 109 q 303 201 321 179 q 247 245 285 223 l 202 271 q 96 358 127 313 q 64 461 64 404 q 320 654 64 654 q 498 633 400 654 l 469 469 l 424 469 l 415 544 q 373 576 401 562 q 311 591 345 591 q 235 568 259 591 q 211 507 211 545 q 231 458 211 481 q 319 397 251 435 q 411 335 383 361 q 455 277 439 309 q 470 201 470 245 m 140 -293 q 39 -273 86 -293 l 64 -208 q 134 -220 102 -220 q 187 -203 166 -220 q 208 -158 208 -186 q 136 -100 208 -105 l 194 32 l 256 32 l 227 -43 q 311 -78 281 -50 q 341 -146 341 -105 q 284 -253 341 -214 q 140 -293 227 -293 z "},"Š":{"ha":772,"x_min":25,"x_max":736,"o":"m 293 -14 q 25 35 146 -14 l 68 279 l 128 279 l 129 133 q 201 77 152 100 q 304 55 250 55 q 457 96 404 55 q 511 211 511 138 q 494 275 511 248 q 451 324 478 302 q 391 365 425 346 q 321 405 357 385 q 252 448 286 425 q 191 502 218 471 q 148 572 164 532 q 132 664 132 611 q 222 854 132 789 q 486 920 313 920 q 714 890 602 920 l 676 674 l 616 674 l 611 807 q 468 849 556 849 q 348 816 391 849 q 304 725 304 783 q 333 650 304 684 q 425 581 363 616 q 556 504 516 530 q 625 446 597 477 q 669 377 652 416 q 686 287 686 338 q 585 63 686 140 q 293 -14 484 -14 m 736 1206 l 732 1183 l 550 985 l 406 985 l 293 1183 l 297 1206 l 349 1206 l 498 1096 l 685 1206 l 736 1206 z "},"š":{"ha":541,"x_min":-7,"x_max":587,"o":"m 470 201 q 401 42 470 98 q 194 -14 332 -14 q 82 -2 142 -14 q -7 23 22 10 l 24 200 l 68 200 l 79 111 q 199 50 122 50 q 288 79 254 50 q 321 153 321 109 q 303 201 321 179 q 247 245 285 223 l 202 271 q 96 358 127 313 q 64 461 64 404 q 320 654 64 654 q 498 633 400 654 l 469 469 l 424 469 l 415 544 q 373 576 401 562 q 311 591 345 591 q 235 568 259 591 q 211 507 211 545 q 231 458 211 481 q 319 397 251 435 q 411 335 383 361 q 455 277 439 309 q 470 201 470 245 m 587 979 l 583 957 l 401 758 l 256 758 l 144 957 l 148 979 l 199 979 l 349 869 l 536 979 l 587 979 z "},"Ţ":{"ha":848,"x_min":101,"x_max":894,"o":"m 113 0 l 121 50 l 269 68 l 405 838 l 363 838 q 278 833 326 838 q 211 824 231 828 l 160 655 l 101 655 l 146 909 l 894 909 l 849 655 l 789 655 l 798 824 q 729 832 779 828 q 646 836 678 836 l 606 836 l 470 68 l 611 50 l 603 0 l 113 0 m 272 -293 q 171 -273 218 -293 l 196 -208 q 266 -220 233 -220 q 318 -203 298 -220 q 339 -158 339 -186 q 267 -100 339 -105 l 326 32 l 387 32 l 358 -43 q 443 -78 412 -50 q 473 -146 473 -105 q 416 -253 473 -214 q 272 -293 359 -293 z "},"ţ":{"ha":386,"x_min":5,"x_max":420,"o":"m 290 72 q 365 90 313 72 l 382 42 q 298 2 349 18 q 201 -14 247 -14 q 86 22 126 -14 q 45 125 45 58 q 58 223 45 157 l 120 567 l 42 567 l 50 611 l 146 637 l 240 782 l 339 782 l 313 637 l 420 637 l 408 567 l 301 567 l 239 222 q 229 140 229 166 q 247 88 229 104 q 290 72 264 72 m 106 -293 q 5 -273 52 -293 l 31 -208 q 100 -220 68 -220 q 153 -203 132 -220 q 174 -158 174 -186 q 102 -100 174 -105 l 160 32 l 222 32 l 193 -43 q 277 -78 247 -50 q 307 -146 307 -105 q 250 -253 307 -214 q 106 -293 193 -293 z "},"Ť":{"ha":848,"x_min":101,"x_max":894,"o":"m 113 0 l 121 50 l 269 68 l 405 838 l 363 838 q 278 833 326 838 q 211 824 231 828 l 160 655 l 101 655 l 146 909 l 894 909 l 849 655 l 789 655 l 798 824 q 729 832 779 828 q 646 836 678 836 l 606 836 l 470 68 l 611 50 l 603 0 l 113 0 m 783 1206 l 779 1183 l 596 985 l 452 985 l 339 1183 l 343 1206 l 395 1206 l 544 1096 l 731 1206 l 783 1206 z "},"ť":{"ha":738,"x_min":42,"x_max":750,"o":"m 290 72 q 365 90 313 72 l 382 42 q 298 2 349 18 q 201 -14 247 -14 q 86 22 126 -14 q 45 125 45 58 q 58 223 45 157 l 120 567 l 42 567 l 50 611 l 146 637 l 240 782 l 339 782 l 313 637 l 420 637 l 408 567 l 301 567 l 239 222 q 229 140 229 166 q 247 88 229 104 q 290 72 264 72 m 645 964 q 722 936 693 964 q 750 861 750 909 q 676 705 750 771 q 456 603 603 639 l 467 657 q 571 704 532 673 q 610 766 610 734 q 599 795 610 783 q 575 819 588 807 q 551 844 562 830 q 540 880 540 859 q 568 942 540 920 q 645 964 595 964 z "},"Ŧ":{"ha":848,"x_min":101,"x_max":894,"o":"m 113 0 l 121 50 l 269 68 l 330 413 l 140 413 l 155 496 l 345 496 l 405 838 l 363 838 q 278 833 326 838 q 211 824 231 828 l 160 655 l 101 655 l 146 909 l 894 909 l 849 655 l 789 655 l 798 824 q 729 832 779 828 q 646 836 678 836 l 606 836 l 545 496 l 736 496 l 722 413 l 531 413 l 470 68 l 611 50 l 603 0 l 113 0 z "},"ŧ":{"ha":386,"x_min":7,"x_max":420,"o":"m 120 567 l 42 567 l 50 611 l 146 637 l 240 782 l 339 782 l 313 637 l 420 637 l 408 567 l 301 567 l 270 394 l 383 394 l 371 323 l 258 323 l 239 222 q 229 140 229 166 q 247 88 229 104 q 290 72 264 72 q 365 90 313 72 l 382 42 q 298 2 349 18 q 201 -14 247 -14 q 86 22 126 -14 q 45 125 45 58 q 48 160 45 141 q 76 323 50 180 l 7 323 l 19 394 l 89 394 l 120 567 z "},"Ũ":{"ha":1003,"x_min":113,"x_max":1063,"o":"m 113 860 l 122 909 l 542 909 l 533 860 l 413 842 l 336 397 q 321 264 321 309 q 502 83 321 83 q 681 142 611 83 q 770 314 750 201 l 863 842 l 745 860 l 753 909 l 1063 909 l 1054 860 l 947 842 l 856 319 q 729 67 825 148 q 467 -13 632 -13 q 212 61 302 -13 q 122 271 122 134 q 136 395 122 314 l 213 842 l 113 860 m 703 966 q 581 1025 646 966 q 525 1056 547 1056 q 485 1038 499 1056 q 458 978 471 1021 l 391 978 q 573 1173 436 1173 q 637 1156 609 1173 q 697 1114 666 1140 q 752 1084 732 1084 q 791 1101 777 1084 q 819 1160 806 1118 l 886 1160 q 815 1011 861 1057 q 703 966 770 966 z "},"ũ":{"ha":772,"x_min":51,"x_max":727,"o":"m 237 146 q 299 81 237 81 q 397 129 342 81 q 475 235 451 178 l 547 637 l 727 637 l 627 62 l 701 45 l 692 0 l 452 0 l 457 119 q 199 -16 352 -16 q 92 21 131 -16 q 54 127 54 58 q 58 171 54 140 q 130 576 62 202 l 51 593 l 60 637 l 321 637 l 252 252 q 237 146 237 174 m 534 739 q 412 799 477 739 q 356 829 378 829 q 316 812 330 829 q 289 751 302 794 l 222 751 q 404 946 267 946 q 469 930 440 946 q 528 888 497 913 q 583 857 564 857 q 623 874 608 857 q 650 933 637 892 l 718 933 q 646 785 692 830 q 534 739 601 739 z "},"Ū":{"ha":1003,"x_min":113,"x_max":1063,"o":"m 113 860 l 122 909 l 542 909 l 533 860 l 413 842 l 336 397 q 321 264 321 309 q 502 83 321 83 q 681 142 611 83 q 770 314 750 201 l 863 842 l 745 860 l 753 909 l 1063 909 l 1054 860 l 947 842 l 856 319 q 729 67 825 148 q 467 -13 632 -13 q 212 61 302 -13 q 122 271 122 134 q 136 395 122 314 l 213 842 l 113 860 m 410 1007 l 428 1109 l 854 1109 l 836 1007 l 410 1007 z "},"ū":{"ha":772,"x_min":51,"x_max":727,"o":"m 237 146 q 299 81 237 81 q 397 129 342 81 q 475 235 451 178 l 547 637 l 727 637 l 627 62 l 701 45 l 692 0 l 452 0 l 457 119 q 199 -16 352 -16 q 92 21 131 -16 q 54 127 54 58 q 58 171 54 140 q 130 576 62 202 l 51 593 l 60 637 l 321 637 l 252 252 q 237 146 237 174 m 246 781 l 264 882 l 690 882 l 672 781 l 246 781 z "},"Ŭ":{"ha":1003,"x_min":113,"x_max":1063,"o":"m 113 860 l 122 909 l 542 909 l 533 860 l 413 842 l 336 397 q 321 264 321 309 q 502 83 321 83 q 681 142 611 83 q 770 314 750 201 l 863 842 l 745 860 l 753 909 l 1063 909 l 1054 860 l 947 842 l 856 319 q 729 67 825 148 q 467 -13 632 -13 q 212 61 302 -13 q 122 271 122 134 q 136 395 122 314 l 213 842 l 113 860 m 604 985 q 478 1027 522 985 q 434 1151 434 1069 q 438 1204 434 1176 l 520 1204 q 627 1115 525 1115 q 764 1204 728 1115 l 846 1204 q 762 1042 825 1099 q 604 985 699 985 z "},"ŭ":{"ha":772,"x_min":51,"x_max":727,"o":"m 237 146 q 299 81 237 81 q 397 129 342 81 q 475 235 451 178 l 547 637 l 727 637 l 627 62 l 701 45 l 692 0 l 452 0 l 457 119 q 199 -16 352 -16 q 92 21 131 -16 q 54 127 54 58 q 58 171 54 140 q 130 576 62 202 l 51 593 l 60 637 l 321 637 l 252 252 q 237 146 237 174 m 455 758 q 330 801 374 758 q 286 924 286 843 q 290 977 286 949 l 372 977 q 478 888 376 888 q 616 977 580 888 l 698 977 q 613 815 677 873 q 455 758 550 758 z "},"Ů":{"ha":1003,"x_min":113,"x_max":1063,"o":"m 113 860 l 122 909 l 542 909 l 533 860 l 413 842 l 336 397 q 321 264 321 309 q 502 83 321 83 q 681 142 611 83 q 770 314 750 201 l 863 842 l 745 860 l 753 909 l 1063 909 l 1054 860 l 947 842 l 856 319 q 729 67 825 148 q 467 -13 632 -13 q 212 61 302 -13 q 122 271 122 134 q 136 395 122 314 l 213 842 l 113 860 m 637 945 q 536 986 578 945 q 494 1089 494 1028 q 536 1191 494 1150 q 637 1232 578 1232 q 739 1191 697 1232 q 781 1089 781 1150 q 739 987 781 1029 q 637 945 697 945 m 637 1156 q 591 1136 611 1156 q 571 1089 571 1116 q 591 1043 571 1063 q 637 1023 611 1023 q 684 1043 664 1023 q 704 1089 704 1063 q 684 1136 704 1116 q 637 1156 663 1156 z "},"ů":{"ha":772,"x_min":51,"x_max":727,"o":"m 237 146 q 299 81 237 81 q 397 129 342 81 q 475 235 451 178 l 547 637 l 727 637 l 627 62 l 701 45 l 692 0 l 452 0 l 457 119 q 199 -16 352 -16 q 92 21 131 -16 q 54 127 54 58 q 58 171 54 140 q 130 576 62 202 l 51 593 l 60 637 l 321 637 l 252 252 q 237 146 237 174 m 473 718 q 372 760 414 718 q 330 863 330 802 q 371 965 330 924 q 473 1006 413 1006 q 574 965 532 1006 q 616 863 616 924 q 574 760 616 802 q 473 718 532 718 m 473 930 q 426 910 446 930 q 406 863 406 890 q 426 816 406 836 q 473 796 446 796 q 519 816 499 796 q 539 863 539 836 q 519 910 539 890 q 473 930 498 930 z "},"Ű":{"ha":1003,"x_min":113,"x_max":1063,"o":"m 113 860 l 122 909 l 542 909 l 533 860 l 413 842 l 336 397 q 321 264 321 309 q 502 83 321 83 q 681 142 611 83 q 770 314 750 201 l 863 842 l 745 860 l 753 909 l 1063 909 l 1054 860 l 947 842 l 856 319 q 729 67 825 148 q 467 -13 632 -13 q 212 61 302 -13 q 122 271 122 134 q 136 395 122 314 l 213 842 l 113 860 m 422 985 l 427 1007 l 555 1206 l 726 1206 l 721 1181 l 488 985 l 422 985 m 661 985 l 665 1007 l 793 1206 l 964 1206 l 959 1181 l 726 985 l 661 985 z "},"ű":{"ha":772,"x_min":51,"x_max":811,"o":"m 237 146 q 299 81 237 81 q 397 129 342 81 q 475 235 451 178 l 547 637 l 727 637 l 627 62 l 701 45 l 692 0 l 452 0 l 457 119 q 199 -16 352 -16 q 92 21 131 -16 q 54 127 54 58 q 58 171 54 140 q 130 576 62 202 l 51 593 l 60 637 l 321 637 l 252 252 q 237 146 237 174 m 270 758 l 274 781 l 403 979 l 573 979 l 568 954 l 336 758 l 270 758 m 508 758 l 512 781 l 640 979 l 811 979 l 806 954 l 573 758 l 508 758 z "},"Ų":{"ha":1003,"x_min":113,"x_max":1063,"o":"m 113 860 l 122 909 l 542 909 l 533 860 l 413 842 l 336 397 q 321 264 321 309 q 502 83 321 83 q 681 142 611 83 q 770 314 750 201 l 863 842 l 745 860 l 753 909 l 1063 909 l 1054 860 l 947 842 l 856 319 q 729 67 825 148 q 467 -13 632 -13 q 212 61 302 -13 q 122 271 122 134 q 136 395 122 314 l 213 842 l 113 860 m 538 -292 q 425 -257 464 -292 q 385 -155 385 -222 q 409 -63 385 -110 q 472 9 433 -17 l 562 9 q 526 -64 540 -24 q 511 -140 511 -104 q 582 -217 511 -217 q 656 -199 617 -217 l 677 -256 q 538 -292 614 -292 z "},"ų":{"ha":772,"x_min":51,"x_max":727,"o":"m 237 146 q 299 81 237 81 q 397 129 342 81 q 475 235 451 178 l 547 637 l 727 637 l 627 62 l 701 45 l 692 0 l 452 0 l 457 119 q 199 -16 352 -16 q 92 21 131 -16 q 54 127 54 58 q 58 171 54 140 q 130 576 62 202 l 51 593 l 60 637 l 321 637 l 252 252 q 237 146 237 174 m 531 -292 q 418 -257 457 -292 q 378 -155 378 -222 q 402 -63 378 -110 q 465 9 427 -17 l 555 9 q 519 -64 533 -24 q 505 -140 505 -104 q 575 -217 505 -217 q 650 -199 610 -217 l 670 -256 q 531 -292 608 -292 z "},"Ŵ":{"ha":1235,"x_min":96,"x_max":1316,"o":"m 823 -21 l 760 -21 l 652 554 l 380 -21 l 311 -21 l 184 842 l 96 860 l 104 909 l 487 909 l 478 860 l 368 842 l 440 290 l 709 852 l 777 852 l 880 287 l 1126 842 l 1015 860 l 1023 909 l 1316 909 l 1308 860 l 1225 842 l 823 -21 m 513 985 l 517 1007 l 700 1206 l 844 1206 l 957 1007 l 953 985 l 901 985 l 752 1095 l 565 985 l 513 985 z "},"ŵ":{"ha":926,"x_min":-8,"x_max":922,"o":"m 794 526 q 751 587 794 573 l 726 593 l 734 637 l 901 637 q 922 583 922 621 q 876 446 922 522 l 604 -14 l 523 -14 l 453 351 l 252 -14 l 162 -14 l 46 576 l -8 593 l -1 637 l 205 637 l 291 191 l 500 574 l 568 574 l 644 191 l 756 393 q 782 459 770 418 q 794 526 794 500 m 305 758 l 309 781 l 492 979 l 636 979 l 749 781 l 745 758 l 693 758 l 544 868 l 357 758 l 305 758 z "},"Ŷ":{"ha":848,"x_min":71,"x_max":955,"o":"m 476 68 l 617 50 l 609 0 l 119 0 l 127 50 l 275 68 l 329 368 l 170 842 l 71 860 l 80 909 l 511 909 l 503 860 l 377 842 l 498 465 l 745 842 l 637 860 l 646 909 l 955 909 l 946 860 l 846 842 l 530 372 l 476 68 m 319 985 l 323 1007 l 506 1206 l 650 1206 l 763 1007 l 759 985 l 707 985 l 558 1095 l 371 985 l 319 985 z "},"ŷ":{"ha":616,"x_min":-139,"x_max":621,"o":"m 621 595 q 566 446 621 534 l 268 -40 q 158 -197 203 -146 q 68 -274 114 -248 q -30 -300 22 -300 q -85 -297 -64 -300 q -139 -287 -106 -295 l -111 -123 l -70 -123 l -56 -208 q -9 -224 -39 -224 q 80 -177 32 -224 q 203 -3 128 -130 l 58 576 l 17 593 l 24 637 l 230 637 l 333 204 l 456 408 q 487 473 474 437 q 499 530 499 509 q 493 558 499 547 q 478 577 488 570 q 438 593 469 585 l 446 637 l 603 637 q 621 595 621 622 m 161 758 l 165 781 l 347 979 l 492 979 l 604 781 l 600 758 l 549 758 l 399 868 l 212 758 l 161 758 z "},"Ÿ":{"ha":848,"x_min":71,"x_max":955,"o":"m 476 68 l 617 50 l 609 0 l 119 0 l 127 50 l 275 68 l 329 368 l 170 842 l 71 860 l 80 909 l 511 909 l 503 860 l 377 842 l 498 465 l 745 842 l 637 860 l 646 909 l 955 909 l 946 860 l 846 842 l 530 372 l 476 68 m 702 1038 q 645 1062 669 1038 q 620 1120 620 1086 q 645 1178 620 1154 q 702 1201 669 1201 q 759 1178 735 1201 q 783 1120 783 1155 q 759 1062 783 1086 q 702 1038 735 1038 m 460 1038 q 403 1063 428 1038 q 378 1120 378 1088 q 403 1177 378 1153 q 460 1201 427 1201 q 517 1177 494 1201 q 541 1120 541 1153 q 517 1062 541 1086 q 460 1038 494 1038 z "},"Ź":{"ha":848,"x_min":-3,"x_max":813,"o":"m 570 838 l 440 838 q 318 833 373 838 q 241 824 263 829 l 195 681 l 135 681 l 175 909 l 813 909 l 800 838 l 242 71 l 369 71 q 523 78 443 71 q 633 93 604 86 l 704 267 l 765 267 l 700 0 l -3 0 l 10 77 l 570 838 m 405 985 l 409 1007 l 542 1192 l 735 1192 l 732 1166 l 463 985 l 405 985 z "},"ź":{"ha":541,"x_min":-39,"x_max":572,"o":"m -39 0 l -34 34 l 316 576 l 269 576 q 196 570 232 576 q 144 553 161 564 l 103 448 l 54 448 l 87 637 l 535 637 l 529 601 l 179 61 l 235 61 q 315 70 273 61 q 379 93 357 79 l 435 214 l 484 214 l 433 0 l -39 0 m 242 758 l 246 781 l 379 965 l 572 965 l 570 940 l 300 758 l 242 758 z "},"Ż":{"ha":848,"x_min":-3,"x_max":813,"o":"m 570 838 l 440 838 q 318 833 373 838 q 241 824 263 829 l 195 681 l 135 681 l 175 909 l 813 909 l 800 838 l 242 71 l 369 71 q 523 78 443 71 q 633 93 604 86 l 704 267 l 765 267 l 700 0 l -3 0 l 10 77 l 570 838 m 402 1102 q 433 1176 402 1146 q 507 1206 464 1206 q 580 1176 550 1206 q 610 1102 610 1145 q 581 1028 610 1059 q 507 998 551 998 q 433 1028 463 998 q 402 1102 402 1058 z "},"ż":{"ha":541,"x_min":-39,"x_max":535,"o":"m -39 0 l -34 34 l 316 576 l 269 576 q 196 570 232 576 q 144 553 161 564 l 103 448 l 54 448 l 87 637 l 535 637 l 529 601 l 179 61 l 235 61 q 315 70 273 61 q 379 93 357 79 l 435 214 l 484 214 l 433 0 l -39 0 m 233 876 q 263 949 233 920 q 337 979 294 979 q 411 949 380 979 q 441 876 441 919 q 411 802 441 833 q 337 771 381 771 q 263 801 294 771 q 233 876 233 831 z "},"Ž":{"ha":848,"x_min":-3,"x_max":813,"o":"m 570 838 l 440 838 q 318 833 373 838 q 241 824 263 829 l 195 681 l 135 681 l 175 909 l 813 909 l 800 838 l 242 71 l 369 71 q 523 78 443 71 q 633 93 604 86 l 704 267 l 765 267 l 700 0 l -3 0 l 10 77 l 570 838 m 753 1206 l 749 1183 l 567 985 l 422 985 l 310 1183 l 314 1206 l 366 1206 l 515 1096 l 702 1206 l 753 1206 z "},"ž":{"ha":541,"x_min":-39,"x_max":565,"o":"m -39 0 l -34 34 l 316 576 l 269 576 q 196 570 232 576 q 144 553 161 564 l 103 448 l 54 448 l 87 637 l 535 637 l 529 601 l 179 61 l 235 61 q 315 70 273 61 q 379 93 357 79 l 435 214 l 484 214 l 433 0 l -39 0 m 565 979 l 561 957 l 378 758 l 234 758 l 121 957 l 125 979 l 177 979 l 326 869 l 513 979 l 565 979 z "},"ſ":{"ha":463,"x_min":0,"x_max":578,"o":"m 470 978 q 578 964 532 978 l 551 813 l 508 813 l 500 887 q 462 903 486 903 q 401 864 425 903 q 365 745 378 825 l 182 -296 l 0 -296 l 179 723 q 272 915 201 851 q 470 978 344 978 z "},"ƀ":{"ha":694,"x_min":18,"x_max":653,"o":"m 304 -16 q 154 -3 231 -16 q 18 33 77 9 l 144 747 l 65 747 l 77 818 l 157 818 l 172 904 l 110 920 l 117 964 l 365 964 l 339 818 l 545 818 l 532 747 l 326 747 q 285 541 299 590 q 375 625 326 595 q 475 654 425 654 q 605 594 557 654 q 653 428 653 533 q 607 204 653 309 q 481 42 560 100 q 304 -16 402 -16 m 475 398 q 452 510 475 469 q 393 551 429 551 q 336 525 368 551 q 275 457 304 499 l 209 84 q 249 61 222 71 q 296 52 275 52 q 385 100 343 52 q 450 231 426 149 q 475 398 475 313 z "},"Ɓ":{"ha":993,"x_min":38,"x_max":941,"o":"m 506 -4 l 272 0 l 54 0 l 62 50 l 182 68 l 317 835 l 294 835 q 205 820 241 835 q 145 764 169 804 l 97 682 l 38 682 l 77 876 q 276 909 150 909 l 612 909 q 941 711 941 909 q 881 558 941 615 q 713 486 821 500 q 874 420 816 477 q 933 274 933 363 q 826 64 933 132 q 506 -4 720 -4 m 510 71 q 678 120 625 71 q 732 275 732 170 q 680 400 732 357 q 526 444 629 444 l 449 444 l 384 75 q 510 71 455 71 m 526 518 q 740 702 740 518 q 699 801 740 766 q 578 835 658 835 l 518 835 l 462 518 l 526 518 z "},"Ƃ":{"ha":882,"x_min":-12,"x_max":844,"o":"m 394 512 l 458 512 q 715 455 628 512 q 802 275 802 397 q 697 68 802 136 q 373 0 593 0 l -12 0 l -3 50 l 116 67 l 252 842 l 146 860 l 155 909 l 844 909 l 806 662 l 750 662 l 741 824 q 657 833 715 829 q 540 838 599 838 l 452 838 l 394 512 m 381 437 l 317 75 l 361 75 q 545 123 491 75 q 599 279 599 172 q 557 397 599 357 q 422 437 515 437 l 381 437 z "},"ƃ":{"ha":694,"x_min":18,"x_max":671,"o":"m 304 -16 q 154 -3 231 -16 q 18 33 77 9 l 172 904 l 110 920 l 117 964 l 671 964 l 648 782 l 596 782 l 577 881 q 494 890 545 886 q 410 894 443 894 l 353 894 q 312 662 326 740 q 285 541 298 583 q 375 625 326 595 q 475 654 425 654 q 605 594 557 654 q 653 428 653 533 q 607 204 653 309 q 481 42 560 100 q 304 -16 402 -16 m 475 398 q 452 510 475 469 q 393 551 429 551 q 336 525 368 551 q 275 457 304 499 l 209 84 q 249 61 222 71 q 296 52 275 52 q 385 100 343 52 q 450 231 426 149 q 475 398 475 313 z "},"Ƅ":{"ha":880,"x_min":-12,"x_max":802,"o":"m 210 596 l 98 706 l 106 755 l 407 909 l 463 909 l 394 512 l 458 512 q 715 455 628 512 q 802 275 802 397 q 697 68 802 136 q 373 0 593 0 l -12 0 l -3 50 l 116 67 l 210 596 m 381 437 l 317 75 l 361 75 q 545 123 491 75 q 599 279 599 172 q 557 397 599 357 q 422 437 515 437 l 381 437 z "},"ƅ":{"ha":694,"x_min":18,"x_max":653,"o":"m 475 398 q 452 510 475 469 q 393 551 429 551 q 336 525 368 551 q 275 457 304 499 l 209 84 q 249 61 222 71 q 296 52 275 52 q 385 100 343 52 q 450 231 426 149 q 475 398 475 313 m 285 541 q 375 625 326 595 q 475 654 425 654 q 605 594 557 654 q 653 428 653 533 q 607 204 653 309 q 481 42 560 100 q 304 -16 402 -16 q 154 -3 231 -16 q 18 33 77 9 l 124 633 l 60 739 l 68 783 l 321 964 l 365 964 l 313 672 q 285 541 300 593 z "},"Ɔ":{"ha":926,"x_min":-5,"x_max":887,"o":"m 480 933 q 780 833 673 933 q 887 559 887 733 q 817 265 887 392 q 615 69 746 138 q 316 0 485 0 q -5 35 163 0 l 31 264 l 88 264 l 88 132 q 177 87 125 103 q 286 71 229 71 q 487 134 397 71 q 625 310 576 196 q 675 566 675 423 q 612 785 675 706 q 437 863 550 863 q 302 844 370 863 q 195 795 235 825 l 142 646 l 85 646 l 130 876 q 299 917 206 901 q 480 933 392 933 z "},"Ƈ":{"ha":926,"x_min":47,"x_max":1226,"o":"m 861 898 q 939 1059 881 1004 q 1089 1114 998 1114 q 1226 1093 1175 1114 l 1197 928 l 1146 928 l 1139 1006 q 1108 1030 1130 1021 q 1059 1039 1087 1039 q 984 1006 1014 1039 q 945 910 955 974 l 903 656 l 846 656 l 846 787 q 758 832 810 817 q 649 848 706 848 q 448 786 537 848 q 309 610 359 724 q 260 354 260 496 q 322 135 260 214 q 498 56 385 56 q 631 76 564 56 q 740 125 699 95 l 792 274 l 850 274 l 805 43 q 635 2 728 18 q 454 -14 543 -14 q 154 86 261 -14 q 47 360 47 186 q 118 654 47 527 q 319 850 189 781 q 618 920 450 920 q 861 898 732 920 z "},"ƈ":{"ha":616,"x_min":20,"x_max":878,"o":"m 517 645 q 598 791 540 740 q 741 842 656 842 q 878 822 827 842 l 848 656 l 804 656 l 800 751 q 768 775 790 766 q 717 784 745 784 q 640 752 670 784 q 599 655 609 720 l 563 429 l 514 429 l 505 545 q 406 585 468 585 q 304 537 352 585 q 229 408 256 490 q 202 231 202 326 q 232 113 202 155 q 319 71 262 71 q 412 89 370 71 q 492 134 454 107 l 522 92 q 398 14 467 42 q 265 -14 330 -14 q 84 50 149 -14 q 20 224 20 113 q 70 448 20 349 q 208 600 120 546 q 397 654 295 654 q 517 645 467 654 z "},"Ɖ":{"ha":1003,"x_min":-10,"x_max":970,"o":"m 970 534 q 902 250 970 372 q 704 62 833 127 q 406 -3 576 -3 l 122 0 l -10 0 l -2 50 l 118 68 l 178 413 l 62 413 l 77 496 l 193 496 l 254 842 l 141 860 l 150 909 l 503 909 q 851 812 732 909 q 970 534 970 715 m 760 525 q 478 835 760 835 l 453 835 l 393 496 l 568 496 l 553 413 l 378 413 l 319 77 q 404 72 377 72 q 664 193 569 72 q 760 525 760 315 z "},"Ɗ":{"ha":1084,"x_min":55,"x_max":1052,"o":"m 334 835 l 311 835 q 222 820 258 835 q 162 764 186 804 l 114 682 l 55 682 l 94 876 q 293 909 167 909 l 585 909 q 932 812 813 909 q 1052 534 1052 715 q 983 250 1052 372 q 786 62 914 127 q 488 -3 657 -3 l 203 0 l 71 0 l 79 50 l 199 68 l 334 835 m 841 525 q 559 835 841 835 l 534 835 l 401 77 q 485 72 458 72 q 746 193 650 72 q 841 525 841 315 z "},"Ƌ":{"ha":880,"x_min":3,"x_max":920,"o":"m 758 0 l 340 0 q 88 56 172 0 q 3 229 3 112 q 114 442 3 367 q 432 517 224 517 l 520 517 l 576 838 l 479 838 q 264 824 337 838 l 203 686 l 142 686 l 189 909 l 920 909 l 911 860 l 791 842 l 654 67 l 767 50 l 758 0 m 441 71 l 507 443 l 448 443 q 286 382 345 443 q 227 216 227 321 q 264 108 227 146 q 375 71 302 71 l 441 71 z "},"ƌ":{"ha":694,"x_min":16,"x_max":775,"o":"m 551 58 l 618 41 l 610 0 l 385 0 l 380 98 q 288 15 340 44 q 187 -14 237 -14 q 63 46 110 -14 q 16 210 16 106 q 60 433 16 330 q 183 594 104 535 q 358 654 262 654 q 476 635 432 654 q 481 684 479 666 q 515 894 483 701 l 458 894 q 374 890 427 894 q 287 881 320 886 l 233 782 l 180 782 l 221 964 l 775 964 l 768 920 l 700 904 l 551 58 m 195 240 q 214 127 195 167 q 264 87 233 87 q 327 114 290 87 q 391 181 363 141 l 457 554 q 415 577 444 568 q 366 587 387 587 q 280 538 320 587 q 218 408 241 490 q 195 240 195 326 z "},"ƍ":{"ha":711,"x_min":16,"x_max":665,"o":"m 412 654 q 598 588 530 654 q 665 410 665 523 q 587 202 665 289 q 355 71 509 115 q 454 -125 454 -31 q 384 -251 454 -206 q 186 -296 314 -296 q 16 -271 110 -296 l 42 -119 l 87 -119 l 103 -197 q 141 -220 117 -212 q 194 -229 166 -229 q 260 -205 235 -229 q 286 -133 286 -182 q 275 -85 286 -109 q 246 -37 264 -62 q 160 52 227 -13 q 69 180 98 115 q 40 318 40 245 q 88 489 40 409 q 220 611 136 568 q 412 654 303 654 m 396 587 q 307 554 345 587 q 246 454 268 521 q 224 314 224 388 q 309 132 224 210 q 441 252 396 167 q 486 439 486 337 q 463 549 486 511 q 396 587 439 587 z "},"Ǝ":{"ha":926,"x_min":-14,"x_max":966,"o":"m 805 0 l -14 0 l 18 254 l 80 254 l 89 85 q 317 75 143 75 l 488 75 l 550 425 l 312 425 l 273 322 l 212 322 l 262 602 l 322 602 l 326 501 l 564 501 l 622 835 l 481 835 q 260 825 336 835 l 212 678 l 151 678 l 191 909 l 966 909 l 957 860 l 837 842 l 701 68 l 814 50 l 805 0 z "},"Ə":{"ha":1003,"x_min":50,"x_max":964,"o":"m 545 851 q 311 787 411 851 l 271 656 l 210 656 l 253 874 q 572 920 422 920 q 865 828 766 920 q 964 556 964 737 q 899 252 964 381 q 713 55 833 123 q 435 -14 593 -14 q 149 81 248 -14 q 50 355 50 175 q 68 505 50 427 l 755 505 q 764 607 764 560 q 712 788 764 725 q 545 851 660 851 m 441 54 q 632 154 552 54 q 743 431 713 254 l 266 431 q 252 277 252 345 q 441 54 252 54 z "},"Ɛ":{"ha":707,"x_min":3,"x_max":729,"o":"m 3 210 q 283 476 3 442 q 161 536 205 488 q 117 660 117 585 q 213 854 117 789 q 493 920 310 920 q 729 890 617 920 l 692 684 l 633 684 l 627 815 q 571 841 607 831 q 500 850 534 850 q 370 800 414 850 q 326 650 326 749 q 355 556 326 588 q 435 522 385 525 l 513 516 l 498 434 l 416 429 q 266 367 317 424 q 216 204 216 309 q 368 55 216 55 q 440 64 397 55 q 513 88 483 73 l 574 234 l 636 234 l 589 14 q 334 -14 471 -14 q 90 46 176 -14 q 3 210 3 105 z "},"Ƒ":{"ha":926,"x_min":-234,"x_max":903,"o":"m 254 842 l 141 860 l 150 909 l 903 909 l 860 665 l 796 665 l 803 825 q 683 832 770 830 q 547 835 597 835 l 454 835 l 391 476 l 637 476 l 678 591 l 739 591 l 684 285 l 624 285 l 623 401 l 377 401 l 307 7 q 185 -221 281 -142 q -60 -300 90 -300 q -160 -294 -111 -300 q -234 -279 -210 -288 l -197 -73 l -137 -73 l -138 -195 q -56 -228 -117 -228 q 38 -192 -4 -228 q 90 -98 80 -156 l 254 842 z "},"ƒ":{"ha":694,"x_min":109,"x_max":646,"o":"m 109 -193 l 224 470 l 110 470 l 120 517 l 237 540 l 264 693 q 345 862 281 800 q 506 924 408 924 q 646 911 593 924 l 639 759 l 595 759 l 576 836 q 534 849 558 849 q 490 818 507 849 q 456 692 473 787 l 429 541 l 591 541 l 578 470 l 416 470 l 300 -193 l 109 -193 z "},"Ɠ":{"ha":1003,"x_min":47,"x_max":1235,"o":"m 869 898 q 948 1059 890 1004 q 1098 1114 1006 1114 q 1235 1093 1184 1114 l 1206 928 l 1155 928 l 1148 1006 q 1117 1030 1139 1021 q 1068 1039 1096 1039 q 993 1006 1023 1039 q 954 910 964 974 l 912 656 l 855 656 l 855 787 q 638 848 774 848 q 443 785 530 848 q 307 606 355 722 q 258 341 258 490 q 316 132 258 207 q 480 56 374 56 q 641 85 568 56 l 687 343 l 574 365 l 582 411 l 987 411 l 979 365 l 887 343 l 835 47 q 644 1 734 16 q 449 -14 553 -14 q 153 84 258 -14 q 47 355 47 182 q 120 653 47 525 q 324 850 192 781 q 627 920 456 920 q 869 898 765 920 z "},"Ɣ":{"ha":979,"x_min":92,"x_max":1072,"o":"m 92 860 l 100 909 l 493 909 l 484 860 l 387 842 l 520 262 l 881 842 l 793 860 l 802 909 l 1072 909 l 1063 860 l 974 842 l 549 149 q 611 -275 611 -135 l 611 -291 l 267 -300 l 212 -277 q 364 1 255 -182 l 163 842 l 92 860 m 323 -229 l 399 -225 l 399 -217 q 389 -111 399 -172 q 367 -147 378 -130 q 348 -180 357 -164 q 333 -208 339 -195 q 323 -229 326 -220 z "},"ƕ":{"ha":1097,"x_min":27,"x_max":1059,"o":"m 623 123 q 643 64 623 87 q 705 40 663 40 q 776 80 750 40 q 816 203 802 119 l 882 576 l 810 593 l 818 637 l 1059 637 l 981 195 q 892 40 962 94 q 700 -14 822 -14 q 505 27 566 -14 q 444 149 444 67 q 452 214 444 175 q 486 410 474 343 q 496 492 498 477 q 435 557 496 557 q 352 514 395 557 q 279 403 308 471 l 208 0 l 27 0 l 186 903 l 124 919 l 132 964 l 379 964 l 322 650 l 300 541 l 296 522 q 407 624 353 593 q 534 654 461 654 q 640 618 600 654 q 680 519 680 582 q 669 421 680 484 l 630 203 q 623 123 623 164 z "},"Ɩ":{"ha":386,"x_min":31,"x_max":384,"o":"m 224 61 l 304 45 l 297 0 l 31 0 l 191 903 l 129 919 l 136 964 l 384 964 l 224 61 z "},"Ɨ":{"ha":541,"x_min":-14,"x_max":580,"o":"m 315 68 l 428 50 l 419 0 l -14 0 l -5 50 l 115 68 l 180 444 l 65 444 l 79 526 l 195 526 l 251 842 l 138 860 l 146 909 l 580 909 l 571 860 l 451 842 l 395 526 l 513 526 l 498 444 l 380 444 l 315 68 z "},"Ƙ":{"ha":926,"x_min":-10,"x_max":1004,"o":"m 318 68 l 439 50 l 431 0 l -10 0 l -2 50 l 118 68 l 221 654 q 320 856 245 789 q 530 923 395 923 q 651 907 590 923 l 621 731 l 566 731 l 564 832 q 524 848 549 848 q 425 675 455 848 l 393 487 l 783 842 l 707 860 l 715 909 l 1004 909 l 995 860 l 901 842 l 580 551 l 819 68 l 910 50 l 902 0 l 640 0 l 439 431 l 376 401 l 318 68 z "},"ƙ":{"ha":694,"x_min":19,"x_max":684,"o":"m 263 344 l 501 577 l 443 593 l 450 637 l 684 637 l 676 593 l 614 578 l 449 426 l 600 61 l 654 45 l 646 0 l 433 0 l 321 307 l 248 260 l 201 0 l 19 0 l 144 709 q 436 978 191 978 q 546 965 504 978 l 519 813 l 476 813 l 469 887 q 429 903 455 903 q 331 730 361 903 l 263 344 z "},"ƚ":{"ha":386,"x_min":30,"x_max":398,"o":"m 305 520 l 398 520 l 386 450 l 292 450 l 224 61 l 304 45 l 297 0 l 31 0 l 110 450 l 30 450 l 42 520 l 123 520 l 191 903 l 129 919 l 136 964 l 384 964 l 305 520 z "},"ƛ":{"ha":616,"x_min":-47,"x_max":581,"o":"m 325 781 q 296 870 317 840 q 239 901 276 901 q 203 892 218 901 l 171 836 l 124 836 l 140 964 q 242 978 194 978 q 341 944 306 978 q 395 840 377 909 l 547 965 l 529 867 l 410 768 l 514 113 q 581 44 523 62 l 572 0 l 426 0 l 374 402 l 151 0 l -47 0 l -42 29 l 339 680 l 335 707 l 64 481 l 81 579 l 325 781 z "},"Ɯ":{"ha":1174,"x_min":58,"x_max":1242,"o":"m 811 54 q 612 -14 683 -14 q 524 7 560 -14 q 468 58 488 28 q 228 -14 328 -14 q 102 23 146 -14 q 58 136 58 61 q 67 222 58 174 l 177 842 l 84 860 l 93 909 l 457 909 l 448 860 l 377 842 l 267 215 q 259 149 259 170 q 320 82 259 82 q 375 89 336 82 q 445 106 413 96 l 443 136 q 448 186 443 161 l 563 842 l 498 860 l 507 909 l 842 909 l 833 860 l 763 842 l 652 214 q 646 150 646 181 q 662 101 646 119 q 710 82 678 82 q 764 88 730 82 q 819 102 798 94 l 949 842 l 884 860 l 892 909 l 1242 909 l 1234 860 l 1149 842 l 1013 68 l 1097 50 l 1088 0 l 810 0 l 811 54 z "},"Ɲ":{"ha":1003,"x_min":-195,"x_max":1044,"o":"m 831 842 l 712 860 l 721 909 l 1044 909 l 1036 860 l 916 842 l 768 0 l 690 0 l 323 754 l 172 -94 q 93 -249 153 -197 q -77 -300 32 -300 q -143 -293 -109 -300 q -195 -278 -177 -286 l -159 -73 l -98 -73 l -99 -195 q -72 -219 -92 -210 q -29 -228 -53 -228 q 44 -196 15 -228 q 85 -102 74 -163 l 252 842 l 138 860 l 147 909 l 441 909 l 736 303 l 831 842 z "},"ƞ":{"ha":762,"x_min":28,"x_max":702,"o":"m 556 654 q 663 617 625 654 q 702 511 702 581 q 690 422 702 486 l 625 47 q 607 -112 614 -19 q 599 -266 599 -205 l 593 -296 l 406 -296 q 417 -129 406 -227 q 442 39 429 -31 l 504 386 q 518 492 518 460 q 456 557 518 557 q 360 510 414 557 q 281 403 307 463 l 209 0 l 28 0 l 129 576 l 68 593 l 77 637 l 304 637 l 298 519 q 556 654 404 654 z "},"Ɵ":{"ha":1003,"x_min":50,"x_max":964,"o":"m 433 -14 q 234 33 321 -14 q 98 164 146 79 q 50 355 50 248 q 117 649 50 519 q 303 849 183 779 q 581 920 424 920 q 780 873 693 920 q 916 742 867 827 q 964 551 964 658 q 896 255 964 388 q 709 54 827 121 q 433 -14 591 -14 m 446 56 q 575 102 515 56 q 680 235 635 148 q 745 431 724 323 l 262 431 q 254 329 254 381 q 304 129 254 201 q 446 56 355 56 m 760 572 q 708 774 760 701 q 564 848 656 848 q 386 752 462 848 q 275 505 309 656 l 756 505 l 760 572 z "},"Ơ":{"ha":1003,"x_min":50,"x_max":1133,"o":"m 1133 901 q 1086 764 1133 821 q 944 677 1038 707 q 964 551 964 618 q 896 255 964 388 q 709 54 827 121 q 433 -14 591 -14 q 234 33 321 -14 q 98 164 146 79 q 50 355 50 248 q 117 649 50 519 q 303 849 183 779 q 581 920 424 920 q 790 868 699 920 q 926 722 880 816 q 996 765 970 736 q 1022 823 1022 793 q 1010 848 1022 840 q 984 866 998 857 q 957 891 969 876 q 945 935 945 906 q 970 989 945 970 q 1032 1007 994 1007 q 1105 978 1077 1007 q 1133 901 1133 949 m 760 572 q 708 774 760 701 q 564 848 656 848 q 412 781 481 848 q 298 584 342 713 q 254 329 254 456 q 304 129 254 201 q 446 56 355 56 q 600 123 530 56 q 715 317 670 191 q 760 572 760 443 z "},"ơ":{"ha":745,"x_min":22,"x_max":814,"o":"m 275 -14 q 91 59 160 -14 q 22 254 22 132 q 69 456 22 363 q 202 601 117 548 q 393 654 287 654 q 536 616 475 654 q 625 508 596 578 q 680 549 658 522 q 703 602 703 577 q 691 628 703 619 q 664 646 679 636 q 638 671 650 656 q 626 715 626 686 q 650 768 626 750 q 713 787 675 787 q 786 758 758 787 q 814 681 814 729 q 769 547 814 603 q 639 462 724 492 q 647 387 647 427 q 600 185 647 277 q 467 40 552 93 q 275 -14 382 -14 m 463 424 q 378 587 463 587 q 294 536 336 587 q 227 397 252 484 q 201 216 201 311 q 227 96 201 138 q 291 54 252 54 q 375 104 334 54 q 439 239 416 154 q 463 424 463 325 z "},"Ƣ":{"ha":1413,"x_min":47,"x_max":1363,"o":"m 774 836 q 638 848 720 848 q 443 785 530 848 q 307 606 355 722 q 258 341 258 490 q 316 132 258 207 q 480 56 374 56 q 641 85 568 56 l 774 836 m 972 835 l 835 47 q 644 1 734 16 q 449 -14 553 -14 q 153 84 258 -14 q 47 355 47 182 q 120 653 47 525 q 324 850 192 781 q 627 920 456 920 q 758 912 679 920 l 792 909 l 1363 909 l 1162 -233 l 1275 -250 l 1266 -300 l 833 -300 l 842 -250 l 962 -233 l 1149 835 l 972 835 z "},"ƣ":{"ha":1006,"x_min":22,"x_max":958,"o":"m 378 587 q 294 536 336 587 q 227 397 252 484 q 201 216 201 311 q 227 96 201 138 q 291 54 252 54 q 376 114 340 54 q 432 283 412 175 l 487 581 q 441 584 469 581 q 378 587 413 587 m 958 637 l 806 -235 l 881 -252 l 873 -296 l 543 -296 l 551 -252 l 622 -235 l 768 587 l 668 587 l 625 356 q 504 80 593 174 q 275 -14 416 -14 q 91 59 160 -14 q 22 254 22 132 q 69 456 22 363 q 202 601 117 548 q 393 654 287 654 q 609 640 452 654 l 654 637 l 958 637 z "},"Ƥ":{"ha":921,"x_min":43,"x_max":930,"o":"m 441 357 l 390 68 l 538 50 l 531 0 l 72 0 l 79 50 l 189 68 l 325 834 l 299 834 q 210 819 245 834 q 151 764 174 804 l 102 682 l 43 682 l 82 876 q 283 909 154 909 l 581 909 q 841 848 753 909 q 930 667 930 787 q 829 438 930 519 q 538 357 728 357 l 441 357 m 509 431 q 672 494 612 431 q 731 665 731 557 q 691 790 731 746 q 573 834 652 834 l 526 834 l 455 431 l 509 431 z "},"ƥ":{"ha":694,"x_min":-99,"x_max":652,"o":"m 652 428 q 608 206 652 307 q 484 45 564 104 q 304 -14 404 -14 q 199 9 246 -14 q 194 -48 196 -31 q 164 -235 191 -65 l 273 -252 l 264 -296 l -99 -296 l -91 -252 l -20 -235 l 147 709 q 244 913 172 848 q 437 978 316 978 q 547 965 505 978 l 520 813 l 477 813 l 470 887 q 431 903 457 903 q 332 730 362 903 l 300 549 q 477 654 382 654 q 604 593 556 654 q 652 428 652 532 m 474 398 q 453 510 474 469 q 399 551 433 551 q 285 461 353 551 l 218 86 q 257 62 235 70 q 297 54 280 54 q 387 101 346 54 q 451 230 428 149 q 474 398 474 311 z "},"Ʀ":{"ha":848,"x_min":-14,"x_max":840,"o":"m 315 68 l 428 50 l 419 0 l -14 0 l -5 50 l 115 68 l 251 842 l 138 860 l 146 909 l 580 909 l 571 860 l 451 842 l 441 784 l 467 784 q 730 728 645 784 q 816 555 816 671 q 759 378 816 449 q 593 279 701 308 l 740 -85 l 840 -103 l 831 -153 l 560 -153 l 408 260 l 349 260 l 315 68 m 380 334 q 554 390 491 334 q 617 544 617 445 q 576 671 617 632 q 456 709 535 709 l 427 709 l 361 334 l 380 334 z "},"Ƨ":{"ha":772,"x_min":31,"x_max":746,"o":"m 327 -14 q 105 45 180 -14 q 31 218 31 104 q 49 336 31 285 q 102 428 67 388 q 195 499 137 467 q 368 566 254 531 q 523 625 484 603 q 584 675 562 646 q 605 745 605 703 q 569 821 605 792 q 452 849 533 849 q 281 799 358 849 l 229 674 l 168 674 l 206 890 q 464 920 349 920 q 675 867 604 920 q 746 715 746 814 q 716 576 746 636 q 622 474 686 516 q 418 389 557 432 q 325 357 370 373 q 247 318 281 341 q 193 264 213 296 q 172 184 172 232 q 342 55 172 55 q 467 78 406 55 q 561 133 528 102 l 617 279 l 677 279 l 634 35 q 490 0 572 13 q 327 -14 408 -14 z "},"ƨ":{"ha":541,"x_min":22,"x_max":489,"o":"m 22 161 q 42 269 22 224 q 101 343 63 313 q 223 401 139 373 q 341 458 313 431 q 370 529 370 485 q 300 591 370 591 q 235 577 270 591 q 182 546 199 564 l 151 471 l 104 471 l 130 635 q 308 654 239 654 q 440 611 391 654 q 489 494 489 567 q 468 387 489 431 q 410 314 448 343 q 294 259 372 284 q 170 200 200 227 q 140 125 140 172 q 161 71 140 92 q 228 50 181 50 q 301 65 265 50 q 363 105 338 81 l 401 195 l 448 195 l 420 21 q 328 -2 389 9 q 222 -14 267 -14 q 73 31 125 -14 q 22 161 22 75 z "},"Ʃ":{"ha":860,"x_min":-23,"x_max":844,"o":"m 362 835 l 519 529 l 512 483 l 193 163 l 383 163 q 547 166 452 163 q 666 174 642 169 l 724 301 l 787 301 l 713 0 l -23 0 l -11 64 l 353 435 l 145 842 l 159 909 l 844 909 l 802 678 l 741 678 l 745 825 q 551 835 675 835 l 362 835 z "},"ƪ":{"ha":506,"x_min":81,"x_max":493,"o":"m 201 684 q 116 720 151 684 q 81 810 81 756 q 130 927 81 882 q 252 972 178 972 q 449 731 449 972 q 431 566 449 661 l 322 -48 q 315 -124 315 -89 q 331 -199 315 -177 q 371 -221 348 -221 q 406 -208 389 -221 l 450 -131 l 493 -131 l 466 -283 q 347 -296 408 -296 q 183 -244 241 -296 q 124 -94 124 -192 q 130 -26 124 -63 l 257 695 q 201 684 230 684 m 239 896 q 181 874 203 896 q 159 818 159 853 q 175 778 159 794 q 215 762 191 762 q 270 786 245 762 q 294 840 294 810 q 278 880 294 864 q 239 896 262 896 z "},"ƫ":{"ha":386,"x_min":16,"x_max":420,"o":"m 290 72 q 393 100 323 72 l 373 -14 q 288 -222 350 -149 q 130 -296 225 -296 q 16 -283 69 -296 l 42 -131 l 85 -131 l 101 -208 q 132 -221 114 -221 q 239 -48 204 -221 l 246 -9 q 201 -14 212 -14 q 86 22 126 -14 q 45 125 45 58 q 58 223 45 157 l 120 567 l 42 567 l 50 611 l 146 637 l 240 782 l 339 782 l 313 637 l 420 637 l 408 567 l 301 567 l 239 222 q 229 140 229 166 q 247 88 229 104 q 290 72 264 72 z "},"Ƭ":{"ha":848,"x_min":64,"x_max":894,"o":"m 113 0 l 121 50 l 269 68 l 404 836 l 321 836 q 231 820 267 836 q 172 764 195 804 l 123 682 l 64 682 l 103 876 q 304 909 175 909 l 894 909 l 849 655 l 789 655 l 798 824 q 729 832 779 828 q 646 836 678 836 l 606 836 l 470 68 l 611 50 l 603 0 l 113 0 z "},"ƭ":{"ha":386,"x_min":42,"x_max":545,"o":"m 290 72 q 365 90 313 72 l 382 42 q 298 2 349 18 q 201 -14 247 -14 q 86 22 126 -14 q 45 125 45 58 q 58 223 45 157 l 120 567 l 42 567 l 50 611 l 131 633 l 144 709 q 434 978 191 978 q 545 965 503 978 l 518 813 l 475 813 l 468 887 q 428 903 454 903 q 370 864 395 903 q 334 753 345 824 l 313 637 l 420 637 l 408 567 l 301 567 l 239 222 q 229 140 229 166 q 247 88 229 104 q 290 72 264 72 z "},"Ʈ":{"ha":848,"x_min":101,"x_max":894,"o":"m 437 -134 q 461 -204 437 -180 q 526 -228 486 -228 q 580 -219 555 -228 q 621 -195 606 -210 l 663 -73 l 723 -73 l 687 -279 q 505 -300 614 -300 q 250 -80 250 -300 q 258 7 250 -41 l 405 838 l 363 838 q 278 833 326 838 q 211 824 231 828 l 160 655 l 101 655 l 146 909 l 894 909 l 849 655 l 789 655 l 798 824 q 729 832 779 828 q 646 836 678 836 l 606 836 l 440 -99 l 437 -134 z "},"Ư":{"ha":1076,"x_min":113,"x_max":1170,"o":"m 113 860 l 122 909 l 542 909 l 533 860 l 413 842 l 336 397 q 321 264 321 309 q 498 83 321 83 q 675 141 607 83 q 764 314 743 200 l 857 842 l 738 860 l 747 909 l 953 909 l 918 713 q 1020 758 981 728 q 1059 823 1059 787 q 1047 848 1059 840 q 1020 866 1035 857 q 994 891 1006 876 q 982 935 982 906 q 1006 989 982 970 q 1069 1007 1031 1007 q 1142 978 1114 1007 q 1170 901 1170 949 q 1105 751 1170 811 q 908 656 1040 692 l 849 319 q 724 67 819 148 q 464 -13 629 -13 q 211 60 300 -13 q 122 271 122 133 q 136 395 122 314 l 213 842 l 113 860 z "},"ư":{"ha":832,"x_min":51,"x_max":916,"o":"m 237 146 q 299 81 237 81 q 397 129 342 81 q 475 235 451 178 l 547 637 l 727 637 l 704 505 q 774 547 744 517 q 805 602 805 577 q 793 628 805 619 q 767 646 781 636 q 740 671 752 656 q 728 715 728 686 q 753 768 728 750 q 815 787 777 787 q 888 758 860 787 q 916 681 916 729 q 858 539 916 599 q 694 452 800 479 l 627 62 l 701 45 l 692 0 l 452 0 l 457 119 q 199 -16 352 -16 q 92 21 131 -16 q 54 127 54 58 q 58 171 54 140 q 130 576 62 202 l 51 593 l 60 637 l 321 637 l 252 252 q 237 146 237 174 z "},"Ʊ":{"ha":1036,"x_min":52,"x_max":1052,"o":"m 479 61 q 708 152 628 61 q 789 406 789 243 q 747 557 789 497 q 628 635 705 618 l 659 909 l 1052 909 l 1021 659 l 977 659 l 954 749 q 770 760 899 760 l 724 760 l 717 688 q 919 586 842 663 q 996 406 996 509 q 931 184 996 279 q 748 40 867 90 q 471 -10 629 -10 q 162 70 272 -10 q 52 293 52 150 q 154 557 52 452 q 430 688 255 663 l 451 760 l 414 760 q 220 749 277 760 l 165 659 l 107 659 l 163 909 l 570 909 l 502 635 q 321 531 384 618 q 259 302 259 445 q 315 123 259 184 q 479 61 370 61 z "},"Ʋ":{"ha":989,"x_min":113,"x_max":931,"o":"m 931 790 q 921 690 931 744 l 856 319 q 729 67 825 148 q 467 -13 632 -13 q 212 61 302 -13 q 122 271 122 134 q 136 395 122 314 l 213 842 l 113 860 l 122 909 l 542 909 l 533 860 l 413 842 l 336 397 q 321 264 321 309 q 502 83 321 83 q 681 142 611 83 q 770 314 750 201 l 838 699 q 846 766 846 745 q 780 848 846 848 q 733 840 758 848 q 694 815 709 831 l 661 737 l 610 737 l 639 903 q 783 923 696 923 q 892 889 853 923 q 931 790 931 854 z "},"Ƴ":{"ha":907,"x_min":71,"x_max":1055,"o":"m 476 68 l 617 50 l 609 0 l 119 0 l 127 50 l 275 68 l 329 368 l 170 842 l 71 860 l 80 909 l 511 909 l 503 860 l 377 842 l 498 465 l 703 779 q 770 861 737 831 q 838 906 803 892 q 928 920 873 920 q 1055 899 1004 920 l 1025 734 l 975 734 l 966 825 q 912 842 946 842 q 844 820 873 842 q 787 753 815 798 l 530 372 l 476 68 z "},"ƴ":{"ha":649,"x_min":-139,"x_max":1029,"o":"m -30 -300 q -139 -287 -90 -300 l -111 -123 l -70 -123 l -56 -208 q -9 -224 -41 -224 q 70 -188 28 -224 q 153 -85 112 -152 l 203 -3 l 58 576 l 17 593 l 24 637 l 230 637 l 333 205 l 630 704 q 741 870 699 821 q 825 941 783 919 q 921 963 867 963 q 975 961 955 963 q 1029 950 994 958 l 995 786 l 954 786 l 942 865 q 896 880 926 880 q 850 866 872 880 q 805 824 829 852 q 724 703 782 795 l 268 -40 q 205 -136 237 -89 q 138 -219 174 -182 q 61 -277 102 -255 q -30 -300 20 -300 z "},"Ƶ":{"ha":848,"x_min":-3,"x_max":813,"o":"m 276 439 l 115 439 l 130 522 l 337 522 l 570 838 l 440 838 q 318 833 373 838 q 241 824 263 829 l 195 681 l 135 681 l 175 909 l 813 909 l 800 838 l 570 522 l 731 522 l 716 439 l 510 439 l 242 71 l 369 71 q 523 78 443 71 q 633 93 604 86 l 704 267 l 765 267 l 700 0 l -3 0 l 10 77 l 276 439 z "},"ƶ":{"ha":541,"x_min":-39,"x_max":535,"o":"m -39 0 l -34 34 l 133 293 l 35 293 l 47 363 l 178 363 l 316 576 l 269 576 q 196 570 232 576 q 144 553 161 564 l 103 448 l 54 448 l 87 637 l 535 637 l 529 601 l 375 363 l 476 363 l 464 293 l 329 293 l 179 61 l 235 61 q 315 70 273 61 q 379 93 357 79 l 435 214 l 484 214 l 433 0 l -39 0 z "},"Ʒ":{"ha":751,"x_min":-115,"x_max":722,"o":"m 163 -300 q -115 -273 7 -300 l -75 -33 l -13 -33 l -13 -199 q 69 -223 19 -214 q 157 -232 119 -232 q 379 -131 304 -232 q 455 159 455 -31 q 389 339 455 277 q 194 401 322 401 l 146 401 l 158 473 l 489 838 l 408 838 q 208 824 268 838 l 162 681 l 102 681 l 142 909 l 722 909 l 709 838 l 364 460 q 656 162 656 418 q 596 -85 656 20 q 424 -245 536 -191 q 163 -300 312 -300 z "},"Ƹ":{"ha":751,"x_min":-25,"x_max":778,"o":"m 332 -300 q 68 -218 161 -300 q -25 19 -25 -135 q 414 460 -25 401 l 206 838 l 218 909 l 778 909 l 737 681 l 677 681 l 681 824 q 486 838 627 838 l 406 838 l 604 473 l 592 401 l 544 401 q 263 302 351 401 q 176 -1 176 204 q 222 -171 176 -111 q 364 -232 269 -232 q 453 -223 401 -232 q 542 -199 505 -214 l 601 -33 l 663 -33 l 618 -273 q 332 -300 486 -300 z "},"ƹ":{"ha":654,"x_min":-14,"x_max":651,"o":"m 290 -300 q 64 -234 143 -300 q -14 -46 -14 -169 q 69 173 -14 85 q 308 286 152 260 l 121 604 l 126 637 l 651 637 l 618 447 l 569 447 l 566 552 q 521 569 554 563 q 449 576 488 576 l 315 576 l 486 271 l 479 230 l 415 230 q 181 -58 181 230 q 340 -216 181 -216 q 524 -194 434 -216 l 515 -246 q 411 -286 470 -273 q 290 -300 351 -300 z "},"ƺ":{"ha":654,"x_min":-43,"x_max":647,"o":"m 240 -300 q 31 -247 106 -300 q -43 -104 -43 -194 q 36 67 -43 1 q 258 152 115 134 q 353 182 325 161 q 380 243 380 204 q 210 318 380 318 l 155 318 l 162 359 l 402 576 l 286 576 q 212 570 248 576 q 160 553 176 564 l 121 448 l 72 448 l 105 637 l 647 637 l 641 604 l 369 370 q 510 323 470 352 q 551 248 551 295 q 529 173 551 203 q 465 125 507 143 q 328 92 422 106 q 175 34 222 77 q 127 -95 127 -8 q 168 -186 127 -156 q 283 -216 208 -216 q 475 -194 381 -216 l 465 -246 q 362 -286 422 -272 q 240 -300 302 -300 z "},"ƻ":{"ha":694,"x_min":-17,"x_max":663,"o":"m 559 0 l -17 0 l 5 128 q 353 441 248 315 l 101 441 l 115 524 l 414 524 q 475 711 475 621 q 441 818 475 785 q 353 850 408 850 q 245 815 292 850 l 193 684 l 134 684 l 170 890 q 280 911 227 903 q 395 920 334 920 q 592 867 522 920 q 663 724 663 815 q 598 524 663 621 l 655 524 l 641 441 l 531 441 q 245 216 435 340 l 130 140 l 586 140 l 559 0 z "},"Ƽ":{"ha":676,"x_min":5,"x_max":707,"o":"m 340 541 q 540 480 471 541 q 609 305 609 419 q 508 70 609 153 q 220 -14 407 -14 q 128 -9 170 -14 q 5 14 87 -5 l 36 234 l 98 234 l 108 88 q 161 64 127 73 q 230 55 195 55 q 373 119 322 55 q 423 302 423 183 q 290 466 423 466 q 160 439 226 466 l 231 842 l 117 860 l 125 909 l 707 909 l 656 618 l 594 618 l 601 760 q 516 768 578 764 q 380 772 454 772 l 294 772 l 252 536 q 340 541 288 541 z "},"ƽ":{"ha":533,"x_min":-23,"x_max":550,"o":"m 144 576 l 50 593 l 58 637 l 550 637 l 509 406 l 458 406 l 446 503 q 313 515 382 515 l 208 515 l 183 371 l 202 376 q 286 387 237 387 q 436 345 382 387 q 490 219 490 302 q 413 46 490 106 q 184 -14 336 -14 q -23 10 78 -14 l 3 199 l 56 199 l 67 81 q 172 54 114 54 q 281 93 245 54 q 317 222 317 132 q 233 319 317 319 q 159 296 190 319 l 95 296 l 144 576 z "},"ƾ":{"ha":511,"x_min":-7,"x_max":470,"o":"m 281 446 q 290 418 281 428 q 319 397 300 408 q 411 335 383 361 q 455 277 439 309 q 470 201 470 245 q 401 42 470 98 q 194 -14 332 -14 q 82 -2 142 -14 q -7 23 22 10 l 24 200 l 68 200 l 79 111 q 199 50 122 50 q 288 79 254 50 q 321 153 321 109 q 303 201 321 179 q 247 245 285 223 l 202 271 q 122 336 149 300 q 96 417 96 371 q 99 450 96 434 l 120 567 l 42 567 l 50 611 l 146 637 l 240 782 l 339 782 l 313 637 l 420 637 l 408 567 l 301 567 l 283 465 l 281 446 z "},"ƿ":{"ha":701,"x_min":-106,"x_max":692,"o":"m 170 -296 l -106 -296 l -98 -251 l -16 -235 l 127 576 l 54 593 l 62 637 l 334 637 l 313 522 q 418 625 363 595 q 545 654 473 654 q 654 603 616 654 q 692 463 692 551 q 571 151 692 284 q 210 -64 449 18 l 170 -296 m 222 5 q 423 192 354 77 q 492 453 492 307 q 477 536 492 505 q 436 566 462 566 q 375 533 411 566 q 299 439 339 499 l 222 5 z "},"ǀ":{"ha":306,"x_min":98,"x_max":207,"o":"m 207 0 l 98 0 l 98 964 l 207 964 l 207 0 z "},"ǁ":{"ha":480,"x_min":89,"x_max":391,"o":"m 391 0 l 283 0 l 283 964 l 391 964 l 391 0 m 197 0 l 89 0 l 89 964 l 197 964 l 197 0 z "},"ǂ":{"ha":345,"x_min":9,"x_max":379,"o":"m 379 317 l 248 317 l 248 0 l 140 0 l 140 317 l 9 317 l 9 415 l 140 415 l 140 505 l 9 505 l 9 603 l 140 603 l 140 964 l 248 964 l 248 603 l 379 603 l 379 505 l 248 505 l 248 415 l 379 415 l 379 317 z "},"ǃ":{"ha":541,"x_min":106,"x_max":460,"o":"m 281 285 l 217 285 l 258 909 l 460 909 l 281 285 m 218 -20 q 139 13 172 -20 q 106 93 106 45 q 138 173 106 140 q 218 205 171 205 q 298 173 265 205 q 331 93 331 140 q 298 13 331 46 q 218 -20 266 -20 z "},"Ǆ":{"ha":1851,"x_min":-10,"x_max":1816,"o":"m 760 525 q 478 835 760 835 l 453 835 l 319 77 q 404 72 377 72 q 664 193 569 72 q 760 525 760 315 m 503 909 q 851 812 732 909 q 970 534 970 715 q 902 250 970 372 q 704 62 833 127 q 406 -3 576 -3 l 122 0 l -10 0 l -2 50 l 118 68 l 254 842 l 141 860 l 150 909 l 503 909 m 1573 838 l 1443 838 q 1321 833 1376 838 q 1244 824 1266 829 l 1198 681 l 1138 681 l 1178 909 l 1816 909 l 1803 838 l 1245 71 l 1372 71 q 1526 78 1446 71 q 1636 93 1607 86 l 1707 267 l 1768 267 l 1703 0 l 1000 0 l 1013 77 l 1573 838 m 1756 1206 l 1752 1183 l 1570 985 l 1426 985 l 1313 1183 l 1317 1206 l 1369 1206 l 1518 1096 l 1705 1206 l 1756 1206 z "},"ǅ":{"ha":1544,"x_min":-10,"x_max":1593,"o":"m 760 525 q 478 835 760 835 l 453 835 l 319 77 q 404 72 377 72 q 664 193 569 72 q 760 525 760 315 m 503 909 q 851 812 732 909 q 970 534 970 715 q 902 250 970 372 q 704 62 833 127 q 406 -3 576 -3 l 122 0 l -10 0 l -2 50 l 118 68 l 254 842 l 141 860 l 150 909 l 503 909 m 966 0 l 972 34 l 1322 576 l 1274 576 q 1202 570 1238 576 q 1149 553 1166 564 l 1109 448 l 1060 448 l 1093 637 l 1541 637 l 1535 601 l 1185 61 l 1241 61 q 1321 70 1279 61 q 1385 93 1363 79 l 1440 214 l 1489 214 l 1439 0 l 966 0 m 1593 979 l 1589 957 l 1407 758 l 1262 758 l 1149 957 l 1154 979 l 1205 979 l 1354 869 l 1541 979 l 1593 979 z "},"ǆ":{"ha":1235,"x_min":16,"x_max":1284,"o":"m 187 -14 q 63 46 110 -14 q 16 210 16 106 q 60 433 16 330 q 183 594 104 535 q 358 654 262 654 q 476 635 432 654 l 478 655 l 486 719 l 517 903 l 408 920 l 416 964 l 711 964 l 551 58 l 618 41 l 610 0 l 385 0 l 380 98 q 288 15 340 44 q 187 -14 237 -14 m 195 240 q 214 127 195 167 q 264 87 233 87 q 327 114 290 87 q 391 181 363 141 l 457 554 q 415 577 444 568 q 366 587 387 587 q 280 538 320 587 q 218 408 241 490 q 195 240 195 326 m 658 0 l 663 34 l 1013 576 l 966 576 q 893 570 929 576 q 841 553 858 564 l 800 448 l 751 448 l 785 637 l 1232 637 l 1226 601 l 876 61 l 932 61 q 1013 70 970 61 q 1076 93 1055 79 l 1132 214 l 1181 214 l 1131 0 l 658 0 m 1284 979 l 1280 957 l 1098 758 l 954 758 l 841 957 l 845 979 l 897 979 l 1046 869 l 1233 979 l 1284 979 z "},"Ǉ":{"ha":1543,"x_min":-10,"x_max":1579,"o":"m 319 72 l 395 72 q 542 76 460 72 q 650 85 624 81 l 729 275 l 786 275 l 726 0 l -10 0 l -2 50 l 118 68 l 254 842 l 142 860 l 151 909 l 600 909 l 591 860 l 454 842 l 319 72 m 1264 842 l 1151 860 l 1160 909 l 1579 909 l 1571 860 l 1464 842 l 1368 293 q 1252 66 1342 146 q 1014 -14 1161 -14 q 846 7 911 -14 l 882 213 l 939 213 l 941 92 q 1018 58 963 58 q 1103 93 1068 58 q 1149 187 1139 127 l 1264 842 z "},"ǈ":{"ha":1234,"x_min":-10,"x_max":1238,"o":"m 319 72 l 395 72 q 542 76 460 72 q 650 85 624 81 l 729 275 l 786 275 l 726 0 l -10 0 l -2 50 l 118 68 l 254 842 l 142 860 l 151 909 l 600 909 l 591 860 l 454 842 l 319 72 m 781 -296 q 667 -283 720 -296 l 693 -131 l 736 -131 l 752 -211 q 783 -221 766 -221 q 844 -176 818 -221 q 884 -48 870 -130 l 994 570 l 885 593 l 892 637 l 1187 637 l 1071 -26 q 974 -228 1047 -159 q 781 -296 901 -296 m 1030 860 q 1061 934 1030 904 q 1135 964 1092 964 q 1208 933 1178 964 q 1238 860 1238 903 q 1208 786 1238 817 q 1135 755 1179 755 q 1061 786 1091 755 q 1030 860 1030 816 z "},"ǉ":{"ha":772,"x_min":31,"x_max":776,"o":"m 224 61 l 304 45 l 297 0 l 31 0 l 191 903 l 129 919 l 136 964 l 384 964 l 224 61 m 318 -296 q 204 -283 258 -296 l 231 -131 l 273 -131 l 290 -211 q 320 -221 303 -221 q 381 -176 355 -221 q 422 -48 408 -130 l 531 570 l 422 593 l 430 637 l 725 637 l 608 -26 q 511 -228 585 -159 q 318 -296 438 -296 m 568 860 q 598 934 568 904 q 672 964 629 964 q 746 933 715 964 q 776 860 776 903 q 746 786 776 817 q 672 755 716 755 q 598 786 629 755 q 568 860 568 816 z "},"Ǌ":{"ha":1697,"x_min":-13,"x_max":1613,"o":"m 831 842 l 712 860 l 721 909 l 1044 909 l 1036 860 l 916 842 l 768 0 l 690 0 l 323 754 l 200 68 l 319 50 l 311 0 l -13 0 l -5 50 l 115 68 l 252 842 l 138 860 l 147 909 l 441 909 l 736 303 l 831 842 m 1298 842 l 1185 860 l 1194 909 l 1613 909 l 1605 860 l 1498 842 l 1402 293 q 1285 66 1376 146 q 1048 -14 1195 -14 q 880 7 945 -14 l 916 213 l 972 213 l 975 92 q 1052 58 997 58 q 1137 93 1102 58 q 1183 187 1173 127 l 1298 842 z "},"ǋ":{"ha":1389,"x_min":-13,"x_max":1393,"o":"m 831 842 l 712 860 l 721 909 l 1044 909 l 1036 860 l 916 842 l 768 0 l 690 0 l 323 754 l 200 68 l 319 50 l 311 0 l -13 0 l -5 50 l 115 68 l 252 842 l 138 860 l 147 909 l 441 909 l 736 303 l 831 842 m 935 -296 q 821 -283 875 -296 l 848 -131 l 890 -131 l 907 -211 q 937 -221 920 -221 q 999 -176 972 -221 q 1039 -48 1025 -130 l 1148 570 l 1040 593 l 1047 637 l 1342 637 l 1225 -26 q 1128 -228 1202 -159 q 935 -296 1055 -296 m 1185 860 q 1216 934 1185 904 q 1289 964 1246 964 q 1363 933 1333 964 q 1393 860 1393 903 q 1363 786 1393 817 q 1289 755 1333 755 q 1215 786 1246 755 q 1185 860 1185 816 z "},"ǌ":{"ha":1158,"x_min":28,"x_max":1162,"o":"m 518 492 q 456 557 518 557 q 360 510 414 557 q 281 403 307 463 l 209 0 l 28 0 l 129 576 l 68 593 l 77 637 l 304 637 l 298 519 q 556 654 404 654 q 663 618 623 654 q 702 517 702 583 q 685 393 702 482 l 626 61 l 705 45 l 696 0 l 434 0 l 503 386 q 518 492 518 465 m 705 -296 q 591 -283 644 -296 l 617 -131 l 660 -131 l 676 -211 q 707 -221 690 -221 q 768 -176 742 -221 q 808 -48 794 -130 l 918 570 l 809 593 l 817 637 l 1112 637 l 995 -26 q 898 -228 971 -159 q 705 -296 825 -296 m 954 860 q 985 934 954 904 q 1059 964 1016 964 q 1132 933 1102 964 q 1162 860 1162 903 q 1133 786 1162 817 q 1059 755 1103 755 q 985 786 1015 755 q 954 860 954 816 z "},"Ǎ":{"ha":926,"x_min":-72,"x_max":869,"o":"m 205 50 l 195 0 l -72 0 l -62 50 l 7 68 l 460 917 l 623 917 l 795 68 l 869 50 l 860 0 l 488 0 l 497 50 l 591 68 l 549 303 l 229 303 l 104 68 l 205 50 m 467 758 l 267 378 l 536 378 l 467 758 m 809 1206 l 805 1183 l 623 985 l 478 985 l 366 1183 l 370 1206 l 421 1206 l 570 1096 l 758 1206 l 809 1206 z "},"ǎ":{"ha":694,"x_min":16,"x_max":678,"o":"m 558 61 l 632 39 l 627 0 l 391 0 l 389 94 q 298 15 349 43 q 195 -14 248 -14 q 63 47 111 -14 q 16 216 16 108 q 66 436 16 335 q 204 596 115 538 q 399 654 292 654 q 569 623 492 654 l 625 648 l 661 648 l 558 61 m 195 238 q 218 127 195 168 q 277 86 241 86 q 337 113 304 86 q 397 180 370 140 l 464 562 q 380 585 433 585 q 287 537 330 585 q 219 408 244 490 q 195 238 195 326 m 678 979 l 674 957 l 492 758 l 347 758 l 235 957 l 239 979 l 290 979 l 439 869 l 627 979 l 678 979 z "},"Ǐ":{"ha":541,"x_min":-14,"x_max":635,"o":"m 315 68 l 428 50 l 419 0 l -14 0 l -5 50 l 115 68 l 251 842 l 138 860 l 146 909 l 580 909 l 571 860 l 451 842 l 315 68 m 635 1206 l 631 1183 l 449 985 l 304 985 l 192 1183 l 196 1206 l 248 1206 l 397 1096 l 584 1206 l 635 1206 z "},"ǐ":{"ha":386,"x_min":32,"x_max":511,"o":"m 225 61 l 306 45 l 298 0 l 32 0 l 134 576 l 72 593 l 79 637 l 327 637 l 225 61 m 511 979 l 507 957 l 324 758 l 180 758 l 67 957 l 71 979 l 123 979 l 272 869 l 459 979 l 511 979 z "},"Ǒ":{"ha":1003,"x_min":50,"x_max":964,"o":"m 760 572 q 708 774 760 701 q 564 848 656 848 q 412 781 481 848 q 298 584 342 713 q 254 329 254 456 q 304 129 254 201 q 446 56 355 56 q 600 123 530 56 q 715 317 670 191 q 760 572 760 443 m 433 -14 q 234 33 321 -14 q 98 164 146 79 q 50 355 50 248 q 117 649 50 519 q 303 849 183 779 q 581 920 424 920 q 780 873 693 920 q 916 742 867 827 q 964 551 964 658 q 896 255 964 388 q 709 54 827 121 q 433 -14 591 -14 m 864 1206 l 860 1183 l 677 985 l 533 985 l 420 1183 l 425 1206 l 476 1206 l 625 1096 l 812 1206 l 864 1206 z "},"ǒ":{"ha":694,"x_min":22,"x_max":672,"o":"m 463 424 q 378 587 463 587 q 294 536 336 587 q 227 397 252 484 q 201 216 201 311 q 227 96 201 138 q 291 54 252 54 q 375 104 334 54 q 439 239 416 154 q 463 424 463 325 m 275 -14 q 91 59 160 -14 q 22 254 22 132 q 69 456 22 363 q 202 601 117 548 q 393 654 287 654 q 578 582 509 654 q 647 387 647 509 q 600 185 647 277 q 467 40 552 93 q 275 -14 382 -14 m 672 979 l 668 957 l 486 758 l 341 758 l 229 957 l 233 979 l 284 979 l 433 869 l 621 979 l 672 979 z "},"Ǔ":{"ha":1003,"x_min":113,"x_max":1063,"o":"m 113 860 l 122 909 l 542 909 l 533 860 l 413 842 l 336 397 q 321 264 321 309 q 502 83 321 83 q 681 142 611 83 q 770 314 750 201 l 863 842 l 745 860 l 753 909 l 1063 909 l 1054 860 l 947 842 l 856 319 q 729 67 825 148 q 467 -13 632 -13 q 212 61 302 -13 q 122 271 122 134 q 136 395 122 314 l 213 842 l 113 860 m 871 1206 l 867 1183 l 684 985 l 540 985 l 427 1183 l 431 1206 l 483 1206 l 632 1096 l 819 1206 l 871 1206 z "},"ǔ":{"ha":772,"x_min":51,"x_max":727,"o":"m 237 146 q 299 81 237 81 q 397 129 342 81 q 475 235 451 178 l 547 637 l 727 637 l 627 62 l 701 45 l 692 0 l 452 0 l 457 119 q 199 -16 352 -16 q 92 21 131 -16 q 54 127 54 58 q 58 171 54 140 q 130 576 62 202 l 51 593 l 60 637 l 321 637 l 252 252 q 237 146 237 174 m 713 979 l 709 957 l 527 758 l 382 758 l 270 957 l 274 979 l 326 979 l 475 869 l 662 979 l 713 979 z "},"Ǖ":{"ha":1003,"x_min":113,"x_max":1063,"o":"m 113 860 l 122 909 l 542 909 l 533 860 l 413 842 l 336 397 q 321 264 321 309 q 502 83 321 83 q 681 142 611 83 q 770 314 750 201 l 863 842 l 745 860 l 753 909 l 1063 909 l 1054 860 l 947 842 l 856 319 q 729 67 825 148 q 467 -13 632 -13 q 212 61 302 -13 q 122 271 122 134 q 136 395 122 314 l 213 842 l 113 860 m 422 1143 l 439 1238 l 864 1238 l 847 1143 l 422 1143 m 738 966 q 692 984 713 966 q 672 1031 672 1003 q 691 1077 672 1059 q 738 1096 711 1096 q 784 1077 766 1096 q 802 1031 802 1059 q 784 985 802 1005 q 738 966 765 966 m 522 966 q 476 985 496 966 q 456 1031 456 1005 q 476 1077 456 1058 q 522 1096 495 1096 q 568 1077 549 1096 q 587 1031 587 1059 q 567 984 587 1003 q 522 966 547 966 z "},"ǖ":{"ha":772,"x_min":51,"x_max":727,"o":"m 237 146 q 299 81 237 81 q 397 129 342 81 q 475 235 451 178 l 547 637 l 727 637 l 627 62 l 701 45 l 692 0 l 452 0 l 457 119 q 199 -16 352 -16 q 92 21 131 -16 q 54 127 54 58 q 58 171 54 140 q 130 576 62 202 l 51 593 l 60 637 l 321 637 l 252 252 q 237 146 237 174 m 569 766 q 512 790 536 766 q 487 848 487 814 q 512 906 487 882 q 569 929 536 929 q 626 906 602 929 q 650 848 650 883 q 626 790 650 814 q 569 766 602 766 m 328 766 q 270 791 295 766 q 245 848 245 817 q 270 905 245 881 q 328 929 294 929 q 385 905 361 929 q 408 848 408 881 q 385 790 408 814 q 328 766 361 766 m 264 957 l 281 1059 l 707 1059 l 690 957 l 264 957 z "},"Ǘ":{"ha":1003,"x_min":113,"x_max":1063,"o":"m 113 860 l 122 909 l 542 909 l 533 860 l 413 842 l 336 397 q 321 264 321 309 q 502 83 321 83 q 681 142 611 83 q 770 314 750 201 l 863 842 l 745 860 l 753 909 l 1063 909 l 1054 860 l 947 842 l 856 319 q 729 67 825 148 q 467 -13 632 -13 q 212 61 302 -13 q 122 271 122 134 q 136 395 122 314 l 213 842 l 113 860 m 749 936 q 703 955 724 936 q 683 1002 683 973 q 702 1047 683 1029 q 749 1066 722 1066 q 795 1047 777 1066 q 813 1002 813 1029 q 794 956 813 975 q 749 936 776 936 m 536 936 q 490 956 509 936 q 470 1002 470 975 q 489 1047 470 1028 q 536 1066 509 1066 q 582 1047 563 1066 q 600 1002 600 1029 q 581 955 600 973 q 536 936 561 936 m 610 1090 l 614 1113 l 703 1230 l 835 1230 l 830 1205 l 668 1090 l 610 1090 z "},"ǘ":{"ha":772,"x_min":51,"x_max":739,"o":"m 237 146 q 299 81 237 81 q 397 129 342 81 q 475 235 451 178 l 547 637 l 727 637 l 627 62 l 701 45 l 692 0 l 452 0 l 457 119 q 199 -16 352 -16 q 92 21 131 -16 q 54 127 54 58 q 58 171 54 140 q 130 576 62 202 l 51 593 l 60 637 l 321 637 l 252 252 q 237 146 237 174 m 570 746 q 513 770 538 746 q 488 828 488 794 q 513 885 488 862 q 570 909 538 909 q 627 886 604 909 q 651 828 651 863 q 627 770 651 794 q 570 746 604 746 m 329 746 q 272 771 296 746 q 247 828 247 796 q 271 885 247 861 q 329 909 296 909 q 386 885 362 909 q 410 828 410 861 q 386 770 410 794 q 329 746 362 746 m 409 911 l 413 934 l 546 1118 l 739 1118 l 736 1093 l 467 911 l 409 911 z "},"Ǚ":{"ha":1003,"x_min":113,"x_max":1063,"o":"m 113 860 l 122 909 l 542 909 l 533 860 l 413 842 l 336 397 q 321 264 321 309 q 502 83 321 83 q 681 142 611 83 q 770 314 750 201 l 863 842 l 745 860 l 753 909 l 1063 909 l 1054 860 l 947 842 l 856 319 q 729 67 825 148 q 467 -13 632 -13 q 212 61 302 -13 q 122 271 122 134 q 136 395 122 314 l 213 842 l 113 860 m 745 938 q 700 957 720 938 q 680 1004 680 975 q 699 1049 680 1031 q 745 1068 718 1068 q 791 1049 773 1068 q 810 1004 810 1031 q 791 958 810 977 q 745 938 772 938 m 532 938 q 486 958 506 938 q 467 1004 467 977 q 486 1049 467 1030 q 532 1068 505 1068 q 578 1049 559 1068 q 597 1004 597 1031 q 577 957 597 975 q 532 938 557 938 m 874 1241 l 870 1219 l 696 1077 l 581 1077 l 458 1219 l 463 1241 l 511 1241 l 650 1156 l 819 1241 l 874 1241 z "},"ǚ":{"ha":772,"x_min":51,"x_max":727,"o":"m 237 146 q 299 81 237 81 q 397 129 342 81 q 475 235 451 178 l 547 637 l 727 637 l 627 62 l 701 45 l 692 0 l 452 0 l 457 119 q 199 -16 352 -16 q 92 21 131 -16 q 54 127 54 58 q 58 171 54 140 q 130 576 62 202 l 51 593 l 60 637 l 321 637 l 252 252 q 237 146 237 174 m 569 746 q 512 770 536 746 q 487 828 487 794 q 512 885 487 862 q 569 909 536 909 q 626 886 602 909 q 650 828 650 863 q 626 770 650 794 q 569 746 602 746 m 328 746 q 270 771 295 746 q 245 828 245 796 q 270 885 245 861 q 328 909 294 909 q 385 885 361 909 q 408 828 408 861 q 385 770 408 794 q 328 746 361 746 m 709 1133 l 705 1110 l 523 911 l 378 911 l 266 1110 l 270 1133 l 321 1133 l 471 1023 l 658 1133 l 709 1133 z "},"Ǜ":{"ha":1003,"x_min":113,"x_max":1063,"o":"m 113 860 l 122 909 l 542 909 l 533 860 l 413 842 l 336 397 q 321 264 321 309 q 502 83 321 83 q 681 142 611 83 q 770 314 750 201 l 863 842 l 745 860 l 753 909 l 1063 909 l 1054 860 l 947 842 l 856 319 q 729 67 825 148 q 467 -13 632 -13 q 212 61 302 -13 q 122 271 122 134 q 136 395 122 314 l 213 842 l 113 860 m 619 1091 l 491 1206 l 496 1231 l 628 1231 l 674 1114 l 670 1091 l 619 1091 m 745 938 q 699 957 720 938 q 679 1004 679 975 q 698 1049 679 1031 q 745 1068 718 1068 q 791 1049 772 1068 q 809 1004 809 1031 q 790 958 809 977 q 745 938 772 938 m 532 938 q 486 958 505 938 q 466 1004 466 977 q 485 1049 466 1030 q 532 1068 505 1068 q 577 1049 559 1068 q 596 1004 596 1031 q 576 957 596 975 q 532 938 557 938 z "},"ǜ":{"ha":772,"x_min":51,"x_max":727,"o":"m 237 146 q 299 81 237 81 q 397 129 342 81 q 475 235 451 178 l 547 637 l 727 637 l 627 62 l 701 45 l 692 0 l 452 0 l 457 119 q 199 -16 352 -16 q 92 21 131 -16 q 54 127 54 58 q 58 171 54 140 q 130 576 62 202 l 51 593 l 60 637 l 321 637 l 252 252 q 237 146 237 174 m 563 746 q 506 770 530 746 q 481 828 481 794 q 506 885 481 862 q 563 909 530 909 q 620 886 596 909 q 644 828 644 863 q 620 770 644 794 q 563 746 596 746 m 321 746 q 264 771 289 746 q 239 828 239 796 q 264 885 239 861 q 321 909 288 909 q 378 885 355 909 q 402 828 402 861 q 378 770 402 794 q 321 746 355 746 m 448 911 l 233 1093 l 238 1118 l 418 1118 l 511 933 l 507 911 l 448 911 z "},"ǝ":{"ha":616,"x_min":16,"x_max":569,"o":"m 16 125 q 60 238 16 186 q 189 322 105 290 q 381 364 272 355 l 385 410 q 262 570 385 570 q 169 551 212 570 q 89 507 126 532 l 59 549 q 189 627 119 600 q 323 654 258 654 q 506 594 443 654 q 569 417 569 534 q 519 201 569 300 q 389 44 470 101 q 220 -14 307 -14 q 71 24 126 -14 q 16 125 16 62 m 370 296 q 233 235 285 286 q 181 117 181 184 q 195 74 181 88 q 228 60 209 60 q 315 128 274 60 q 370 296 355 197 z "},"Ǟ":{"ha":926,"x_min":-72,"x_max":869,"o":"m 205 50 l 195 0 l -72 0 l -62 50 l 7 68 l 460 917 l 623 917 l 795 68 l 869 50 l 860 0 l 488 0 l 497 50 l 591 68 l 549 303 l 229 303 l 104 68 l 205 50 m 467 758 l 267 378 l 536 378 l 467 758 m 363 1143 l 380 1238 l 805 1238 l 788 1143 l 363 1143 m 679 966 q 633 984 654 966 q 613 1031 613 1003 q 632 1077 613 1059 q 679 1096 652 1096 q 725 1077 707 1096 q 743 1031 743 1059 q 725 985 743 1005 q 679 966 706 966 m 463 966 q 417 985 437 966 q 397 1031 397 1005 q 417 1077 397 1058 q 463 1096 436 1096 q 509 1077 490 1096 q 528 1031 528 1059 q 508 984 528 1003 q 463 966 488 966 z "},"ǟ":{"ha":694,"x_min":16,"x_max":684,"o":"m 558 61 l 632 39 l 627 0 l 391 0 l 389 94 q 298 15 349 43 q 195 -14 248 -14 q 63 47 111 -14 q 16 216 16 108 q 66 436 16 335 q 204 596 115 538 q 399 654 292 654 q 569 623 492 654 l 625 648 l 661 648 l 558 61 m 195 238 q 218 127 195 168 q 277 86 241 86 q 337 113 304 86 q 397 180 370 140 l 464 562 q 380 585 433 585 q 287 537 330 585 q 219 408 244 490 q 195 238 195 326 m 553 766 q 495 790 520 766 q 471 848 471 814 q 495 906 471 882 q 553 929 520 929 q 610 906 586 929 q 633 848 633 883 q 610 790 633 814 q 553 766 586 766 m 311 766 q 254 791 279 766 q 229 848 229 817 q 254 905 229 881 q 311 929 278 929 q 368 905 345 929 q 392 848 392 881 q 368 790 392 814 q 311 766 345 766 m 240 957 l 258 1059 l 684 1059 l 666 957 l 240 957 z "},"Ǡ":{"ha":926,"x_min":-72,"x_max":869,"o":"m 205 50 l 195 0 l -72 0 l -62 50 l 7 68 l 460 917 l 623 917 l 795 68 l 869 50 l 860 0 l 488 0 l 497 50 l 591 68 l 549 303 l 229 303 l 104 68 l 205 50 m 467 758 l 267 378 l 536 378 l 467 758 m 355 1157 l 372 1251 l 797 1251 l 780 1157 l 355 1157 m 469 1038 q 495 1101 469 1076 q 561 1126 522 1126 q 625 1100 599 1126 q 652 1037 652 1074 q 626 975 652 1000 q 562 949 600 949 q 494 974 519 949 q 469 1038 469 1000 z "},"ǡ":{"ha":694,"x_min":16,"x_max":680,"o":"m 558 61 l 632 39 l 627 0 l 391 0 l 389 94 q 298 15 349 43 q 195 -14 248 -14 q 63 47 111 -14 q 16 216 16 108 q 66 436 16 335 q 204 596 115 538 q 399 654 292 654 q 569 623 492 654 l 625 648 l 661 648 l 558 61 m 195 238 q 218 127 195 168 q 277 86 241 86 q 337 113 304 86 q 397 180 370 140 l 464 562 q 380 585 433 585 q 287 537 330 585 q 219 408 244 490 q 195 238 195 326 m 326 815 q 356 889 326 859 q 430 919 387 919 q 504 889 473 919 q 534 815 534 859 q 504 742 534 772 q 430 711 474 711 q 356 741 387 711 q 326 815 326 771 m 237 957 l 254 1059 l 680 1059 l 663 957 l 237 957 z "},"Ǣ":{"ha":1311,"x_min":-109,"x_max":1248,"o":"m 562 849 l 466 861 l 474 909 l 1248 909 l 1207 678 l 1145 678 l 1149 825 q 972 835 1076 835 l 837 835 l 778 501 l 970 501 l 1008 602 l 1069 602 l 1019 322 l 959 322 l 956 425 l 764 425 l 703 75 l 869 75 q 1059 85 1002 75 l 1127 254 l 1189 254 l 1132 0 l 373 0 l 381 50 l 501 68 l 543 303 l 263 303 l 91 68 l 192 50 l 184 0 l -109 0 l -101 50 l -16 68 l 562 849 m 556 378 l 632 812 l 318 378 l 556 378 m 669 1007 l 686 1109 l 1112 1109 l 1095 1007 l 669 1007 z "},"ǣ":{"ha":1003,"x_min":18,"x_max":972,"o":"m 611 345 q 714 377 667 351 q 788 444 762 404 q 814 524 814 483 q 797 567 814 553 q 762 581 781 581 q 669 510 713 581 q 611 345 625 439 m 602 607 q 682 642 636 630 q 770 654 728 654 q 919 616 865 654 q 972 515 972 578 q 927 404 972 455 q 797 319 882 352 q 602 277 711 286 q 598 231 598 263 q 632 112 598 154 q 728 71 665 71 q 797 82 762 71 q 892 134 832 94 l 922 92 q 793 14 863 42 q 659 -14 724 -14 q 437 107 486 -14 q 329 15 384 45 q 210 -14 274 -14 q 71 48 123 -14 q 18 216 18 110 q 70 434 18 333 q 213 595 121 536 q 414 654 305 654 q 504 641 452 654 q 602 607 557 629 m 422 179 l 420 224 q 449 391 420 309 q 527 534 477 473 q 456 573 492 560 q 395 585 420 585 q 298 537 344 585 q 224 406 252 488 q 196 238 196 323 q 220 126 196 165 q 286 86 243 86 q 358 115 316 86 q 422 179 399 144 m 353 781 l 371 882 l 797 882 l 779 781 l 353 781 z "},"Ǥ":{"ha":1003,"x_min":47,"x_max":987,"o":"m 47 355 q 120 653 47 525 q 324 850 192 781 q 627 920 456 920 q 949 878 793 920 l 911 669 l 854 669 l 855 787 q 638 848 774 848 q 443 785 530 848 q 307 606 355 722 q 258 341 258 490 q 316 132 258 207 q 480 56 374 56 q 641 85 568 56 l 657 176 l 491 176 l 505 258 l 671 258 l 687 343 l 574 365 l 582 411 l 987 411 l 979 365 l 887 343 l 872 258 l 960 258 l 946 176 l 857 176 l 835 47 q 644 1 734 16 q 449 -14 553 -14 q 153 84 258 -14 q 47 355 47 182 z "},"ǥ":{"ha":694,"x_min":-26,"x_max":658,"o":"m 159 -83 l 350 -83 l 356 -51 q 388 98 372 49 q 295 15 347 45 q 195 -16 244 -16 q 68 45 116 -16 q 20 211 20 106 q 66 436 20 332 q 193 597 112 540 q 376 654 274 654 q 658 626 487 654 l 541 -24 q 526 -83 532 -67 l 614 -83 l 604 -144 l 501 -144 q 383 -260 458 -225 q 199 -296 307 -296 q 74 -282 136 -296 q -26 -248 11 -269 l -11 -76 l 27 -76 l 52 -165 q 115 -206 76 -190 q 200 -222 153 -222 q 281 -201 252 -222 q 329 -144 311 -181 l 149 -144 l 159 -83 m 198 241 q 220 128 198 169 q 276 87 242 87 q 332 111 300 87 q 395 176 364 135 l 467 570 q 380 587 427 587 q 288 541 330 587 q 222 411 247 494 q 198 241 198 328 z "},"Ǧ":{"ha":1003,"x_min":47,"x_max":987,"o":"m 47 355 q 120 653 47 525 q 324 850 192 781 q 627 920 456 920 q 949 878 793 920 l 911 669 l 854 669 l 855 787 q 638 848 774 848 q 443 785 530 848 q 307 606 355 722 q 258 341 258 490 q 316 132 258 207 q 480 56 374 56 q 641 85 568 56 l 687 343 l 574 365 l 582 411 l 987 411 l 979 365 l 887 343 l 835 47 q 644 1 734 16 q 449 -14 553 -14 q 153 84 258 -14 q 47 355 47 182 m 869 1206 l 865 1183 l 682 985 l 538 985 l 425 1183 l 429 1206 l 481 1206 l 630 1096 l 817 1206 l 869 1206 z "},"ǧ":{"ha":694,"x_min":-26,"x_max":673,"o":"m 198 241 q 220 128 198 169 q 276 87 242 87 q 332 111 300 87 q 395 176 364 135 l 467 570 q 380 587 427 587 q 288 541 330 587 q 222 411 247 494 q 198 241 198 328 m 20 211 q 66 436 20 332 q 193 597 112 540 q 376 654 274 654 q 658 626 487 654 l 541 -24 q 432 -230 515 -164 q 199 -296 349 -296 q 74 -282 136 -296 q -26 -248 11 -269 l -11 -76 l 27 -76 l 52 -165 q 115 -206 76 -190 q 200 -222 153 -222 q 276 -205 245 -222 q 325 -154 307 -188 q 356 -51 344 -121 q 388 98 372 49 q 295 15 347 45 q 195 -16 244 -16 q 68 45 116 -16 q 20 211 20 106 m 673 979 l 669 957 l 487 758 l 342 758 l 230 957 l 234 979 l 286 979 l 435 869 l 622 979 l 673 979 z "},"Ǩ":{"ha":926,"x_min":-10,"x_max":1004,"o":"m 318 68 l 439 50 l 431 0 l -10 0 l -2 50 l 118 68 l 254 842 l 141 860 l 150 909 l 576 909 l 568 860 l 454 842 l 393 487 l 783 842 l 707 860 l 715 909 l 1004 909 l 995 860 l 901 842 l 580 551 l 819 68 l 910 50 l 902 0 l 640 0 l 439 431 l 376 401 l 318 68 m 847 1206 l 843 1183 l 661 985 l 516 985 l 404 1183 l 408 1206 l 459 1206 l 608 1096 l 795 1206 l 847 1206 z "},"ǩ":{"ha":694,"x_min":19,"x_max":725,"o":"m 263 344 l 501 577 l 443 593 l 450 637 l 684 637 l 676 593 l 614 578 l 449 426 l 600 61 l 654 45 l 646 0 l 433 0 l 321 307 l 248 260 l 201 0 l 19 0 l 178 903 l 116 919 l 124 964 l 372 964 l 263 344 m 725 1233 l 721 1211 l 538 1012 l 394 1012 l 281 1211 l 286 1233 l 337 1233 l 486 1123 l 673 1233 l 725 1233 z "},"Ǫ":{"ha":1003,"x_min":50,"x_max":964,"o":"m 760 572 q 708 774 760 701 q 564 848 656 848 q 412 781 481 848 q 298 584 342 713 q 254 329 254 456 q 304 129 254 201 q 446 56 355 56 q 600 123 530 56 q 715 317 670 191 q 760 572 760 443 m 433 -14 q 234 33 321 -14 q 98 164 146 79 q 50 355 50 248 q 117 649 50 519 q 303 849 183 779 q 581 920 424 920 q 780 873 693 920 q 916 742 867 827 q 964 551 964 658 q 896 255 964 388 q 709 54 827 121 q 433 -14 591 -14 m 466 -292 q 353 -257 392 -292 q 313 -155 313 -222 q 337 -63 313 -110 q 400 9 361 -17 l 490 9 q 454 -64 468 -24 q 439 -140 439 -104 q 510 -217 439 -217 q 585 -199 545 -217 l 605 -256 q 466 -292 543 -292 z "},"ǫ":{"ha":694,"x_min":22,"x_max":647,"o":"m 463 424 q 378 587 463 587 q 294 536 336 587 q 227 397 252 484 q 201 216 201 311 q 227 96 201 138 q 291 54 252 54 q 375 104 334 54 q 439 239 416 154 q 463 424 463 325 m 275 -14 q 91 59 160 -14 q 22 254 22 132 q 69 456 22 363 q 202 601 117 548 q 393 654 287 654 q 578 582 509 654 q 647 387 647 509 q 600 185 647 277 q 467 40 552 93 q 275 -14 382 -14 m 303 -292 q 190 -257 229 -292 q 151 -155 151 -222 q 175 -63 151 -110 q 237 9 199 -17 l 327 9 q 291 -64 305 -24 q 277 -140 277 -104 q 347 -217 277 -217 q 422 -199 382 -217 l 442 -256 q 303 -292 380 -292 z "},"Ǭ":{"ha":1003,"x_min":50,"x_max":964,"o":"m 760 572 q 708 774 760 701 q 564 848 656 848 q 412 781 481 848 q 298 584 342 713 q 254 329 254 456 q 304 129 254 201 q 446 56 355 56 q 600 123 530 56 q 715 317 670 191 q 760 572 760 443 m 433 -14 q 234 33 321 -14 q 98 164 146 79 q 50 355 50 248 q 117 649 50 519 q 303 849 183 779 q 581 920 424 920 q 780 873 693 920 q 916 742 867 827 q 964 551 964 658 q 896 255 964 388 q 709 54 827 121 q 433 -14 591 -14 m 396 1007 l 414 1109 l 840 1109 l 822 1007 l 396 1007 m 466 -292 q 353 -257 392 -292 q 313 -155 313 -222 q 337 -63 313 -110 q 400 9 361 -17 l 490 9 q 454 -64 468 -24 q 439 -140 439 -104 q 510 -217 439 -217 q 585 -199 545 -217 l 605 -256 q 466 -292 543 -292 z "},"ǭ":{"ha":694,"x_min":22,"x_max":647,"o":"m 203 781 l 221 882 l 647 882 l 629 781 l 203 781 m 463 424 q 378 587 463 587 q 294 536 336 587 q 227 397 252 484 q 201 216 201 311 q 227 96 201 138 q 291 54 252 54 q 375 104 334 54 q 439 239 416 154 q 463 424 463 325 m 275 -14 q 91 59 160 -14 q 22 254 22 132 q 69 456 22 363 q 202 601 117 548 q 393 654 287 654 q 578 582 509 654 q 647 387 647 509 q 600 185 647 277 q 467 40 552 93 q 275 -14 382 -14 m 303 -292 q 190 -257 229 -292 q 151 -155 151 -222 q 175 -63 151 -110 q 237 9 199 -17 l 327 9 q 291 -64 305 -24 q 277 -140 277 -104 q 347 -217 277 -217 q 422 -199 382 -217 l 442 -256 q 303 -292 380 -292 z "},"Ǯ":{"ha":751,"x_min":-115,"x_max":722,"o":"m 163 -300 q -115 -273 7 -300 l -75 -33 l -13 -33 l -13 -199 q 69 -223 19 -214 q 157 -232 119 -232 q 379 -131 304 -232 q 455 159 455 -31 q 389 339 455 277 q 194 401 322 401 l 146 401 l 158 473 l 489 838 l 408 838 q 208 824 268 838 l 162 681 l 102 681 l 142 909 l 722 909 l 709 838 l 364 460 q 656 162 656 418 q 596 -85 656 20 q 424 -245 536 -191 q 163 -300 312 -300 m 657 1206 l 653 1183 l 471 985 l 326 985 l 214 1183 l 218 1206 l 269 1206 l 418 1096 l 606 1206 l 657 1206 z "},"ǯ":{"ha":654,"x_min":-77,"x_max":637,"o":"m 130 -300 q 14 -286 69 -300 q -77 -246 -42 -272 l -67 -194 q 109 -216 15 -216 q 286 -143 227 -216 q 345 64 345 -71 q 308 189 345 147 q 191 230 271 230 l 127 230 l 134 271 l 387 576 l 280 576 q 205 570 242 576 q 154 553 169 564 l 114 448 l 65 448 l 99 637 l 624 637 l 618 604 l 345 286 q 543 66 543 252 q 494 -127 543 -45 q 353 -255 446 -210 q 130 -300 260 -300 m 637 979 l 633 957 l 450 758 l 306 758 l 193 957 l 197 979 l 249 979 l 398 869 l 585 979 l 637 979 z "},"ǰ":{"ha":386,"x_min":-182,"x_max":530,"o":"m -68 -296 q -182 -283 -128 -296 l -155 -131 l -113 -131 l -96 -211 q -66 -221 -83 -221 q -4 -176 -31 -221 q 36 -48 22 -130 l 145 570 l 37 593 l 44 637 l 339 637 l 222 -26 q 125 -228 199 -159 q -68 -296 52 -296 m 530 979 l 526 957 l 343 758 l 199 758 l 86 957 l 90 979 l 142 979 l 291 869 l 478 979 l 530 979 z "},"Ǳ":{"ha":1851,"x_min":-10,"x_max":1816,"o":"m 760 525 q 478 835 760 835 l 453 835 l 319 77 q 404 72 377 72 q 664 193 569 72 q 760 525 760 315 m 503 909 q 851 812 732 909 q 970 534 970 715 q 902 250 970 372 q 704 62 833 127 q 406 -3 576 -3 l 122 0 l -10 0 l -2 50 l 118 68 l 254 842 l 141 860 l 150 909 l 503 909 m 1573 838 l 1443 838 q 1321 833 1376 838 q 1244 824 1266 829 l 1198 681 l 1138 681 l 1178 909 l 1816 909 l 1803 838 l 1245 71 l 1372 71 q 1526 78 1446 71 q 1636 93 1607 86 l 1707 267 l 1768 267 l 1703 0 l 1000 0 l 1013 77 l 1573 838 z "},"ǲ":{"ha":1544,"x_min":-10,"x_max":1541,"o":"m 760 525 q 478 835 760 835 l 453 835 l 319 77 q 404 72 377 72 q 664 193 569 72 q 760 525 760 315 m 503 909 q 851 812 732 909 q 970 534 970 715 q 902 250 970 372 q 704 62 833 127 q 406 -3 576 -3 l 122 0 l -10 0 l -2 50 l 118 68 l 254 842 l 141 860 l 150 909 l 503 909 m 966 0 l 972 34 l 1322 576 l 1274 576 q 1202 570 1238 576 q 1149 553 1166 564 l 1109 448 l 1060 448 l 1093 637 l 1541 637 l 1535 601 l 1185 61 l 1241 61 q 1321 70 1279 61 q 1385 93 1363 79 l 1440 214 l 1489 214 l 1439 0 l 966 0 z "},"ǳ":{"ha":1235,"x_min":16,"x_max":1232,"o":"m 187 -14 q 63 46 110 -14 q 16 210 16 106 q 60 433 16 330 q 183 594 104 535 q 358 654 262 654 q 476 635 432 654 l 478 655 l 486 719 l 517 903 l 408 920 l 416 964 l 711 964 l 551 58 l 618 41 l 610 0 l 385 0 l 380 98 q 288 15 340 44 q 187 -14 237 -14 m 195 240 q 214 127 195 167 q 264 87 233 87 q 327 114 290 87 q 391 181 363 141 l 457 554 q 415 577 444 568 q 366 587 387 587 q 280 538 320 587 q 218 408 241 490 q 195 240 195 326 m 658 0 l 663 34 l 1013 576 l 966 576 q 893 570 929 576 q 841 553 858 564 l 800 448 l 751 448 l 785 637 l 1232 637 l 1226 601 l 876 61 l 932 61 q 1013 70 970 61 q 1076 93 1055 79 l 1132 214 l 1181 214 l 1131 0 l 658 0 z "},"Ǵ":{"ha":1003,"x_min":47,"x_max":987,"o":"m 47 355 q 120 653 47 525 q 324 850 192 781 q 627 920 456 920 q 949 878 793 920 l 911 669 l 854 669 l 855 787 q 638 848 774 848 q 443 785 530 848 q 307 606 355 722 q 258 341 258 490 q 316 132 258 207 q 480 56 374 56 q 641 85 568 56 l 687 343 l 574 365 l 582 411 l 987 411 l 979 365 l 887 343 l 835 47 q 644 1 734 16 q 449 -14 553 -14 q 153 84 258 -14 q 47 355 47 182 m 511 985 l 515 1007 l 648 1192 l 841 1192 l 838 1166 l 569 985 l 511 985 z "},"ǵ":{"ha":694,"x_min":-26,"x_max":663,"o":"m 198 241 q 220 128 198 169 q 276 87 242 87 q 332 111 300 87 q 395 176 364 135 l 467 570 q 380 587 427 587 q 288 541 330 587 q 222 411 247 494 q 198 241 198 328 m 20 211 q 66 436 20 332 q 193 597 112 540 q 376 654 274 654 q 658 626 487 654 l 541 -24 q 432 -230 515 -164 q 199 -296 349 -296 q 74 -282 136 -296 q -26 -248 11 -269 l -11 -76 l 27 -76 l 52 -165 q 115 -206 76 -190 q 200 -222 153 -222 q 276 -205 245 -222 q 325 -154 307 -188 q 356 -51 344 -121 q 388 98 372 49 q 295 15 347 45 q 195 -16 244 -16 q 68 45 116 -16 q 20 211 20 106 m 332 758 l 336 781 l 469 965 l 663 965 l 660 940 l 391 758 l 332 758 z "},"Ƕ":{"ha":1365,"x_min":-10,"x_max":1362,"o":"m -10 0 l -1 50 l 118 68 l 254 842 l 141 860 l 150 909 l 583 909 l 574 860 l 454 842 l 395 505 l 726 505 l 785 842 l 672 860 l 681 909 l 1116 909 l 1107 860 l 986 842 l 873 203 q 865 125 865 157 q 890 63 865 85 q 959 40 916 40 q 1052 82 1014 40 q 1102 203 1089 125 l 1166 570 l 1088 587 l 1097 637 l 1362 637 l 1284 195 q 1185 39 1265 92 q 951 -14 1105 -14 q 734 26 802 -14 q 667 147 667 66 q 671 195 667 172 l 713 431 l 382 431 l 318 68 l 431 50 l 422 0 l -10 0 z "},"Ƿ":{"ha":958,"x_min":-62,"x_max":928,"o":"m 253 -300 l -62 -300 l -53 -251 l 65 -233 l 254 842 l 141 860 l 149 909 l 466 909 l 442 774 q 573 882 502 845 q 717 920 644 920 q 874 860 821 920 q 928 690 928 801 q 857 407 928 542 q 642 164 785 273 q 304 -9 498 55 l 253 -300 m 607 776 q 516 752 564 776 q 427 684 468 728 l 318 70 q 524 212 429 117 q 667 417 618 306 q 716 642 716 528 q 689 740 716 704 q 607 776 662 776 z "},"Ǹ":{"ha":1003,"x_min":-13,"x_max":1044,"o":"m 831 842 l 712 860 l 721 909 l 1044 909 l 1036 860 l 916 842 l 768 0 l 690 0 l 323 754 l 200 68 l 319 50 l 311 0 l -13 0 l -5 50 l 115 68 l 252 842 l 138 860 l 147 909 l 441 909 l 736 303 l 831 842 m 582 985 l 367 1166 l 372 1192 l 551 1192 l 644 1006 l 640 985 l 582 985 z "},"ǹ":{"ha":772,"x_min":28,"x_max":705,"o":"m 518 492 q 456 557 518 557 q 360 510 414 557 q 281 403 307 463 l 209 0 l 28 0 l 129 576 l 68 593 l 77 637 l 304 637 l 298 519 q 556 654 404 654 q 663 618 623 654 q 702 517 702 583 q 685 393 702 482 l 626 61 l 705 45 l 696 0 l 434 0 l 503 386 q 518 492 518 465 m 472 758 l 257 940 l 262 965 l 441 965 l 534 780 l 530 758 l 472 758 z "},"Ǻ":{"ha":926,"x_min":-72,"x_max":869,"o":"m 205 50 l 195 0 l -72 0 l -62 50 l 7 68 l 460 917 l 623 917 l 795 68 l 869 50 l 860 0 l 488 0 l 497 50 l 591 68 l 549 303 l 229 303 l 104 68 l 205 50 m 467 758 l 267 378 l 536 378 l 467 758 m 543 839 q 441 881 484 839 q 399 983 399 922 q 441 1085 399 1044 q 543 1126 483 1126 q 644 1085 602 1126 q 686 983 686 1044 q 644 881 686 923 q 543 839 602 839 m 543 1050 q 496 1030 516 1050 q 476 983 476 1010 q 496 937 476 957 q 543 917 516 917 q 589 937 569 917 q 609 983 609 957 q 589 1030 609 1010 q 543 1050 568 1050 m 475 1156 l 479 1178 l 612 1362 l 806 1362 l 803 1337 l 534 1156 l 475 1156 z "},"ǻ":{"ha":694,"x_min":16,"x_max":696,"o":"m 558 61 l 632 39 l 627 0 l 391 0 l 389 94 q 298 15 349 43 q 195 -14 248 -14 q 63 47 111 -14 q 16 216 16 108 q 66 436 16 335 q 204 596 115 538 q 399 654 292 654 q 569 623 492 654 l 625 648 l 661 648 l 558 61 m 195 238 q 218 127 195 168 q 277 86 241 86 q 337 113 304 86 q 397 180 370 140 l 464 562 q 380 585 433 585 q 287 537 330 585 q 219 408 244 490 q 195 238 195 326 m 366 1037 l 370 1059 l 503 1244 l 696 1244 l 694 1219 l 425 1037 l 366 1037 m 432 718 q 331 760 373 718 q 289 863 289 802 q 331 965 289 924 q 432 1006 372 1006 q 533 965 492 1006 q 575 863 575 924 q 533 760 575 802 q 432 718 492 718 m 432 930 q 386 910 406 930 q 366 863 366 890 q 386 816 366 836 q 432 796 406 796 q 478 816 458 796 q 498 863 498 836 q 478 910 498 890 q 432 930 458 930 z "},"Ǽ":{"ha":1311,"x_min":-109,"x_max":1248,"o":"m 562 849 l 466 861 l 474 909 l 1248 909 l 1207 678 l 1145 678 l 1149 825 q 972 835 1076 835 l 837 835 l 778 501 l 970 501 l 1008 602 l 1069 602 l 1019 322 l 959 322 l 956 425 l 764 425 l 703 75 l 869 75 q 1059 85 1002 75 l 1127 254 l 1189 254 l 1132 0 l 373 0 l 381 50 l 501 68 l 543 303 l 263 303 l 91 68 l 192 50 l 184 0 l -109 0 l -101 50 l -16 68 l 562 849 m 556 378 l 632 812 l 318 378 l 556 378 m 808 985 l 812 1007 l 945 1192 l 1139 1192 l 1136 1166 l 867 985 l 808 985 z "},"ǽ":{"ha":1003,"x_min":18,"x_max":972,"o":"m 611 345 q 714 377 667 351 q 788 444 762 404 q 814 524 814 483 q 797 567 814 553 q 762 581 781 581 q 669 510 713 581 q 611 345 625 439 m 602 607 q 682 642 636 630 q 770 654 728 654 q 919 616 865 654 q 972 515 972 578 q 927 404 972 455 q 797 319 882 352 q 602 277 711 286 q 598 231 598 263 q 632 112 598 154 q 728 71 665 71 q 797 82 762 71 q 892 134 832 94 l 922 92 q 793 14 863 42 q 659 -14 724 -14 q 437 107 486 -14 q 329 15 384 45 q 210 -14 274 -14 q 71 48 123 -14 q 18 216 18 110 q 70 434 18 333 q 213 595 121 536 q 414 654 305 654 q 504 641 452 654 q 602 607 557 629 m 422 179 l 420 224 q 449 391 420 309 q 527 534 477 473 q 456 573 492 560 q 395 585 420 585 q 298 537 344 585 q 224 406 252 488 q 196 238 196 323 q 220 126 196 165 q 286 86 243 86 q 358 115 316 86 q 422 179 399 144 m 480 758 l 484 781 l 617 965 l 810 965 l 808 940 l 538 758 l 480 758 z "},"Ǿ":{"ha":1003,"x_min":-26,"x_max":1055,"o":"m 433 -14 q 180 68 283 -14 l 75 -37 l -26 -37 l 129 118 q 50 355 50 214 q 117 649 50 519 q 303 849 183 779 q 581 920 424 920 q 843 830 739 920 l 956 943 l 1055 943 l 891 779 q 964 551 964 684 q 896 255 964 388 q 709 54 827 121 q 433 -14 591 -14 m 254 329 q 260 249 254 278 l 734 722 q 564 848 686 848 q 412 781 481 848 q 298 584 342 713 q 254 329 254 456 m 760 572 q 755 643 760 604 l 282 170 q 446 56 330 56 q 600 123 530 56 q 715 317 670 191 q 760 572 760 443 m 524 985 l 528 1007 l 661 1192 l 854 1192 l 852 1166 l 583 985 l 524 985 z "},"ǿ":{"ha":694,"x_min":-32,"x_max":698,"o":"m 275 -14 q 127 28 189 -14 l 54 -57 l -32 -57 l 79 72 q 22 254 22 144 q 69 456 22 363 q 202 601 117 548 q 393 654 287 654 q 543 611 481 654 l 614 693 l 698 693 l 590 568 q 647 387 647 495 q 600 185 647 277 q 467 40 552 93 q 275 -14 382 -14 m 201 214 l 454 508 q 378 587 435 587 q 294 536 336 587 q 227 397 252 484 q 201 216 201 311 l 201 214 m 291 54 q 374 103 334 54 q 439 236 415 153 q 463 420 463 320 l 213 128 q 291 54 237 54 m 331 758 l 335 781 l 468 965 l 661 965 l 659 940 l 389 758 l 331 758 z "},"Ȁ":{"ha":926,"x_min":-72,"x_max":869,"o":"m 205 50 l 195 0 l -72 0 l -62 50 l 7 68 l 460 917 l 623 917 l 795 68 l 869 50 l 860 0 l 488 0 l 497 50 l 591 68 l 549 303 l 229 303 l 104 68 l 205 50 m 467 758 l 267 378 l 536 378 l 467 758 m 397 985 l 182 1166 l 186 1192 l 372 1192 l 458 1006 l 454 985 l 397 985 m 666 985 l 451 1166 l 455 1192 l 642 1192 l 728 1006 l 724 985 l 666 985 z "}}}
